<?xml version="1.0" encoding="UTF-8" standalone="no"?>
<!-- Created with Inkscape (http://www.inkscape.org/) -->

<svg
   xmlns:dc="http://purl.org/dc/elements/1.1/"
   xmlns:cc="http://creativecommons.org/ns#"
   xmlns:rdf="http://www.w3.org/1999/02/22-rdf-syntax-ns#"
   xmlns:svg="http://www.w3.org/2000/svg"
   xmlns="http://www.w3.org/2000/svg"
   xmlns:sodipodi="http://sodipodi.sourceforge.net/DTD/sodipodi-0.dtd"
   xmlns:inkscape="http://www.inkscape.org/namespaces/inkscape"
   width="137.02383mm"
   height="40.405666mm"
   viewBox="0 0 137.02384 40.405666"
   version="1.1"
   id="svg1455"
   sodipodi:docname="bounties-just-words.svg"
   inkscape:version="0.92.4 (5da689c313, 2019-01-14)">
  <defs
     id="defs1449" />
  <sodipodi:namedview
     id="base"
     pagecolor="#ffffff"
     bordercolor="#666666"
     borderopacity="1.0"
     inkscape:pageopacity="0.0"
     inkscape:pageshadow="2"
     inkscape:zoom="1.4"
     inkscape:cx="278.39432"
     inkscape:cy="70.774345"
     inkscape:document-units="mm"
     inkscape:current-layer="layer1"
     showgrid="false"
     inkscape:window-width="1920"
     inkscape:window-height="1016"
     inkscape:window-x="1680"
     inkscape:window-y="27"
     inkscape:window-maximized="1" />
  <metadata
     id="metadata1452">
    <rdf:RDF>
      <cc:Work
         rdf:about="">
        <dc:format>image/svg+xml</dc:format>
        <dc:type
           rdf:resource="http://purl.org/dc/dcmitype/StillImage" />
      </cc:Work>
    </rdf:RDF>
  </metadata>
  <g
     inkscape:label="Layer 1"
     inkscape:groupmode="layer"
     id="layer1"
     transform="translate(135.79171,-68.910263)">
    <path
       d="m -132.50017,69.636964 h -2.51269 l 6.15881,13.451092 h 0.79349 l 6.15881,-13.451092 h -2.45601 l -4.08064,9.068156 z"
       style="font-style:normal;font-variant:normal;font-weight:normal;font-stretch:normal;font-size:23.63027954px;line-height:125%;font-family:'Trend Sans';-inkscape-font-specification:'Trend Sans';text-align:center;letter-spacing:0px;word-spacing:0px;text-anchor:middle;fill:none;fill-opacity:1;stroke:#503821;stroke-width:1;stroke-miterlimit:4;stroke-dasharray:none;stroke-opacity:1"
       id="path1576"
       inkscape:connector-curvature="0" />
    <path
       d="m -118.05553,82.91803 h 2.34265 V 69.636964 h -2.34265 z"
       style="font-style:normal;font-variant:normal;font-weight:normal;font-stretch:normal;font-size:23.63027954px;line-height:125%;font-family:'Trend Sans';-inkscape-font-specification:'Trend Sans';text-align:center;letter-spacing:0px;word-spacing:0px;text-anchor:middle;fill:none;fill-opacity:1;stroke:#503821;stroke-width:1;stroke-miterlimit:4;stroke-dasharray:none;stroke-opacity:1"
       id="path1578"
       inkscape:connector-curvature="0" />
    <path
       d="m -110.19614,82.91803 h 2.34264 v -5.686491 l 5.8754,5.686491 h 2.928259 l -6.423279,-6.291036 6.120994,-6.99003 h -2.852714 l -5.64866,6.498845 v -6.498845 h -2.34264 z"
       style="font-style:normal;font-variant:normal;font-weight:normal;font-stretch:normal;font-size:23.63027954px;line-height:125%;font-family:'Trend Sans';-inkscape-font-specification:'Trend Sans';text-align:center;letter-spacing:0px;word-spacing:0px;text-anchor:middle;fill:none;fill-opacity:1;stroke:#503821;stroke-width:1;stroke-miterlimit:4;stroke-dasharray:none;stroke-opacity:1"
       id="path1580"
       inkscape:connector-curvature="0" />
    <path
       d="m -95.289158,82.91803 h 2.342562 V 69.636964 h -2.342562 z"
       style="font-style:normal;font-variant:normal;font-weight:normal;font-stretch:normal;font-size:23.63027954px;line-height:125%;font-family:'Trend Sans';-inkscape-font-specification:'Trend Sans';text-align:center;letter-spacing:0px;word-spacing:0px;text-anchor:middle;fill:none;fill-opacity:1;stroke:#503821;stroke-width:1;stroke-miterlimit:4;stroke-dasharray:none;stroke-opacity:1"
       id="path1582"
       inkscape:connector-curvature="0" />
    <path
       d="m -87.429851,82.91803 h 2.342642 v -8.236903 l 8.331321,8.331362 h 0.623436 V 69.636964 h -2.342562 v 8.482503 l -8.218035,-8.55807 h -0.736802 z"
       style="font-style:normal;font-variant:normal;font-weight:normal;font-stretch:normal;font-size:23.63027954px;line-height:125%;font-family:'Trend Sans';-inkscape-font-specification:'Trend Sans';text-align:center;letter-spacing:0px;word-spacing:0px;text-anchor:middle;fill:none;fill-opacity:1;stroke:#503821;stroke-width:1;stroke-miterlimit:4;stroke-dasharray:none;stroke-opacity:1"
       id="path1584"
       inkscape:connector-curvature="0" />
    <path
       d="M -64.823221,75.946883 V 78.0439 h 3.702881 v 2.361494 c -0.717935,0.264485 -1.794757,0.528977 -3.022761,0.528977 -2.758213,0 -4.798571,-1.964767 -4.798571,-4.628537 0,-2.720445 1.908124,-4.685211 5.025304,-4.685211 1.756941,0 3.476067,0.869028 3.476067,0.869028 l 0.812354,-2.00255 c 0,0 -1.719126,-1.076838 -4.685204,-1.076838 -3.929534,0 -7.16,3.022713 -7.16,6.857788 0,3.929534 2.984865,6.87668 7.481232,6.87668 3.154915,0 5.13859,-1.511357 5.13859,-1.511357 v -5.686491 z"
       style="font-style:normal;font-variant:normal;font-weight:normal;font-stretch:normal;font-size:23.63027954px;line-height:125%;font-family:'Trend Sans';-inkscape-font-specification:'Trend Sans';text-align:center;letter-spacing:0px;word-spacing:0px;text-anchor:middle;fill:none;fill-opacity:1;stroke:#503821;stroke-width:1;stroke-miterlimit:4;stroke-dasharray:none;stroke-opacity:1"
       id="path1586"
       inkscape:connector-curvature="0" />
    <path
       d="m -45.913234,79.328548 c 0,-1.738058 -0.85009,-2.909363 -3.816167,-4.061776 -1.870309,-0.680111 -2.588163,-1.209081 -2.588163,-2.059226 0,-0.925704 0.642303,-1.700274 2.040278,-1.700274 1.020218,0 2.191459,0.45341 2.966078,0.887921 l 0.75567,-2.078118 c -0.850169,-0.491193 -2.248143,-0.906812 -3.665065,-0.906812 -2.833764,0 -4.458471,1.851416 -4.458471,3.853958 0,1.586932 0.887905,2.814912 3.476067,3.759508 2.399326,0.887921 2.890527,1.416898 2.890527,2.304819 0,0.850145 -0.717934,1.624715 -2.285958,1.624715 -1.190189,0 -2.512612,-0.45341 -3.608382,-1.190197 l -0.812354,2.115901 c 1.209137,0.736787 2.777161,1.265764 4.345185,1.265764 2.965998,0 4.760755,-1.454682 4.760755,-3.816183 z"
       style="font-style:normal;font-variant:normal;font-weight:normal;font-stretch:normal;font-size:23.63027954px;line-height:125%;font-family:'Trend Sans';-inkscape-font-specification:'Trend Sans';text-align:center;letter-spacing:0px;word-spacing:0px;text-anchor:middle;fill:none;fill-opacity:1;stroke:#503821;stroke-width:1;stroke-miterlimit:4;stroke-dasharray:none;stroke-opacity:1"
       id="path1588"
       inkscape:connector-curvature="0" />
    <path
       d="m -41.380652,82.91803 h 5.006436 c 4.061768,0 7.103317,-2.852688 7.103317,-6.649979 0,-3.853967 -2.984866,-6.631087 -7.103317,-6.631087 h -5.006436 z m 5.025304,-11.127382 c 2.663794,0 4.571837,1.908092 4.571837,4.515186 0,2.588203 -2.002542,4.458511 -4.571837,4.458511 h -2.663794 v -8.973697 z"
       style="font-style:normal;font-variant:normal;font-weight:normal;font-stretch:normal;font-size:23.63027954px;line-height:125%;font-family:'Trend Sans';-inkscape-font-specification:'Trend Sans';text-align:center;letter-spacing:0px;word-spacing:0px;text-anchor:middle;fill:none;fill-opacity:1;stroke:#503821;stroke-width:1;stroke-miterlimit:4;stroke-dasharray:none;stroke-opacity:1"
       id="path1590"
       inkscape:connector-curvature="0" />
    <path
       d="m -24.591851,82.91803 h 8.633606 v -2.153685 h -6.290964 V 77.59049 h 5.705343 v -2.078117 h -5.705343 v -3.721725 h 6.290964 v -2.153684 h -8.633606 z"
       style="font-style:normal;font-variant:normal;font-weight:normal;font-stretch:normal;font-size:23.63027954px;line-height:125%;font-family:'Trend Sans';-inkscape-font-specification:'Trend Sans';text-align:center;letter-spacing:0px;word-spacing:0px;text-anchor:middle;fill:none;fill-opacity:1;stroke:#503821;stroke-width:1;stroke-miterlimit:4;stroke-dasharray:none;stroke-opacity:1"
       id="path1592"
       inkscape:connector-curvature="0" />
    <path
       d="m -10.145052,69.636964 h -2.512692 l 6.1588089,13.451092 h 0.7934858 L 0.45327978,69.636964 H -2.0026488 l -4.0806357,9.068156 z"
       style="font-style:normal;font-variant:normal;font-weight:normal;font-stretch:normal;font-size:23.63027954px;line-height:125%;font-family:'Trend Sans';-inkscape-font-specification:'Trend Sans';text-align:center;letter-spacing:0px;word-spacing:0px;text-anchor:middle;fill:none;fill-opacity:1;stroke:#503821;stroke-width:1;stroke-miterlimit:4;stroke-dasharray:none;stroke-opacity:1"
       id="path1594"
       inkscape:connector-curvature="0" />
    <path
       d="m -135.0128,108.50873 h 5.3168 c 3.7809,0 6.6401,-1.7486 6.6401,-4.7024 0,-1.7723 -1.0633,-3.1192 -3.3555,-3.7809 1.8668,-0.6616 2.9066,-1.9377 2.9066,-3.7336 0,-2.6229 -1.9141,-4.3952 -6.1912,-4.3952 h -5.3168 z m 4.7497,-7.3018 c 3.0956,0 4.0408,1.1579 4.0408,2.2922 0,1.2288 -0.8507,2.3157 -3.3319,2.3157 h -2.5284 v -4.6079 z m 0.7089,-6.6164 c 2.1504,0 3.0011,0.9215 3.0011,2.0558 0,1.2524 -1.0398,2.4812 -3.4264,2.4575 h -2.1031 v -4.5133 z"
       style="font-style:normal;font-variant:normal;font-weight:normal;font-stretch:normal;font-size:23.63027954px;line-height:125%;font-family:'Trend Sans';-inkscape-font-specification:'Trend Sans';text-align:center;letter-spacing:0px;word-spacing:0px;text-anchor:middle;fill:none;fill-opacity:1;stroke:#c69249;stroke-width:1;stroke-miterlimit:4;stroke-dasharray:none;stroke-opacity:1"
       id="path1596"
       inkscape:connector-curvature="0" />
    <path
       d="m -118.1925,100.19083 c 0,4.9151 3.7809,8.5778 8.8614,8.5778 5.0805,0 8.885,-3.6863 8.885,-8.5778 0,-4.9623 -3.7336,-8.5778 -8.885,-8.5778 -4.986,0 -8.8614,3.7809 -8.8614,8.5778 z m 3.1665,0.047 c 0,-3.4028 2.4339,-5.9785 5.7185,-5.9785 3.3319,0 5.7186,2.5757 5.7186,5.9785 0,3.3791 -2.5049,5.9548 -5.7186,5.9548 -3.2137,0 -5.7185,-2.6229 -5.7185,-5.9548 z"
       style="font-style:normal;font-variant:normal;font-weight:normal;font-stretch:normal;font-size:23.63027954px;line-height:125%;font-family:'Trend Sans';-inkscape-font-specification:'Trend Sans';text-align:center;letter-spacing:0px;word-spacing:0px;text-anchor:middle;fill:none;fill-opacity:1;stroke:#c69249;stroke-width:1;stroke-miterlimit:4;stroke-dasharray:none;stroke-opacity:1"
       id="path1598"
       inkscape:connector-curvature="0" />
    <path
       d="m -94.818,101.63233 c 0,4.9623 2.7174,7.1836 6.8764,7.1836 4.1589,0 6.9709,-2.2213 6.9709,-7.1836 v -9.7357 h -2.9302 v 9.7121 c 0,3.19 -1.5359,4.5133 -4.0407,4.5133 -2.5048,0 -3.9463,-1.3233 -3.9463,-4.4897 v -9.7357 h -2.9301 z"
       style="font-style:normal;font-variant:normal;font-weight:normal;font-stretch:normal;font-size:23.63027954px;line-height:125%;font-family:'Trend Sans';-inkscape-font-specification:'Trend Sans';text-align:center;letter-spacing:0px;word-spacing:0px;text-anchor:middle;fill:none;fill-opacity:1;stroke:#c69249;stroke-width:1;stroke-miterlimit:4;stroke-dasharray:none;stroke-opacity:1"
       id="path1600"
       inkscape:connector-curvature="0" />
    <path
       d="m -74.2756,108.50873 h 2.9302 v -10.3028 l 10.4209,10.4209 h 0.7798 v -16.7302 h -2.9301 v 10.61 L -73.354,91.80213 h -0.9216 z"
       style="font-style:normal;font-variant:normal;font-weight:normal;font-stretch:normal;font-size:23.63027954px;line-height:125%;font-family:'Trend Sans';-inkscape-font-specification:'Trend Sans';text-align:center;letter-spacing:0px;word-spacing:0px;text-anchor:middle;fill:none;fill-opacity:1;stroke:#c69249;stroke-width:1;stroke-miterlimit:4;stroke-dasharray:none;stroke-opacity:1"
       id="path1602"
       inkscape:connector-curvature="0" />
    <path
       d="m -55.333,94.59053 h 5.5532 v 13.9182 h 2.9537 v -13.9182 h 5.4586 v -2.6939 H -55.333 Z"
       style="font-style:normal;font-variant:normal;font-weight:normal;font-stretch:normal;font-size:23.63027954px;line-height:125%;font-family:'Trend Sans';-inkscape-font-specification:'Trend Sans';text-align:center;letter-spacing:0px;word-spacing:0px;text-anchor:middle;fill:none;fill-opacity:1;stroke:#c69249;stroke-width:1;stroke-miterlimit:4;stroke-dasharray:none;stroke-opacity:1"
       id="path1604"
       inkscape:connector-curvature="0" />
    <path
       d="m -36.5687,108.50873 h 2.9302 v -16.6121 h -2.9302 z"
       style="font-style:normal;font-variant:normal;font-weight:normal;font-stretch:normal;font-size:23.63027954px;line-height:125%;font-family:'Trend Sans';-inkscape-font-specification:'Trend Sans';text-align:center;letter-spacing:0px;word-spacing:0px;text-anchor:middle;fill:none;fill-opacity:1;stroke:#c69249;stroke-width:1;stroke-miterlimit:4;stroke-dasharray:none;stroke-opacity:1"
       id="path1606"
       inkscape:connector-curvature="0" />
    <path
       d="m -26.7381,108.50873 h 10.799 v -2.6939 h -7.8689 v -3.9698 h 7.1364 v -2.5994 h -7.1364 v -4.6551 h 7.8689 v -2.6939 h -10.799 z"
       style="font-style:normal;font-variant:normal;font-weight:normal;font-stretch:normal;font-size:23.63027954px;line-height:125%;font-family:'Trend Sans';-inkscape-font-specification:'Trend Sans';text-align:center;letter-spacing:0px;word-spacing:0px;text-anchor:middle;fill:none;fill-opacity:1;stroke:#c69249;stroke-width:1;stroke-miterlimit:4;stroke-dasharray:none;stroke-opacity:1"
       id="path1608"
       inkscape:connector-curvature="0" />
    <path
       d="m 0.4533,104.01893 c 0,-2.1739 -1.0633,-3.639 -4.7733,-5.0805 -2.3394,-0.8507 -3.2373,-1.5123 -3.2373,-2.5757 0,-1.1579 0.8034,-2.1267 2.552,-2.1267 1.2761,0 2.7411,0.5671 3.71,1.1106 l 0.9452,-2.5993 c -1.0634,-0.6144 -2.812,-1.1343 -4.5843,-1.1343 -3.5445,0 -5.5767,2.3158 -5.5767,4.8206 0,1.985 1.1106,3.5209 4.348,4.7024 3.001,1.1107 3.6154,1.7723 3.6154,2.8829 0,1.0634 -0.898,2.0322 -2.8593,2.0322 -1.4887,0 -3.1428,-0.5671 -4.5134,-1.4887 l -1.0161,2.6466 c 1.5124,0.9216 3.4737,1.5833 5.435,1.5833 3.71,0 5.9548,-1.8196 5.9548,-4.7734 z"
       style="font-style:normal;font-variant:normal;font-weight:normal;font-stretch:normal;font-size:23.63027954px;line-height:125%;font-family:'Trend Sans';-inkscape-font-specification:'Trend Sans';text-align:center;letter-spacing:0px;word-spacing:0px;text-anchor:middle;fill:none;fill-opacity:1;stroke:#c69249;stroke-width:1;stroke-miterlimit:4;stroke-dasharray:none;stroke-opacity:1"
       id="path1610"
       inkscape:connector-curvature="0" />
  </g>
</svg>
