<?xml version="1.0" encoding="UTF-8" standalone="no"?>
<!-- Created with Inkscape (http://www.inkscape.org/) -->

<svg
   xmlns:dc="http://purl.org/dc/elements/1.1/"
   xmlns:cc="http://creativecommons.org/ns#"
   xmlns:rdf="http://www.w3.org/1999/02/22-rdf-syntax-ns#"
   xmlns:svg="http://www.w3.org/2000/svg"
   xmlns="http://www.w3.org/2000/svg"
   xmlns:sodipodi="http://sodipodi.sourceforge.net/DTD/sodipodi-0.dtd"
   xmlns:inkscape="http://www.inkscape.org/namespaces/inkscape"
   width="126.19842"
   height="8.1940899"
   viewBox="0 0 126.19842 8.1940899"
   version="1.1"
   id="svg8"
   inkscape:version="0.92.4 (5da689c313, 2019-01-14)"
   sodipodi:docname="motto.svg">
  <defs
     id="defs2" />
  <sodipodi:namedview
     id="base"
     pagecolor="#ffffff"
     bordercolor="#666666"
     borderopacity="1.0"
     inkscape:pageopacity="0.0"
     inkscape:pageshadow="2"
     inkscape:zoom="7.9195959"
     inkscape:cx="51.366628"
     inkscape:cy="-5.0120429"
     inkscape:document-units="mm"
     inkscape:current-layer="layer1"
     showgrid="false"
     inkscape:window-width="1920"
     inkscape:window-height="1016"
     inkscape:window-x="1680"
     inkscape:window-y="27"
     inkscape:window-maximized="1" />
  <metadata
     id="metadata5">
    <rdf:RDF>
      <cc:Work
         rdf:about="">
        <dc:format>image/svg+xml</dc:format>
        <dc:type
           rdf:resource="http://purl.org/dc/dcmitype/StillImage" />
        <dc:title></dc:title>
      </cc:Work>
    </rdf:RDF>
  </metadata>
  <g
     inkscape:label="Layer 1"
     inkscape:groupmode="layer"
     id="layer1"
     class="lines"
     transform="translate(420.71131,-122.87339)">
    <g
       id="g899">
      <path
         d="m -415.58239,130.69048 h 1.32291 v -4.24392 c 0,-2.286 -1.18533,-3.32317 -3.12208,-3.32317 -1.93675,0 -3.07975,1.03717 -3.07975,3.32317 v 4.24392 h 1.32292 v -1.778 h 3.556 z m -3.556,-4.24392 c 0,-1.50283 0.74083,-2.11667 1.778,-2.11667 1.03716,0 1.778,0.53975 1.778,2.12725 v 1.40759 c -0.34925,0 -2.89984,0 -3.556,0.0106 z"
         style="font-style:normal;font-variant:normal;font-weight:normal;font-stretch:normal;font-size:10.58333302px;line-height:125%;font-family:'Trend Sans';-inkscape-font-specification:'Trend Sans';text-align:end;letter-spacing:0px;word-spacing:0px;text-anchor:end;fill:none;fill-opacity:1;stroke:#c69249;stroke-width:0.5;stroke-miterlimit:4;stroke-opacity:1"
         id="path838"
         inkscape:connector-curvature="0" />
      <path
         d="m -411.26092,130.69048 h 4.83658 v -1.2065 h -3.52425 v -1.778 h 3.19617 v -1.16417 h -3.19617 v -2.08492 h 3.52425 v -1.2065 h -4.83658 z"
         style="font-style:normal;font-variant:normal;font-weight:normal;font-stretch:normal;font-size:10.58333302px;line-height:125%;font-family:'Trend Sans';-inkscape-font-specification:'Trend Sans';text-align:end;letter-spacing:0px;word-spacing:0px;text-anchor:end;fill:none;fill-opacity:1;stroke:#c69249;stroke-width:0.5;stroke-miterlimit:4;stroke-opacity:1"
         id="path840"
         inkscape:connector-curvature="0" />
      <path
         d="m -404.5754,124.45689 h 2.48709 v 6.23359 h 1.32291 v -6.23359 h 2.44475 v -1.2065 h -6.25475 z"
         style="font-style:normal;font-variant:normal;font-weight:normal;font-stretch:normal;font-size:10.58333302px;line-height:125%;font-family:'Trend Sans';-inkscape-font-specification:'Trend Sans';text-align:end;letter-spacing:0px;word-spacing:0px;text-anchor:end;fill:none;fill-opacity:1;stroke:#c69249;stroke-width:0.5;stroke-miterlimit:4;stroke-opacity:1"
         id="path842"
         inkscape:connector-curvature="0" />
      <path
         d="m -396.1714,130.69048 h 4.83658 v -1.2065 h -3.52425 v -1.778 h 3.19617 v -1.16417 h -3.19617 v -2.08492 h 3.52425 v -1.2065 h -4.83658 z"
         style="font-style:normal;font-variant:normal;font-weight:normal;font-stretch:normal;font-size:10.58333302px;line-height:125%;font-family:'Trend Sans';-inkscape-font-specification:'Trend Sans';text-align:end;letter-spacing:0px;word-spacing:0px;text-anchor:end;fill:none;fill-opacity:1;stroke:#c69249;stroke-width:0.5;stroke-miterlimit:4;stroke-opacity:1"
         id="path844"
         inkscape:connector-curvature="0" />
      <path
         d="m -388.54396,130.69048 h 1.31233 v -2.159 h 0.81492 c 0.13758,0 0.26458,0 0.39158,-0.0106 0.89958,0.508 0.79375,2.21192 2.64583,2.21192 0.43392,0 0.70909,-0.0635 0.70909,-0.0635 v -1.16417 h -0.29634 c -0.889,0 -1.04775,-0.77258 -1.60866,-1.25941 0.99483,-0.48684 1.38641,-1.57692 1.38641,-2.3495 0,-1.55575 -0.99483,-2.64584 -2.97391,-2.64584 h -2.38125 z m 2.286,-6.23359 c 1.23825,0 1.651,0.62442 1.651,1.43934 0,0.81491 -0.42334,1.47108 -1.651,1.47108 h -0.97367 v -2.91042 z"
         style="font-style:normal;font-variant:normal;font-weight:normal;font-stretch:normal;font-size:10.58333302px;line-height:125%;font-family:'Trend Sans';-inkscape-font-specification:'Trend Sans';text-align:end;letter-spacing:0px;word-spacing:0px;text-anchor:end;fill:none;fill-opacity:1;stroke:#c69249;stroke-width:0.5;stroke-miterlimit:4;stroke-opacity:1"
         id="path846"
         inkscape:connector-curvature="0" />
      <path
         d="m -380.19305,130.69048 h 1.31233 v -4.61434 l 4.66725,4.66725 h 0.34925 v -7.493 h -1.31233 v 4.75192 l -4.60375,-4.79425 h -0.41275 z"
         style="font-style:normal;font-variant:normal;font-weight:normal;font-stretch:normal;font-size:10.58333302px;line-height:125%;font-family:'Trend Sans';-inkscape-font-specification:'Trend Sans';text-align:end;letter-spacing:0px;word-spacing:0px;text-anchor:end;fill:none;fill-opacity:1;stroke:#c69249;stroke-width:0.5;stroke-miterlimit:4;stroke-opacity:1"
         id="path848"
         inkscape:connector-curvature="0" />
      <path
         d="m -365.97302,130.69048 h 1.32292 v -4.24392 c 0,-2.286 -1.18534,-3.32317 -3.12209,-3.32317 -1.93675,0 -3.07975,1.03717 -3.07975,3.32317 v 4.24392 h 1.32292 v -1.778 h 3.556 z m -3.556,-4.24392 c 0,-1.50283 0.74083,-2.11667 1.778,-2.11667 1.03717,0 1.778,0.53975 1.778,2.12725 v 1.40759 c -0.34925,0 -2.89983,0 -3.556,0.0106 z"
         style="font-style:normal;font-variant:normal;font-weight:normal;font-stretch:normal;font-size:10.58333302px;line-height:125%;font-family:'Trend Sans';-inkscape-font-specification:'Trend Sans';text-align:end;letter-spacing:0px;word-spacing:0px;text-anchor:end;fill:none;fill-opacity:1;stroke:#c69249;stroke-width:0.5;stroke-miterlimit:4;stroke-opacity:1"
         id="path850"
         inkscape:connector-curvature="0" />
      <path
         d="m -351.42887,129.07123 c 0,0 -0.89959,0.508 -2.159,0.508 -1.54517,0 -2.68817,-1.10067 -2.68817,-2.59292 0,-1.524 1.06892,-2.62467 2.81517,-2.62467 0.96308,0 1.94733,0.48684 1.94733,0.48684 l 0.45508,-1.12184 c 0,0 -0.99483,-0.60325 -2.62466,-0.60325 -2.20134,0 -4.01109,1.69334 -4.01109,3.84175 0,2.20134 1.67217,3.85234 4.191,3.85234 1.51342,0 2.4765,-0.62442 2.4765,-0.62442 z"
         style="font-style:normal;font-variant:normal;font-weight:normal;font-stretch:normal;font-size:10.58333302px;line-height:125%;font-family:'Trend Sans';-inkscape-font-specification:'Trend Sans';text-align:end;letter-spacing:0px;word-spacing:0px;text-anchor:end;fill:none;fill-opacity:1;stroke:#503821;stroke-width:0.5;stroke-miterlimit:4;stroke-opacity:1"
         id="path852"
         inkscape:connector-curvature="0" />
      <path
         d="m -343.75216,130.69048 h 1.32292 v -4.24392 c 0,-2.286 -1.18533,-3.32317 -3.12208,-3.32317 -1.93675,0 -3.07975,1.03717 -3.07975,3.32317 v 4.24392 h 1.32291 v -1.778 h 3.556 z m -3.556,-4.24392 c 0,-1.50283 0.74084,-2.11667 1.778,-2.11667 1.03717,0 1.778,0.53975 1.778,2.12725 v 1.40759 c -0.34925,0 -2.89983,0 -3.556,0.0106 z"
         style="font-style:normal;font-variant:normal;font-weight:normal;font-stretch:normal;font-size:10.58333302px;line-height:125%;font-family:'Trend Sans';-inkscape-font-specification:'Trend Sans';text-align:end;letter-spacing:0px;word-spacing:0px;text-anchor:end;fill:none;fill-opacity:1;stroke:#503821;stroke-width:0.5;stroke-miterlimit:4;stroke-opacity:1"
         id="path854"
         inkscape:connector-curvature="0" />
      <path
         d="m -337.40927,128.53148 c 2.24367,0 3.22792,-1.0795 3.22792,-2.63525 0,-1.55575 -0.99483,-2.64584 -2.97392,-2.64584 h -2.27541 v 7.44009 h 1.31233 v -2.159 z m 0.15875,-4.07459 c 1.23825,0 1.651,0.62442 1.651,1.43934 0,0.81491 -0.42333,1.47108 -1.651,1.47108 h -0.86783 v -2.91042 z"
         style="font-style:normal;font-variant:normal;font-weight:normal;font-stretch:normal;font-size:10.58333302px;line-height:125%;font-family:'Trend Sans';-inkscape-font-specification:'Trend Sans';text-align:end;letter-spacing:0px;word-spacing:0px;text-anchor:end;fill:none;fill-opacity:1;stroke:#503821;stroke-width:0.5;stroke-miterlimit:4;stroke-opacity:1"
         id="path856"
         inkscape:connector-curvature="0" />
      <path
         d="m -331.74123,130.69048 h 1.31233 v -7.44009 h -1.31233 z"
         style="font-style:normal;font-variant:normal;font-weight:normal;font-stretch:normal;font-size:10.58333302px;line-height:125%;font-family:'Trend Sans';-inkscape-font-specification:'Trend Sans';text-align:end;letter-spacing:0px;word-spacing:0px;text-anchor:end;fill:none;fill-opacity:1;stroke:#503821;stroke-width:0.5;stroke-miterlimit:4;stroke-opacity:1"
         id="path858"
         inkscape:connector-curvature="0" />
      <path
         d="m -327.3384,130.69048 h 4.83659 v -1.2065 h -3.52425 v -1.778 h 3.19616 v -1.16417 h -3.19616 v -2.08492 h 3.52425 v -1.2065 h -4.83659 z"
         style="font-style:normal;font-variant:normal;font-weight:normal;font-stretch:normal;font-size:10.58333302px;line-height:125%;font-family:'Trend Sans';-inkscape-font-specification:'Trend Sans';text-align:end;letter-spacing:0px;word-spacing:0px;text-anchor:end;fill:none;fill-opacity:1;stroke:#503821;stroke-width:0.5;stroke-miterlimit:4;stroke-opacity:1"
         id="path860"
         inkscape:connector-curvature="0" />
      <path
         d="m -319.71096,130.69048 h 1.31234 v -4.61434 l 4.66725,4.66725 h 0.34925 v -7.493 h -1.31234 v 4.75192 l -4.60375,-4.79425 h -0.41275 z"
         style="font-style:normal;font-variant:normal;font-weight:normal;font-stretch:normal;font-size:10.58333302px;line-height:125%;font-family:'Trend Sans';-inkscape-font-specification:'Trend Sans';text-align:end;letter-spacing:0px;word-spacing:0px;text-anchor:end;fill:none;fill-opacity:1;stroke:#503821;stroke-width:0.5;stroke-miterlimit:4;stroke-opacity:1"
         id="path862"
         inkscape:connector-curvature="0" />
      <path
         d="m -310.28517,130.69048 h 2.80458 c 2.27542,0 3.97933,-1.59809 3.97933,-3.72534 0,-2.159 -1.67216,-3.71475 -3.97933,-3.71475 h -2.80458 z m 2.81516,-6.23359 c 1.49225,0 2.56117,1.06892 2.56117,2.52942 0,1.44992 -1.12183,2.49767 -2.56117,2.49767 h -1.49225 v -5.02709 z"
         style="font-style:normal;font-variant:normal;font-weight:normal;font-stretch:normal;font-size:10.58333302px;line-height:125%;font-family:'Trend Sans';-inkscape-font-specification:'Trend Sans';text-align:end;letter-spacing:0px;word-spacing:0px;text-anchor:end;fill:none;fill-opacity:1;stroke:#503821;stroke-width:0.5;stroke-miterlimit:4;stroke-opacity:1"
         id="path864"
         inkscape:connector-curvature="0" />
      <path
         d="m -296.08581,130.69048 h 1.32292 v -4.24392 c 0,-2.286 -1.18534,-3.32317 -3.12209,-3.32317 -1.93675,0 -3.07975,1.03717 -3.07975,3.32317 v 4.24392 h 1.32292 v -1.778 h 3.556 z m -3.556,-4.24392 c 0,-1.50283 0.74083,-2.11667 1.778,-2.11667 1.03717,0 1.778,0.53975 1.778,2.12725 v 1.40759 c -0.34925,0 -2.89983,0 -3.556,0.0106 z"
         style="font-style:normal;font-variant:normal;font-weight:normal;font-stretch:normal;font-size:10.58333302px;line-height:125%;font-family:'Trend Sans';-inkscape-font-specification:'Trend Sans';text-align:end;letter-spacing:0px;word-spacing:0px;text-anchor:end;fill:none;fill-opacity:1;stroke:#503821;stroke-width:0.5;stroke-miterlimit:4;stroke-opacity:1"
         id="path866"
         inkscape:connector-curvature="0" />
    </g>
  </g>
</svg>
