<?xml version="1.0" encoding="UTF-8" standalone="no"?>
<!-- Created with Inkscape (http://www.inkscape.org/) -->

<svg
   xmlns:dc="http://purl.org/dc/elements/1.1/"
   xmlns:cc="http://creativecommons.org/ns#"
   xmlns:rdf="http://www.w3.org/1999/02/22-rdf-syntax-ns#"
   xmlns:svg="http://www.w3.org/2000/svg"
   xmlns="http://www.w3.org/2000/svg"
   xmlns:sodipodi="http://sodipodi.sourceforge.net/DTD/sodipodi-0.dtd"
   xmlns:inkscape="http://www.inkscape.org/namespaces/inkscape"
   width="74.880905mm"
   height="75.001152mm"
   viewBox="0 0 74.880907 75.001153"
   version="1.1"
   id="svg2673"
   inkscape:version="0.92.4 (5da689c313, 2019-01-14)"
   sodipodi:docname="stroke-logo.svg">
  <defs
     id="defs2667" />
  <sodipodi:namedview
     id="base"
     pagecolor="#ffffff"
     bordercolor="#666666"
     borderopacity="1.0"
     inkscape:pageopacity="0.0"
     inkscape:pageshadow="2"
     inkscape:zoom="0.9899495"
     inkscape:cx="129.81498"
     inkscape:cy="11.5084"
     inkscape:document-units="mm"
     inkscape:current-layer="layer1"
     showgrid="false"
     inkscape:window-width="1920"
     inkscape:window-height="1016"
     inkscape:window-x="1680"
     inkscape:window-y="27"
     inkscape:window-maximized="1"
     inkscape:snap-global="true" />
  <metadata
     id="metadata2670">
    <rdf:RDF>
      <cc:Work
         rdf:about="">
        <dc:format>image/svg+xml</dc:format>
        <dc:type
           rdf:resource="http://purl.org/dc/dcmitype/StillImage" />
        <dc:title />
      </cc:Work>
    </rdf:RDF>
  </metadata>
  <g
     inkscape:label="Layer 1"
     inkscape:groupmode="layer"
     id="layer1"
     transform="translate(97.30341,-77.331229)"
     style="opacity:0.87">
    <path
       style="fill:none;stroke:#503821;stroke-width:3.32343721;stroke-linecap:round;stroke-linejoin:round;stroke-miterlimit:4;stroke-dasharray:none;stroke-opacity:1"
       d="m -63.070864,118.20691 14.875319,-14.97365 0.06985,-12.219273 11.630188,-11.704209 c 0.724798,-0.724798 2.78294,0.02876 2.78294,1.582012 l -0.208169,7.937672 z"
       id="path1474"
       inkscape:connector-curvature="0"
       sodipodi:nodetypes="ccccccc" />
    <path
       inkscape:connector-curvature="0"
       id="path1564"
       d="m -33.269615,110.09299 a 31.656303,31.657528 0 0 1 -14.442942,35.96661 31.656303,31.657528 0 0 1 -38.436697,-4.97168 31.656303,31.657528 0 0 1 -4.81709,-38.45784 31.656303,31.657528 0 0 1 36.022928,-14.298947"
       style="opacity:1;fill:none;fill-opacity:1;stroke:#c69249;stroke-width:3.86098748;stroke-linecap:round;stroke-linejoin:round;stroke-miterlimit:4;stroke-dasharray:none;stroke-opacity:1;stroke-dashoffset:0" />
    <path
       inkscape:connector-curvature="0"
       id="path1584"
       d="m -44.011778,110.96387 a 21.188516,21.189361 0 0 1 -8.055385,25.48073 21.188516,21.189361 0 0 1 -26.589108,-2.66922 21.188516,21.189361 0 0 1 -2.830207,-26.5735 21.188516,21.189361 0 0 1 25.430421,-8.209989"
       style="opacity:1;fill:none;fill-opacity:1;stroke:#c69249;stroke-width:3.86098742;stroke-linecap:round;stroke-linejoin:round;stroke-miterlimit:4;stroke-dasharray:none;stroke-opacity:1" />
    <path
       inkscape:connector-curvature="0"
       id="path1588"
       d="m -53.043239,117.76085 a 10.72035,10.720812 0 0 1 -6.134301,10.69676 10.72035,10.720812 0 0 1 -12.141384,-2.1512 10.72035,10.720812 0 0 1 -2.086102,-12.15325 10.72035,10.720812 0 0 1 10.728975,-6.07723"
       style="opacity:1;fill:none;fill-opacity:1;stroke:#c69249;stroke-width:3.86098742;stroke-linecap:round;stroke-linejoin:round;stroke-miterlimit:4;stroke-dasharray:none;stroke-opacity:1" />
    <path
       sodipodi:nodetypes="ccccccc"
       inkscape:connector-curvature="0"
       id="path1476"
       d="m -63.298191,117.97958 14.973652,-14.87531 12.219274,-0.0699 11.704209,-11.630184 c 0.724797,-0.724798 -0.02875,-2.782942 -1.582011,-2.782942 l -7.93767,0.20817 z"
       style="fill:none;stroke:#503821;stroke-width:3.32343721;stroke-linecap:round;stroke-linejoin:round;stroke-miterlimit:4;stroke-dasharray:none;stroke-opacity:1" />
  </g>
</svg>
