<?xml version="1.0" encoding="UTF-8" standalone="no"?>
<!-- Created with Inkscape (http://www.inkscape.org/) -->

<svg
   xmlns:dc="http://purl.org/dc/elements/1.1/"
   xmlns:cc="http://creativecommons.org/ns#"
   xmlns:rdf="http://www.w3.org/1999/02/22-rdf-syntax-ns#"
   xmlns:svg="http://www.w3.org/2000/svg"
   xmlns="http://www.w3.org/2000/svg"
   xmlns:sodipodi="http://sodipodi.sourceforge.net/DTD/sodipodi-0.dtd"
   xmlns:inkscape="http://www.inkscape.org/namespaces/inkscape"
   width="74.880905mm"
   height="75.001152mm"
   viewBox="0 0 74.880907 75.001153"
   version="1.1"
   id="svg2673"
   inkscape:version="0.92.4 (5da689c313, 2019-01-14)"
   sodipodi:docname="stroke-logo.svg">
  <defs
     id="defs2667" />
  <sodipodi:namedview
     id="base"
     pagecolor="#ffffff"
     bordercolor="#666666"
     borderopacity="1.0"
     inkscape:pageopacity="0.0"
     inkscape:pageshadow="2"
     inkscape:zoom="0.9899495"
     inkscape:cx="129.81498"
     inkscape:cy="92.320603"
     inkscape:document-units="mm"
     inkscape:current-layer="layer1"
     showgrid="false"
     inkscape:window-width="1920"
     inkscape:window-height="1016"
     inkscape:window-x="0"
     inkscape:window-y="27"
     inkscape:window-maximized="1"
     inkscape:snap-global="true" />
  <metadata
     id="metadata2670">
    <rdf:RDF>
      <cc:Work
         rdf:about="">
        <dc:format>image/svg+xml</dc:format>
        <dc:type
           rdf:resource="http://purl.org/dc/dcmitype/StillImage" />
        <dc:title />
      </cc:Work>
    </rdf:RDF>
  </metadata>
  <g
     inkscape:label="Layer 1"
     inkscape:groupmode="layer"
     id="layer1"
     transform="translate(97.30341,-77.331229)">
    <path
       style="fill:none;stroke:#503821;stroke-width:3.32343721;stroke-linecap:round;stroke-linejoin:round;stroke-miterlimit:4;stroke-dasharray:none;stroke-opacity:1"
       d="m -63.070864,118.20691 14.875319,-14.97365 0.06985,-12.219273 11.630188,-11.704209 c 0.724798,-0.724798 2.78294,0.02876 2.78294,1.582012 l -0.208169,7.937672 z"
       id="path1474"
       inkscape:connector-curvature="0"
       sodipodi:nodetypes="ccccccc" />
    <g
       id="g1472"
       style="stroke:#c69249;stroke-opacity:1"
       transform="matrix(0.55390621,0,0,0.55390621,-26.704494,51.225755)">
      <path
         sodipodi:open="true"
         d="m -11.852406,106.27654 a 57.151016,57.153229 0 0 1 -26.074706,64.93267 57.151016,57.153229 0 0 1 -69.392068,-8.97567 57.151016,57.153229 0 0 1 -8.69658,-69.43024 57.151016,57.153229 0 0 1 65.034346,-25.814743"
         sodipodi:end="4.9933145"
         sodipodi:start="6.0062757"
         sodipodi:ry="57.153229"
         sodipodi:rx="57.151016"
         sodipodi:cy="121.90134"
         sodipodi:cx="-66.826248"
         sodipodi:type="arc"
         id="path1564"
         style="opacity:1;fill:none;fill-opacity:1;stroke:#c69249;stroke-width:6.97047138;stroke-linecap:round;stroke-linejoin:round;stroke-miterlimit:4;stroke-dasharray:none;stroke-opacity:1" />
      <path
         style="opacity:1;fill:none;fill-opacity:1;stroke:#c69249;stroke-width:6.97047138;stroke-linecap:round;stroke-linejoin:round;stroke-miterlimit:4;stroke-dasharray:none;stroke-opacity:1"
         id="path1584"
         sodipodi:type="arc"
         sodipodi:cx="-66.82486"
         sodipodi:cy="121.89997"
         sodipodi:rx="38.252895"
         sodipodi:ry="38.254421"
         sodipodi:start="5.9070716"
         sodipodi:end="5.082442"
         d="m -31.245875,107.84879 a 38.252895,38.254421 0 0 1 -14.542868,46.00188 38.252895,38.254421 0 0 1 -48.002907,-4.81889 38.252895,38.254421 0 0 1 -5.109541,-47.97474 38.252895,38.254421 0 0 1 45.91106,-14.821979"
         sodipodi:open="true" />
      <path
         sodipodi:open="true"
         d="m -47.550912,120.11979 a 19.354088,19.354923 0 0 1 -11.07462,19.3115 19.354088,19.354923 0 0 1 -21.919566,-3.88369 19.354088,19.354923 0 0 1 -3.766164,-21.94099 19.354088,19.354923 0 0 1 19.36966,-10.97159"
         sodipodi:end="4.8097583"
         sodipodi:start="6.1911677"
         sodipodi:ry="19.354923"
         sodipodi:rx="19.354088"
         sodipodi:cy="121.89827"
         sodipodi:cx="-66.82312"
         sodipodi:type="arc"
         id="path1588"
         style="opacity:1;fill:none;fill-opacity:1;stroke:#c69249;stroke-width:6.97047138;stroke-linecap:round;stroke-linejoin:round;stroke-miterlimit:4;stroke-dasharray:none;stroke-opacity:1" />
    </g>
    <path
       sodipodi:nodetypes="ccccccc"
       inkscape:connector-curvature="0"
       id="path1476"
       d="m -63.298191,117.97958 14.973652,-14.87531 12.219274,-0.0699 11.704209,-11.630184 c 0.724797,-0.724798 -0.02875,-2.782942 -1.582011,-2.782942 l -7.93767,0.20817 z"
       style="fill:none;stroke:#503821;stroke-width:3.32343721;stroke-linecap:round;stroke-linejoin:round;stroke-miterlimit:4;stroke-dasharray:none;stroke-opacity:1" />
  </g>
</svg>
