<?xml version="1.0" encoding="UTF-8" standalone="no"?>
<!-- Created with Inkscape (http://www.inkscape.org/) -->

<svg
   xmlns:dc="http://purl.org/dc/elements/1.1/"
   xmlns:cc="http://creativecommons.org/ns#"
   xmlns:rdf="http://www.w3.org/1999/02/22-rdf-syntax-ns#"
   xmlns:svg="http://www.w3.org/2000/svg"
   xmlns="http://www.w3.org/2000/svg"
   xmlns:sodipodi="http://sodipodi.sourceforge.net/DTD/sodipodi-0.dtd"
   xmlns:inkscape="http://www.inkscape.org/namespaces/inkscape"
   width="126.57449mm"
   height="135.8932mm"
   viewBox="0 0 126.57449 135.8932"
   version="1.1"
   id="svg3371"
   inkscape:version="0.92.4 (5da689c313, 2019-01-14)"
   sodipodi:docname="workshops.svg">
  <defs
     id="defs3365" />
  <sodipodi:namedview
     id="base"
     pagecolor="#ffffff"
     bordercolor="#666666"
     borderopacity="1.0"
     inkscape:pageopacity="0.0"
     inkscape:pageshadow="2"
     inkscape:zoom="0.35"
     inkscape:cx="286.33874"
     inkscape:cy="-80.336819"
     inkscape:document-units="mm"
     inkscape:current-layer="layer1"
     showgrid="false"
     inkscape:window-width="1920"
     inkscape:window-height="1016"
     inkscape:window-x="1680"
     inkscape:window-y="27"
     inkscape:window-maximized="1"
     fit-margin-top="0"
     fit-margin-left="0"
     fit-margin-right="0"
     fit-margin-bottom="0" />
  <metadata
     id="metadata3368">
    <rdf:RDF>
      <cc:Work
         rdf:about="">
        <dc:format>image/svg+xml</dc:format>
        <dc:type
           rdf:resource="http://purl.org/dc/dcmitype/StillImage" />
        <dc:title></dc:title>
      </cc:Work>
    </rdf:RDF>
  </metadata>
  <g
     inkscape:label="Layer 1"
     inkscape:groupmode="layer"
     id="layer1"
     transform="translate(109.40034,8.3156475)">
    <path
       style="fill:#c69249;fill-opacity:1;stroke-width:0.12763819"
       d="m -66.152724,117.1188 v -10.45844 l -8.838899,-0.0493 c -8.380701,-0.0468 -8.898501,-0.063 -9.987701,-0.31318 -6.2951,-1.44598 -10.9594,-6.01332 -12.3818,-12.124428 -0.3613,-1.55244 -0.4456,-3.642367 -0.4457,-11.04615 -10e-5,-5.91266 -0.034,-7.499218 -0.1597,-7.500959 -0.9175,-0.01281 -2.737296,-0.323619 -3.694396,-0.631179 -3.0203,-0.970531 -5.6361,-3.38424 -6.8639,-6.333691 -1.0777,-2.588789 -1.1659,-5.672619 -0.2345,-8.206899 0.1449,-0.39434 3.0205,-6.076172 6.3903,-12.6263 l 6.126796,-11.90934 0.6304,-2.194682 c 3.7905,-13.195959 12.1976,-24.7442296 23.524001,-32.3130392 4.516699,-3.01831 8.7021,-5.08098 13.775999,-6.7891602 15.7441,-5.3003696 33.420701,-3.35459 47.606202,5.24032009 C -3.2948241,4.3524724 3.2380759,10.650212 7.9107759,17.808453 c 6.3472001,9.72343 9.5546001,21.062511 9.2426001,32.67538 -0.2312,8.605491 -1.9813,15.438171 -6.2115,24.251259 -3.9986001,8.330562 -5.9784001,15.286982 -6.9747001,24.50653 -0.1816,1.680628 -0.2217,3.961778 -0.2667,15.157028 l -0.053,13.17864 h -5.3518 -5.3519 v -11.98383 c 0,-12.2877 0.07,-14.80756 0.5211,-18.840788 1.042,-9.309428 3.3609,-17.376109 7.48510005,-26.038189 2.76109995,-5.79905 3.74809995,-8.559331 4.63249995,-12.95527 0.6651,-3.305399 0.8082,-4.83852 0.8103,-8.679399 0,-4.468371 -0.3569,-7.420832 -1.3904,-11.423621 C 1.0947759,22.522312 -10.336423,10.150432 -25.180823,4.9892134 -36.693625,0.98634279 -48.797524,1.6715528 -59.834623,6.9509924 -72.442725,12.981942 -82.091725,24.514744 -85.567924,37.708184 c -0.3687,1.399188 -0.7346,2.156089 -6.7293,13.91739 -3.4866,6.840738 -6.357,12.535829 -6.3785,12.655759 -0.022,0.11993 0.092,0.30975 0.2517,0.42183 0.2556,0.178999 0.9628,0.20378 5.8148,0.20378 h 5.5239 v 12.731911 c 0,7.85998 0.052,13.07229 0.1311,13.62142 0.1713,1.185088 0.6051,2.089268 1.4116,2.942058 0.7806,0.82533 1.8823,1.41344 2.986,1.59396 0.4654,0.0761 5.9347,0.12555 13.944399,0.12599 l 13.1787,0.001 v 15.827138 15.82713 h -5.3608 -5.360799 v -10.4584 z m 21.4431,-44.649327 v -4.690711 l -1.412301,-0.479888 c -0.776798,-0.26393 -1.993198,-0.77021 -2.703099,-1.12504 l -1.290699,-0.645152 -3.359901,3.358121 -3.359899,3.358131 -3.7964,-3.796332 -3.7963,-3.796329 3.346299,-3.35082 3.346299,-3.350829 -0.678698,-1.369092 c -0.373301,-0.75301 -0.8742,-1.97295 -1.1132,-2.71099 l -0.434502,-1.341868 -4.818398,-0.0011 -4.818301,-0.0011 v -5.360694 -5.3608 l 4.818301,-0.0011 4.818398,-0.0011 0.422101,-1.325772 c 0.2321,-0.729178 0.731001,-1.949259 1.108699,-2.71131 l 0.686602,-1.385538 -3.310501,-3.319481 c -1.8209,-1.825149 -3.310599,-3.376329 -3.310599,-3.446499 0,-0.16564 7.3011,-7.465121 7.4667,-7.465121 0.069,0 1.6197,1.489051 3.4455,3.30899 l 3.319399,3.30899 1.4967,-0.7347 c 0.8231,-0.40409 2.043001,-0.90234 2.710899,-1.107231 l 1.2143,-0.372528 v -4.690584 -4.69071 h 5.360803 5.360799 v 4.69071 4.6907 l 1.2142,0.372528 c 0.667901,0.204891 1.887799,0.703141 2.711,1.107231 l 1.4966,0.734701 3.319499,-3.308991 c 1.825702,-1.819939 3.376901,-3.30899 3.447,-3.30899 0.1657,0 7.4652,7.301079 7.4652,7.466761 0,0.0693 -1.4898,1.619711 -3.310498,3.44542 l -3.310501,3.319479 0.686599,1.385541 c 0.3777,0.76205 0.876601,1.982128 1.108702,2.71131 l 0.4221,1.325771 4.818399,0.0011 4.8182989,0.0011 v 5.36081 5.360802 l -4.8182989,0.0011 -4.818399,0.0011 -0.437502,1.351182 c -0.240699,0.743148 -0.743799,1.962118 -1.1181,2.70882 l -0.680598,1.35767 3.351199,3.352958 3.351199,3.352972 -3.796299,3.796329 -3.796401,3.796329 -3.3611,-3.359319 -3.3611,-3.35933 -1.2789,0.642731 c -0.7034,0.3535 -1.919201,0.860298 -2.701798,1.126239 l -1.423001,0.483521 v 4.6907 4.6907 h -5.3608 -5.360799 v -4.6907 z m 7.7861,-15.352689 c 0.596699,-0.141732 1.601801,-0.515922 2.2337,-0.83154 6.335501,-3.164962 7.846301,-11.43403 3.023,-16.546942 -1.435399,-1.521589 -2.839199,-2.390529 -4.834499,-2.992569 -0.9774,-0.294871 -1.349301,-0.33917 -2.8473,-0.33917 -1.4981,0 -1.870001,0.0443 -2.8473,0.33917 -1.995401,0.60204 -3.3992,1.47098 -4.834599,2.992569 -4.160203,4.409991 -3.693703,11.379611 1.023397,15.292361 1.0433,0.865421 2.806002,1.74357 4.1695,2.077231 1.416101,0.346538 3.476803,0.350269 4.914101,0.009 z"
       id="path3354"
       inkscape:connector-curvature="0" />
  </g>
</svg>
