<?xml version="1.0" encoding="UTF-8" standalone="no"?>
<!-- Created with Inkscape (http://www.inkscape.org/) -->

<svg
   xmlns:dc="http://purl.org/dc/elements/1.1/"
   xmlns:cc="http://creativecommons.org/ns#"
   xmlns:rdf="http://www.w3.org/1999/02/22-rdf-syntax-ns#"
   xmlns:svg="http://www.w3.org/2000/svg"
   xmlns="http://www.w3.org/2000/svg"
   xmlns:sodipodi="http://sodipodi.sourceforge.net/DTD/sodipodi-0.dtd"
   xmlns:inkscape="http://www.inkscape.org/namespaces/inkscape"
   width="609.4953mm"
   height="137.19492mm"
   viewBox="0 0 609.4953 137.19492"
   version="1.1"
   id="svg844"
   inkscape:version="0.92.4 (5da689c313, 2019-01-14)"
   sodipodi:docname="logo-flat-dark-nobg.svg">
  <defs
     id="defs838" />
  <sodipodi:namedview
     id="base"
     pagecolor="#ffffff"
     bordercolor="#666666"
     borderopacity="1.0"
     inkscape:pageopacity="0.0"
     inkscape:pageshadow="2"
     inkscape:zoom="0.35"
     inkscape:cx="1408.9474"
     inkscape:cy="70.694597"
     inkscape:document-units="mm"
     inkscape:current-layer="layer1"
     showgrid="false"
     inkscape:window-width="1920"
     inkscape:window-height="1016"
     inkscape:window-x="1680"
     inkscape:window-y="27"
     inkscape:window-maximized="1" />
  <metadata
     id="metadata841">
    <rdf:RDF>
      <cc:Work
         rdf:about="">
        <dc:format>image/svg+xml</dc:format>
        <dc:type
           rdf:resource="http://purl.org/dc/dcmitype/StillImage" />
        <dc:title />
      </cc:Work>
    </rdf:RDF>
  </metadata>
  <g
     inkscape:label="Layer 1"
     inkscape:groupmode="layer"
     id="layer1"
     transform="translate(317.59947,-62.848978)">
    <g
       id="g1998"
       transform="translate(4507.3455,-356.2309)">
      <path
         id="path1959"
         transform="matrix(0.26458333,0,0,0.26458333,0,-312.6)"
         d="m -17775.139,2765.4043 c -1.332,0 -2.123,0.3244 -3.035,1.2266 l -1.222,1.2265 -0.288,20.0313 c -0.311,19.6917 -0.696,25.0088 -2.351,32.5136 -0.552,2.4899 -2.434,8.563 -3.106,9.9258 -2.728,5.6833 -3.901,7.6368 -7.023,11.6992 -1.636,2.1286 -4.853,5.596 -7.133,7.7051 -4.259,3.9264 -4.957,4.71 -4.715,7.0567 0.04,1.3386 2.122,4.0237 3.106,4.0312 3.032,0.017 7.139,3.0708 8.963,6.6543 1.18,2.3418 2.98,7.4578 2.98,8.5039 0,0.7817 2.37,2.9329 3.5,3.1543 1.253,0.2346 4.472,-0.5444 5.356,-1.2969 0.384,-0.3263 1.223,-0.8259 1.871,-1.0996 2.975,-1.2728 9.371,-6.2647 13.603,-10.6211 7.53,-7.7469 10.682,-13.6438 13.297,-24.8632 1.25,-4.9397 1.25,-5.8623 1.008,-13.084 -0.216,-7.3648 -0.72,-10.9782 -2.52,-18.2813 -0.77,-3.1257 -4.082,-13.5251 -4.826,-15.1855 -0.24,-0.5145 -1.247,-2.9324 -2.279,-5.3731 -1.02,-2.4421 -3.013,-6.6471 -4.404,-9.3457 -6.716,-12.9388 -7.927,-14.5781 -10.782,-14.5781 z m -341.058,22.9219 c -0.885,0 -1.745,0.3742 -2.414,1.0078 -1.536,1.4396 -1.847,4.0205 -0.983,8.0527 0.408,1.8668 0.959,4.8611 1.223,6.6602 1.175,7.6822 2.676,16.7808 3.494,21.2597 0.359,1.9268 1.079,6.0296 1.631,9.1133 1.536,8.7394 2.207,11.9008 4.748,22.3887 2.435,10.077 6.669,23.727 8.312,26.7949 0.239,0.4511 1.321,2.7021 2.424,5.0156 2.539,5.3639 4.059,7.874 7.944,13.0997 4.94,6.6415 12.839,13.7663 18.869,17.0156 1.032,0.5494 2.184,1.1965 2.57,1.4316 0.936,0.5687 5.007,2.3281 5.391,2.3281 0.242,0 0.983,0.2915 1.775,0.6661 3.578,1.6123 14.203,3.9332 20.631,4.5019 5.219,0.4607 24.167,0.1187 28.27,-0.5098 1.679,-0.2543 5.244,-0.7643 7.943,-1.1386 9.926,-1.3605 13.214,-2.1228 15.527,-3.5977 2.328,-1.4804 5.33,-4.7692 6.571,-7.1933 1.079,-2.1043 2.66,-8.6874 2.66,-11.0254 0,-2.6271 -1.607,-9.243 -2.785,-11.5743 -1.152,-2.2794 -5.759,-7.2825 -7.971,-8.6796 -3.251,-2.0539 -8.066,-3.0678 -15.639,-3.2969 -16.767,-0.5087 -34.619,-3.3869 -43.922,-7.0781 -10.217,-4.0546 -18.132,-9.1856 -24.812,-16.0899 -3.139,-3.2404 -8.594,-9.8535 -8.594,-10.414 0,-0.1199 -0.72,-1.2567 -1.607,-2.4766 -4.54,-6.3292 -12.784,-21.9229 -19.209,-36.332 -0.359,-0.7727 -1.391,-3.0829 -2.327,-5.1387 -0.935,-2.0563 -2.039,-4.4747 -2.433,-5.3731 -0.408,-0.9021 -1.103,-2.4781 -1.535,-3.5058 -0.456,-1.027 -0.959,-2.3073 -1.127,-2.8457 -0.576,-2.0011 -2.675,-3.184 -4.625,-3.0664 z m 188.707,23.4297 c -6.33,0 -17.859,1.7279 -28.28,4.248 -3.21,0.7726 -6.718,1.6012 -7.792,1.834 -2.256,0.4895 -6.403,1.7257 -8.094,2.418 -0.648,0.2638 -3.06,1.0713 -5.373,1.8007 -2.304,0.7247 -5.363,1.7759 -6.776,2.3301 -1.415,0.5495 -3.337,1.2174 -4.275,1.4766 -4.168,1.1493 -6.07,5.664 -3.479,8.2578 l 1.223,1.2207 10.393,0.096 c 11.466,0.096 21.133,0.7327 27.914,1.8652 6.353,1.063 14.621,3.3099 17.289,4.6973 0.648,0.3334 1.369,0.6094 1.609,0.6094 1.056,0 7.869,3.6494 12.166,6.4941 5.125,3.3923 13.662,11.3265 18.031,16.7559 3.679,4.574 10.04,13.8507 13.418,19.5781 3.115,5.2718 6.172,10.7684 6.172,11.0937 0,0.1199 -1.104,0.4314 -2.453,0.6954 -6.445,1.2525 -19.265,4.0426 -23.246,5.0586 -2.438,0.6262 -5.7,1.4451 -7.24,1.8242 -5.301,1.3052 -21.067,6.24 -23.901,7.4824 -0.816,0.3526 -1.703,0.6484 -2.015,0.6484 -0.287,0 -1.416,0.3813 -2.498,0.8516 -1.08,0.4703 -2.905,1.2258 -4.061,1.6816 -1.152,0.4607 -2.796,1.125 -3.64,1.4825 -0.84,0.3624 -1.753,0.6562 -1.993,0.6562 -0.242,0 -2.087,0.7555 -4.074,1.6817 -1.991,0.9213 -4.254,1.9516 -5.021,2.2851 -0.768,0.3334 -3.717,1.6898 -6.543,3.0176 -7.103,3.3347 -12.051,5.8665 -23.129,11.8281 -2.232,1.1949 -8.189,4.6808 -13.946,8.1465 -0.935,0.5687 -2.014,1.1844 -2.408,1.3691 -0.384,0.192 -1.536,0.8723 -2.57,1.5274 -1.032,0.655 -2.28,1.4249 -2.803,1.7129 -1.512,0.8446 -8.486,5.1016 -10.291,6.2754 -0.575,0.3815 -2.793,1.7534 -4.894,3.0371 -2.112,1.2837 -4.304,2.6519 -4.897,3.0371 -0.575,0.3815 -2.207,1.3967 -3.58,2.2461 -1.391,0.8518 -4.291,2.6758 -6.476,4.0625 -2.184,1.3868 -5.096,3.2158 -6.473,4.0644 -1.368,0.8518 -2.988,1.8579 -3.58,2.2442 -0.576,0.3815 -2.729,1.6881 -4.744,2.8984 -5.087,3.0494 -6.825,4.9214 -6.825,7.3613 0,1.0702 0.337,2.2633 0.745,2.7168 0.672,0.763 6.586,9.0979 13.738,19.416 4.518,6.5212 5.181,7.2693 6.842,7.711 2.409,0.6382 2.859,0.4315 11.994,-5.461 0.648,-0.4126 1.535,-0.9693 1.943,-1.2285 1.416,-0.8614 5.752,-3.5335 6.465,-3.9843 0.384,-0.245 3.853,-2.2439 7.709,-4.4454 3.854,-2.2002 7.325,-4.2023 7.709,-4.4492 1.728,-1.1109 19.587,-10.1397 25.24,-12.7656 2.695,-1.2501 6.369,-2.9688 8.166,-3.8184 1.8,-0.8518 5.273,-2.3198 7.713,-3.2695 3.897,-1.514 5.869,-2.3338 9.576,-3.9844 0.528,-0.2158 2.722,-1.0153 4.909,-1.7519 7.985,-2.684 11.466,-3.8911 12.38,-4.291 0.505,-0.2158 2.933,-0.9601 5.373,-1.6368 2.443,-0.6766 4.86,-1.4047 5.375,-1.623 1.152,-0.4799 2.399,-0.8137 15.418,-3.9902 5.653,-1.3797 12.592,-2.9581 15.418,-3.5059 2.829,-0.5495 6.347,-1.2993 7.821,-1.6641 1.463,-0.3624 3.449,-0.666 4.392,-0.666 0.936,0 3.31,-0.3033 5.266,-0.6679 7.292,-1.3629 15.559,-2.343 29.48,-3.4961 1.224,-0.096 3.123,-0.2652 4.827,-0.4141 l -0.315,-7.8613 c -1.128,-29.412 -11.222,-56.7226 -29.467,-79.8438 -4.777,-6.0527 -15.539,-16.7997 -21.775,-21.7461 -2.699,-2.1402 -7.43,-5.5496 -10.514,-7.5761 -6.481,-4.2595 -19.908,-11.0623 -26.513,-13.4356 -2.501,-0.9022 -4.553,-1.8972 -4.555,-2.2187 0,-0.087 0.02,-0.1679 0.04,-0.2422 -0.02,0.07 -0.04,0.1475 -0.04,0.2285 0,0.3215 2.05,1.3185 4.552,2.2207 6.609,2.3732 20.031,9.1751 26.514,13.4336 3.083,2.0275 7.812,5.4359 10.512,7.5762 6.238,4.9466 17,15.6933 21.775,21.7461 18.248,23.1212 28.339,50.4337 29.467,79.8457 l 0.477,7.875 4.478,-0.293 c 2.464,-0.168 7.633,-0.5194 11.488,-0.7832 4.168,-0.2759 20.978,-0.4691 41.481,-0.3731 l 34.469,0.1211 1.175,-1.1699 c 1.632,-1.6304 1.944,-4.9605 1.008,-10.6289 -0.804,-4.8046 -1.428,-9.1229 -2.435,-16.6621 -2.169,-16.1672 -2.29,-16.7112 -4.209,-18.4004 -1.833,-1.61 -2.139,-1.6577 -14.006,-2.3535 -15.505,-0.907 -23.777,-1.4644 -32.01,-2.1602 -4.496,-0.3839 -9.804,-0.6855 -11.771,-0.6855 -3.593,0 -14.309,-0.7343 -16.965,-1.1758 -1.056,-0.1776 -1.584,-0.6468 -2.184,-1.9785 -2.683,-5.994 -3.548,-7.8068 -5.539,-11.793 -1.226,-2.4419 -2.998,-5.8066 -3.91,-7.4765 -0.936,-1.6698 -1.943,-3.5573 -2.279,-4.2051 -0.336,-0.6426 -1.178,-2.0576 -1.873,-3.1446 -0.72,-1.0869 -1.295,-2.1048 -1.295,-2.2246 0,-0.1367 -0.72,-1.2554 -1.536,-2.4863 -0.839,-1.2328 -1.727,-2.5879 -1.992,-3.0078 -4.83,-7.9644 -17.093,-21.6693 -24.781,-27.6992 -4.484,-3.5161 -10.144,-7.0847 -13.998,-8.8242 -1.538,-0.6983 -3.122,-1.4369 -3.506,-1.629 -0.384,-0.2015 -2.603,-0.9271 -4.906,-1.623 -2.313,-0.6958 -4.84,-1.4742 -5.608,-1.7285 -1.393,-0.4624 -7.765,-1.3132 -12.925,-1.8379 -0.545,-0.057 -1.098,-0.124 -1.604,-0.1719 -0.317,-0.029 -0.592,-0.051 -0.89,-0.076 -0.61,-0.053 -1.187,-0.1011 -1.684,-0.1329 -0.149,-0.01 -0.244,-0.01 -0.383,-0.017 -0.427,-0.023 -0.903,-0.055 -1.195,-0.055 z m -221.321,67.6328 h 0.01 c -5.982,0.096 -13.037,1.6061 -18.978,4.3477 -5.505,2.5417 -10.19,5.9511 -14.936,10.8711 -7.016,7.2728 -10.761,13.8938 -13.381,23.6484 l -1.465,5.4063 -0.263,48.8261 c -0.242,45.6076 -0.338,48.9966 -1.129,51.3965 -1.896,5.7274 -5.013,10.2259 -9.209,13.3145 -3.532,2.6004 -6.765,3.8036 -12.567,4.6758 -9.876,1.4828 -13.538,4.2389 -14.992,11.2792 -1.056,5.1768 0.816,10.653 4.629,13.5762 2.351,1.7876 5.126,2.6648 11.336,3.5723 6.097,0.8901 9.99,2.781 14.033,6.8144 3.165,3.1581 5.203,6.5447 6.77,11.2481 0.816,2.4037 0.865,5.7144 1.129,51.164 l 0.263,48.5938 1.321,4.9062 c 2.833,10.4898 7.298,18.2814 14.738,25.7247 8.206,8.2064 17.32,12.4495 28.996,13.5019 11.841,1.0677 18.435,-2.4765 20.191,-10.8555 1.032,-4.9346 -1.391,-10.8331 -5.408,-13.1582 -2.375,-1.37 -4.651,-1.9907 -10.506,-2.8554 -6.408,-0.9502 -11.039,-3.2802 -15.152,-7.6407 -3.09,-3.2778 -5.357,-7.2236 -6.471,-11.2714 -0.432,-1.5572 -0.647,-14.5206 -0.863,-50.918 -0.314,-51.8074 -0.238,-49.7929 -2.488,-57.2813 -2.184,-7.2735 -5.221,-12.1807 -11.237,-18.1953 l -4.271,-4.2715 3.371,-3.1386 c 5.545,-5.164 10.073,-11.8911 11.992,-17.8145 2.4,-7.3969 2.304,-5.4163 2.614,-58.1621 0.264,-45.8223 0.358,-49.4744 1.126,-51.8633 2.748,-8.3602 8.413,-14.3157 16.252,-17.082 0.984,-0.3432 3.517,-0.8605 5.641,-1.1484 8.34,-1.1254 11.719,-2.9625 14.135,-7.6914 3.419,-6.6865 0.577,-15.1093 -6.094,-18.0606 -2.351,-1.0389 -5.553,-1.5089 -9.141,-1.4609 z m 489.969,0.031 c -6.017,-0.073 -9.135,0.8075 -12.092,3.4082 -2.797,2.4582 -4.095,5.0123 -4.382,8.6153 -0.344,4.2695 0.799,7.6554 3.527,10.4687 2.562,2.643 4.663,3.4103 12.248,4.4805 10.346,1.4591 17.238,6.8766 20.977,16.4863 l 1.224,3.1211 0.264,48.8262 c 0.264,47.4418 0.288,48.9506 1.248,53.1582 2.562,11.2832 5.868,17.3082 13.519,24.6504 l 3.42,3.2812 -4.004,3.961 c -4.523,4.4753 -8.955,10.7244 -10.466,14.7753 -1.471,3.949 -2.742,9.5942 -3.27,14.6641 -0.238,2.6055 -0.48,22.7685 -0.48,49.0469 -0.02,49.5917 0.09,47.7045 -3.162,53.9199 -3.899,7.4384 -10.402,11.8528 -19.321,13.127 -8.237,1.1747 -11.191,2.3784 -13.303,5.4336 -3.882,5.6059 -3.231,13.3369 1.489,17.6894 2.476,2.2823 4.41,3.1774 8.052,3.7148 v -0.01 c 1.458,0.2287 3.487,0.3363 4.519,0.2403 6.279,-0.5471 7.996,-0.8134 11.83,-1.8379 15.097,-4.0401 28.765,-17.1831 33.959,-32.6543 2.797,-8.5201 2.699,-5.5347 3.035,-58.4571 0.216,-35.4783 0.455,-49.1346 0.864,-50.6054 1.094,-3.9322 3.564,-8.2326 6.566,-11.4219 3.942,-4.192 8.764,-6.6388 14.537,-7.373 11.285,-1.4404 15.8,-5.0679 16.256,-13.0743 0.484,-8.3868 -3.43,-12.9771 -12.522,-14.6855 -7.867,-1.4802 -8.738,-1.7072 -11.644,-3.082 -3.772,-1.7842 -8.721,-6.6687 -10.664,-10.502 -3.146,-6.5955 -3.102,-2.6565 -3.389,-56.5312 l -0.263,-48.5918 -1.321,-4.8614 c -1.751,-6.4671 -3.817,-11.2416 -6.922,-16.0058 -10.063,-15.4378 -23.409,-23.1612 -40.328,-23.377 z m -113.148,82.5781 c -1.109,-0.02 -1.897,0.3733 -2.68,1.1075 -1.679,1.5805 -1.751,3.106 -0.287,7.5156 0.72,2.1852 1.511,4.7052 1.775,5.6074 0.265,0.8995 1.247,4.2645 2.182,7.4766 1.562,5.3394 2.667,9.5727 3.314,12.6152 0.144,0.6421 0.648,2.9572 1.127,5.1406 6.414,29.0279 6.156,61.2268 -0.718,90.8789 -1.639,7.0483 -2.024,8.6159 -3.703,14.4844 -0.936,3.3403 -1.943,6.864 -2.208,7.8262 -0.24,0.9573 -0.574,1.7519 -0.816,1.7519 -0.194,0 -2.54,-2.0489 -5.213,-4.5546 -5.647,-5.2883 -26.683,-24.6762 -35.361,-32.6055 0.01,0.011 -0.2,-0.186 -0.192,-0.1777 0.324,0.3069 -1.612,-1.46 -7.175,-6.6329 -5.488,-5.1131 -7.615,-5.2912 -11.26,-0.9394 -1.2,1.4468 -3.055,3.5839 -4.096,4.748 -1.055,1.1638 -4.627,5.352 -7.967,9.3067 -3.34,3.9537 -9.963,11.7349 -14.718,17.291 -4.754,5.557 -9.695,11.3327 -10.979,12.8359 -1.295,1.5021 -4.399,5.1714 -6.916,8.1563 -2.519,2.9846 -4.776,5.3773 -5.014,5.3144 -0.241,-0.096 -3.747,-2.6818 -7.802,-5.8203 -4.055,-3.1387 -11.153,-8.6053 -15.78,-12.1504 -16.431,-12.5894 -19.512,-15.0804 -29.609,-23.957 -9.761,-8.5789 -19.729,-18.9891 -25.963,-27.1133 -2.509,-3.2699 -9.009,-12.8826 -10.101,-14.9375 -1.824,-3.4218 -3.273,-6.0288 -3.635,-6.5058 -0.238,-0.2854 -1.296,-2.5609 -2.352,-5.0606 -1.08,-2.4995 -2.278,-5.1294 -2.64,-5.8418 -0.359,-0.715 -0.672,-1.6212 -0.672,-2.0195 0,-0.4031 -0.242,-0.9208 -0.408,-1.168 -0.432,-0.4799 -3.197,-9.2592 -4.483,-14.293 -1.032,-4.029 -2.641,-5.6992 -5.504,-5.6992 h -0.02 c -1.656,0 -4.707,1.3356 -17.184,7.5078 -9.36,4.6299 -15.672,8.0323 -16.471,8.875 -1.583,1.658 -2.207,3.7209 -2.207,7.1465 0,1.4229 -0.31,5.1029 -0.672,8.1797 -0.359,3.076 -0.792,7.3793 -0.96,9.5645 -0.239,2.1834 -0.575,7.0217 -0.959,10.748 -0.36,3.7265 -0.986,10.4535 -1.37,14.9512 -0.407,4.4977 -0.935,10.3851 -1.199,13.084 -0.264,2.6974 -0.671,7.5342 -0.959,10.7461 -0.264,3.2123 -0.792,8.4675 -1.152,11.6796 -0.359,3.2121 -0.672,6.8719 -0.672,8.1309 0,1.2597 -0.287,5.0452 -0.672,8.4121 -1.127,10.1663 -1.87,18.6062 -1.822,20.9942 0.238,4.6044 3.681,5.9266 9.279,3.3964 1.536,-0.6958 3.645,-1.6618 4.672,-2.1464 2.207,-1.039 4.505,-2.0633 10.516,-4.6895 2.44,-1.0677 5.592,-2.4656 7.005,-3.1074 4.257,-1.9316 5.245,-2.381 8.413,-3.8106 l 3.037,-1.3691 0.31,14.5449 c 0.242,8.0009 0.529,19.0682 0.817,24.5938 0.287,5.5256 0.6,14.7762 0.744,20.5586 0.527,22.7195 1.246,40.0724 1.726,42.6093 0.624,3.2886 1.945,4.6892 4.45,4.7305 1.847,0 3.049,-0.4708 9.252,-3.8945 3.373,-1.8596 7.333,-3.9976 11.914,-6.4258 4.621,-2.4515 12.137,-6.4922 13.785,-7.4121 1.032,-0.5783 3.131,-1.7072 4.672,-2.5117 1.535,-0.8038 4.274,-2.2545 6.076,-3.2207 1.799,-0.9694 5.292,-2.8453 7.765,-4.1739 l 4.495,-2.416 0.984,3.1563 c 0.528,1.7347 1.728,5.677 2.656,8.7617 0.936,3.0837 1.969,6.4464 2.328,7.4746 0.337,1.0269 1.079,3.4478 1.631,5.375 0.552,1.9267 1.295,4.3432 1.631,5.3711 0.359,1.027 1.104,3.4475 1.656,5.375 0.576,1.9267 1.343,4.5542 1.703,5.8398 0.384,1.2837 0.985,3.1772 1.297,4.2051 0.359,1.0269 1.079,3.4456 1.631,5.373 1.056,3.608 3.847,12.8111 4.903,16.1211 0.336,1.027 0.744,2.5256 0.912,3.3282 0.359,1.598 1.846,3.2235 3.3,3.584 1.488,0.3719 3.653,-0.1676 4.743,-1.1563 0.551,-0.5086 2.441,-3.3426 4.205,-6.3027 1.775,-2.9611 3.515,-5.8808 3.902,-6.4883 0.384,-0.607 3.503,-5.6881 6.93,-11.2871 3.426,-5.5978 9.149,-14.9091 12.724,-20.6914 3.573,-5.7821 6.686,-10.9329 6.914,-11.4473 0.359,-0.8326 0.479,-0.7633 0.887,0.7051 0.265,0.9022 0.937,2.7911 1.488,4.2051 0.552,1.4132 1.224,3.2014 1.489,3.9726 0.264,0.7726 0.766,2.0659 1.127,2.875 0.359,0.8134 0.671,1.6419 0.671,1.8555 0,0.2158 0.744,2.2818 1.68,4.6015 1.944,4.8982 2.543,6.4626 3.959,10.2911 0.576,1.5404 1.2,3.2238 1.44,3.7382 0.241,0.5087 0.839,2.1945 1.367,3.7364 0.527,1.5428 1.681,4.5905 2.556,6.7754 0.864,2.1834 1.966,5.2058 2.475,6.7129 0.72,2.1666 1.704,3.7392 2.897,4.6425 0,-0.011 0,-0.026 0,-0.037 0.177,0.619 0.698,0.7961 1.541,0.9336 v 0.01 c 1.746,0.2784 3.764,-0.501 4.988,-1.9238 0.643,-0.7517 3.072,-3.9408 5.375,-7.0859 6.625,-9.0072 21.213,-28.6798 27.262,-36.7598 3.898,-5.2207 3.923,-5.2412 4.714,-4.207 0.435,0.5722 3.192,4.5092 6.131,8.7461 2.942,4.2371 5.931,8.5487 6.651,9.5781 0.717,1.0308 2.87,4.2041 4.765,7.0527 1.893,2.8496 3.79,5.4476 4.174,5.7715 1.219,1.0078 3.992,0.7185 5.264,-0.5508 1.341,-1.3465 2.661,-6.1484 3.381,-12.2734 0.24,-2.3135 0.697,-5.677 0.984,-7.4766 1.19,-7.6294 1.909,-12.5457 2.797,-18.9238 0.972,-6.9043 1.715,-11.9923 2.986,-20.3242 0.408,-2.5703 0.938,-6.3539 1.225,-8.4102 0.288,-2.0558 0.598,-4.5804 0.84,-5.6074 l 0.336,-1.8691 0.984,2.1015 c 0.528,1.1563 1.44,3.2587 1.992,4.6719 1.114,2.7641 2.095,5.055 3.127,7.1641 0.361,0.727 0.649,1.5839 0.649,1.8984 0,0.3143 0.623,1.1619 1.367,1.8769 1.804,1.7277 4.336,1.7862 5.992,0.1426 1.032,-1.0514 1.176,-1.6794 1.535,-6.9375 1.008,-14.7833 1.439,-22.615 1.871,-34.5175 0.24,-7.067 0.43,-13.1114 0.672,-13.4258 0.12,-0.3165 0.433,-6.8912 0.721,-14.6075 0.264,-7.7174 0.574,-14.8764 0.816,-15.9082 l 0.336,-1.875 4.139,3.5645 c 4.252,3.6605 5.819,4.4753 7.906,4.0723 1.562,-0.2968 2.951,-1.9824 3.193,-3.4317 0.07,-1.4137 -0.792,-8.6921 -1.679,-13.9902 -0.36,-2.1842 -0.985,-6.4942 -1.416,-9.5781 -0.432,-3.0847 -1.057,-7.4995 -1.416,-9.8125 -0.612,-4.0176 -1.82,-12.3495 -3.26,-22.4278 -0.36,-2.569 -0.912,-6.249 -1.199,-8.1758 -0.312,-1.9274 -0.793,-5.5034 -1.129,-7.9453 -0.797,-5.9095 -1.967,-13.9408 -3.742,-25.6972 -0.408,-2.6987 -0.915,-6.3782 -1.153,-8.1778 -0.216,-1.7981 -0.648,-4.8486 -0.935,-6.7754 -1.608,-10.6001 -2.568,-17.2381 -3.528,-24.4414 -1.228,-9.3075 -2.084,-10.787 -7.929,-13.7011 -1.8,-0.8967 -6.531,-3.3308 -10.512,-5.4063 -5.076,-2.6446 -7.813,-3.8224 -9.66,-3.8555 z m -50.772,109.7891 c 0,0 0,4e-4 0,0 l 0.309,2.5625 z m 1.035,8.793 c 1.576,14.3417 2.403,27.6316 2.698,43.5332 -0.315,-15.901 -1.126,-29.1904 -2.698,-43.5332 z m -20.158,193.9297 c -0.191,0.6039 -0.339,1.1001 -0.488,1.5996 0.148,-0.4937 0.298,-1.0029 0.488,-1.5996 z m -0.754,2.5058 c -0.323,1.1512 -0.52,2.0144 -0.568,2.625 0.04,-0.6004 0.254,-1.5006 0.568,-2.625 z m -0.578,2.8926 c 0,0.071 0,0.1488 0,0.2129 0,-0.063 0,-0.143 0,-0.2129 z"
         style="fill:#c68e49;fill-opacity:1;stroke-width:0.46724668"
         inkscape:connector-curvature="0" />
      <g
         aria-label="vikingsDev"
         style="font-style:normal;font-weight:normal;font-size:80.79755402px;line-height:1.25;font-family:sans-serif;letter-spacing:0px;word-spacing:0px;fill:#ffffff;fill-opacity:1;stroke:none;stroke-width:0.38576886"
         id="text1971">
        <path
           d="m -4578.362,479.51498 -11.958,29.32951 -12.0389,-29.32951 h -8.2413 l 17.8563,40.56037 h 4.8478 l 17.6947,-40.56037 z"
           style="font-style:normal;font-variant:normal;font-weight:normal;font-stretch:normal;font-family:Acre;-inkscape-font-specification:Acre;fill:#ffffff;fill-opacity:1;stroke-width:0.38576886"
           id="path819" />
        <path
           d="m -4559.5399,471.92001 c 2.9895,0 5.171,-2.26233 5.171,-5.25184 0,-2.82792 -2.1815,-5.09025 -5.171,-5.09025 -2.9895,0 -5.1711,2.26233 -5.1711,5.09025 0,2.98951 2.1816,5.25184 5.1711,5.25184 z m -3.7975,47.99375 h 7.5949 v -40.39878 h -7.5949 z"
           style="font-style:normal;font-variant:normal;font-weight:normal;font-stretch:normal;font-family:Acre;-inkscape-font-specification:Acre;fill:#ffffff;fill-opacity:1;stroke-width:0.38576886"
           id="path821" />
        <path
           d="m -4507.7209,519.91376 -19.1491,-19.957 18.0179,-20.44178 h -9.2917 l -16.5635,19.14902 v -43.38829 h -7.595 v 64.63805 h 7.595 v -18.58344 l 17.1291,18.58344 z"
           style="font-style:normal;font-variant:normal;font-weight:normal;font-stretch:normal;font-family:Acre;-inkscape-font-specification:Acre;fill:#ffffff;fill-opacity:1;stroke-width:0.38576886"
           id="path823" />
        <path
           d="m -4495.9434,471.92001 c 2.9895,0 5.171,-2.26233 5.171,-5.25184 0,-2.82792 -2.1815,-5.09025 -5.171,-5.09025 -2.9895,0 -5.1711,2.26233 -5.1711,5.09025 0,2.98951 2.1816,5.25184 5.1711,5.25184 z m -3.7975,47.99375 h 7.595 v -40.39878 h -7.595 z"
           style="font-style:normal;font-variant:normal;font-weight:normal;font-stretch:normal;font-family:Acre;-inkscape-font-specification:Acre;fill:#ffffff;fill-opacity:1;stroke-width:0.38576886"
           id="path825" />
        <path
           d="m -4458.9104,478.707 c -5.575,0 -9.8573,2.66632 -12.2004,6.46381 v -5.65583 h -7.595 v 40.39878 h 7.595 v -22.05773 c 0,-7.99896 4.2015,-12.20044 9.8573,-12.20044 5.7366,0 9.8573,4.20148 9.8573,12.20044 v 22.05773 h 7.595 v -23.1889 c 0,-12.03884 -7.191,-18.01786 -15.1092,-18.01786 z"
           style="font-style:normal;font-variant:normal;font-weight:normal;font-stretch:normal;font-family:Acre;-inkscape-font-specification:Acre;fill:#ffffff;fill-opacity:1;stroke-width:0.38576886"
           id="path827" />
        <path
           d="m -4395.2091,479.51498 h -7.5141 v 6.5446 c -3.0704,-4.28227 -7.8374,-7.11018 -13.8164,-7.11018 -11.2309,0 -18.9067,9.13012 -18.9067,20.76497 0,11.63485 7.6758,20.76497 18.9067,20.76497 6.0598,0 10.8268,-2.90871 13.978,-7.27178 v 3.07031 c 0,8.96853 -5.1711,13.17 -12.6045,13.17 -4.767,0 -9.9381,-1.93914 -14.4627,-5.09025 l -0.081,7.99896 c 4.4438,2.50472 9.2109,4.28227 15.3515,4.28227 9.6149,0 19.2298,-6.05982 19.2298,-18.42184 z m -20.0378,33.61178 c -7.2717,0 -12.362,-5.97902 -12.362,-13.41239 0,-7.35258 5.0903,-13.3316 12.362,-13.3316 7.2718,0 12.5237,6.22141 12.5237,13.3316 0,7.11018 -5.2519,13.41239 -12.5237,13.41239 z"
           style="font-style:normal;font-variant:normal;font-weight:normal;font-stretch:normal;font-family:Acre;-inkscape-font-specification:Acre;fill:#ffffff;fill-opacity:1;stroke-width:0.38576886"
           id="path829" />
        <path
           d="m -4371.6781,520.56014 c 8.403,0 13.978,-5.00945 14.0588,-11.63485 0,-14.05877 -19.3914,-11.39246 -19.3106,-18.66423 0,-2.42393 2.1815,-4.03988 5.2518,-4.03988 3.3935,0 6.6254,2.34313 8.403,3.95908 l 4.4439,-5.57503 c -2.5048,-2.82792 -7.2718,-5.81743 -12.9276,-5.73663 -7.9182,0 -13.0085,5.09025 -13.0085,11.23086 -0.081,13.73558 19.2299,10.82687 19.2299,18.66423 0,2.66632 -2.5048,4.44387 -5.8983,4.44387 -3.7974,0 -7.2717,-2.26233 -9.7765,-4.68626 l -4.767,5.65583 c 3.3127,3.71669 9.2109,6.38301 14.3011,6.38301 z"
           style="font-style:normal;font-variant:normal;font-weight:normal;font-stretch:normal;font-family:Acre;-inkscape-font-specification:Acre;fill:#ffffff;fill-opacity:1;stroke-width:0.38576886"
           id="path831" />
        <path
           d="m -4332.9205,463.35547 h -14.8667 v 56.55829 h 14.8667 c 17.7755,0 28.36,-12.76602 28.36,-28.44074 0,-15.59393 -10.5845,-28.11755 -28.36,-28.11755 z m 0.081,49.04411 h -7.2717 v -41.52994 h 7.2717 c 12.9276,0 20.5226,9.04933 20.5226,20.60338 0,11.31166 -7.595,20.92656 -20.5226,20.92656 z"
           style="font-style:normal;font-variant:normal;font-weight:normal;font-stretch:normal;font-family:Acre;-inkscape-font-specification:Acre;fill:#ffffff;fill-opacity:1;stroke-width:0.38576886"
           id="path833" />
        <path
           d="m -4276.6222,478.9494 c -11.8773,0 -19.7954,9.53411 -19.7954,20.76497 0,11.31166 7.7565,20.84577 20.6033,20.84577 5.4943,0 10.3421,-1.53516 13.7356,-4.03988 v -7.67577 c -3.8783,2.66632 -7.9989,4.36307 -13.3316,4.36307 -6.9486,0 -11.958,-4.03988 -13.17,-10.42288 h 30.8647 c 0.8888,-12.76602 -6.3022,-23.83528 -18.9066,-23.83528 z m -0.1616,7.59497 c 5.8174,0 9.9381,4.03988 11.0692,9.9381 h -22.7849 c 1.212,-5.81743 5.575,-9.9381 11.7157,-9.9381 z"
           style="font-style:normal;font-variant:normal;font-weight:normal;font-stretch:normal;font-family:Acre;-inkscape-font-specification:Acre;fill:#ffffff;fill-opacity:1;stroke-width:0.38576886"
           id="path835" />
        <path
           d="m -4223.6102,479.51498 -11.958,29.32951 -12.0389,-29.32951 h -8.2413 l 17.8562,40.56037 h 4.8479 l 17.6946,-40.56037 z"
           style="font-style:normal;font-variant:normal;font-weight:normal;font-stretch:normal;font-family:Acre;-inkscape-font-specification:Acre;fill:#ffffff;fill-opacity:1;stroke-width:0.38576886"
           id="path837" />
      </g>
    </g>
  </g>
</svg>
