<?xml version="1.0" encoding="UTF-8" standalone="no"?>
<!-- Created with Inkscape (http://www.inkscape.org/) -->

<svg
   xmlns:dc="http://purl.org/dc/elements/1.1/"
   xmlns:cc="http://creativecommons.org/ns#"
   xmlns:rdf="http://www.w3.org/1999/02/22-rdf-syntax-ns#"
   xmlns:svg="http://www.w3.org/2000/svg"
   xmlns="http://www.w3.org/2000/svg"
   xmlns:sodipodi="http://sodipodi.sourceforge.net/DTD/sodipodi-0.dtd"
   xmlns:inkscape="http://www.inkscape.org/namespaces/inkscape"
   width="609.49536mm"
   height="137.19473mm"
   viewBox="0 0 609.49536 137.19473"
   version="1.1"
   id="svg2597"
   inkscape:version="0.92.4 (5da689c313, 2019-01-14)"
   sodipodi:docname="logo-flat-light.svg">
  <defs
     id="defs2591" />
  <sodipodi:namedview
     id="base"
     pagecolor="#ffffff"
     bordercolor="#666666"
     borderopacity="1.0"
     inkscape:pageopacity="0.0"
     inkscape:pageshadow="2"
     inkscape:zoom="0.175"
     inkscape:cx="-962.41869"
     inkscape:cy="438.90434"
     inkscape:document-units="mm"
     inkscape:current-layer="layer1"
     showgrid="false"
     inkscape:window-width="1920"
     inkscape:window-height="1016"
     inkscape:window-x="1680"
     inkscape:window-y="27"
     inkscape:window-maximized="1" />
  <metadata
     id="metadata2594">
    <rdf:RDF>
      <cc:Work
         rdf:about="">
        <dc:format>image/svg+xml</dc:format>
        <dc:type
           rdf:resource="http://purl.org/dc/dcmitype/StillImage" />
        <dc:title />
      </cc:Work>
    </rdf:RDF>
  </metadata>
  <g
     inkscape:label="Layer 1"
     inkscape:groupmode="layer"
     id="layer1"
     transform="translate(5.3911138,-105.93827)">
    <path
       inkscape:connector-curvature="0"
       style="fill:#c68e49;fill-opacity:1;stroke-width:0.12362568"
       d="m 116.54843,105.93827 c -0.35242,0 -0.56171,0.0858 -0.80301,0.32454 l -0.32332,0.32451 -0.0762,5.29995 c -0.0823,5.21009 -0.18415,6.61691 -0.62203,8.60255 -0.14605,0.65879 -0.644,2.26563 -0.8218,2.6262 -0.72178,1.50371 -1.03214,2.02057 -1.85817,3.09542 -0.43286,0.56319 -1.28402,1.48061 -1.88727,2.03864 -1.12686,1.03886 -1.31154,1.24619 -1.24751,1.86708 0.0106,0.35417 0.56144,1.06461 0.82179,1.06659 0.80222,0.005 1.88886,0.81248 2.37146,1.76062 0.31221,0.6196 0.78846,1.97321 0.78846,2.24999 0,0.20682 0.62706,0.77599 0.92604,0.83457 0.33153,0.0621 1.18322,-0.14404 1.41711,-0.34313 0.1016,-0.0863 0.32359,-0.21852 0.49504,-0.29094 0.78713,-0.33676 2.47941,-1.65754 3.59912,-2.81017 1.99232,-2.0497 2.82628,-3.60992 3.51817,-6.57838 0.33073,-1.30697 0.33073,-1.55107 0.2667,-3.46181 -0.0572,-1.94861 -0.1905,-2.90465 -0.66675,-4.83693 -0.20373,-0.82701 -1.08003,-3.57852 -1.27688,-4.01783 -0.0635,-0.13613 -0.32994,-0.77586 -0.60299,-1.42163 -0.26987,-0.64614 -0.79718,-1.75871 -1.16522,-2.47272 -1.77694,-3.42339 -2.09735,-3.85712 -2.85274,-3.85712 z m -90.238259,6.06475 c -0.234156,0 -0.461698,0.099 -0.638704,0.26665 -0.4064,0.38089 -0.488686,1.06376 -0.260086,2.13061 0.10795,0.49392 0.253736,1.28616 0.323586,1.76218 0.310885,2.03258 0.708025,4.43992 0.924454,5.62496 0.09499,0.5098 0.285485,1.59533 0.431535,2.41123 0.4064,2.3123 0.583936,3.14875 1.256242,5.92367 0.64426,2.66621 1.764506,6.27777 2.199217,7.08949 0.06323,0.11935 0.349514,0.71493 0.641349,1.32704 0.671778,1.4192 1.073944,2.08333 2.10185,3.46596 1.307042,1.75723 3.396986,3.64234 4.992423,4.50205 0.27305,0.14536 0.57785,0.31657 0.679979,0.37877 0.24765,0.15047 1.324769,0.61598 1.426369,0.61598 0.06403,0 0.260086,0.0771 0.469636,0.17624 0.946679,0.42659 3.757877,1.04066 5.458618,1.19113 1.380861,0.12189 6.394186,0.0314 7.479771,-0.13489 0.444235,-0.0673 1.387475,-0.20222 2.101585,-0.30125 2.626255,-0.35997 3.496205,-0.56166 4.108186,-0.95189 0.61595,-0.39169 1.410229,-1.26185 1.738577,-1.90323 0.285485,-0.55676 0.703792,-2.29854 0.703792,-2.91714 0,-0.69508 -0.425186,-2.44554 -0.736865,-3.06236 -0.3048,-0.6031 -1.523735,-1.92683 -2.108994,-2.29648 -0.86016,-0.54343 -2.134129,-0.81169 -4.137818,-0.87231 -4.436269,-0.13459 -9.159611,-0.89611 -11.62103,-1.87274 -2.703247,-1.07278 -4.797424,-2.43036 -6.564841,-4.25712 -0.830527,-0.85736 -2.273829,-2.60707 -2.273829,-2.75537 0,-0.0317 -0.1905,-0.33251 -0.425186,-0.65527 -1.201208,-1.6746 -3.382433,-5.80043 -5.082381,-9.61284 -0.09499,-0.20445 -0.368035,-0.81569 -0.615685,-1.35962 -0.247386,-0.54406 -0.539486,-1.18393 -0.643731,-1.42163 -0.10795,-0.23868 -0.291836,-0.65566 -0.406136,-0.92758 -0.12065,-0.27172 -0.253735,-0.61047 -0.298185,-0.75292 -0.1524,-0.52946 -0.707761,-0.84243 -1.223698,-0.81132 z m 49.928726,6.19911 c -1.674812,0 -4.725193,0.45717 -7.482416,1.12395 -0.849313,0.20442 -1.777471,0.42365 -2.061634,0.48524 -0.5969,0.12952 -1.694127,0.4566 -2.141537,0.63977 -0.17145,0.0698 -0.809625,0.28345 -1.421606,0.47643 -0.6096,0.19175 -1.418961,0.46988 -1.792817,0.61651 -0.374385,0.14539 -0.882915,0.3221 -1.131094,0.39068 -1.102783,0.30409 -1.606021,1.4986 -0.920485,2.18488 l 0.323585,0.32298 2.749815,0.0254 c 3.033712,0.0254 5.591439,0.19386 7.385579,0.4935 1.680898,0.28125 3.868473,0.87574 4.574381,1.24282 0.17145,0.0882 0.362215,0.16124 0.425715,0.16124 0.2794,0 2.082006,0.96557 3.21892,1.71823 1.35599,0.89755 3.614738,2.9968 4.770703,4.43333 0.973402,1.21021 2.656416,3.66467 3.550179,5.18004 0.824177,1.39483 1.633008,2.84914 1.633008,2.93521 0,0.0317 -0.2921,0.11414 -0.649023,0.18399 -1.70524,0.33139 -5.097198,1.06961 -6.150504,1.33842 -0.645054,0.16568 -1.508125,0.38235 -1.915583,0.48266 -1.402557,0.34533 -5.573977,1.651 -6.323807,1.97971 -0.2159,0.0933 -0.450585,0.17156 -0.533135,0.17156 -0.07593,0 -0.37465,0.10088 -0.660929,0.22532 -0.28575,0.12443 -0.768615,0.32432 -1.074473,0.44492 -0.3048,0.1219 -0.739775,0.29766 -0.963083,0.39225 -0.22225,0.0959 -0.463815,0.17362 -0.527315,0.17362 -0.06403,0 -0.552185,0.19989 -1.077912,0.44495 -0.526786,0.24376 -1.125538,0.51636 -1.328473,0.6046 -0.2032,0.0882 -0.983457,0.44709 -1.731169,0.7984 -1.879335,0.88231 -3.188494,1.55218 -6.119548,3.12952 -0.59055,0.31615 -2.166673,1.23846 -3.689879,2.15543 -0.247385,0.15047 -0.532871,0.31337 -0.637117,0.36224 -0.1016,0.0508 -0.4064,0.2308 -0.679979,0.40412 -0.27305,0.17331 -0.60325,0.37701 -0.741627,0.45321 -0.40005,0.22347 -2.245254,1.3498 -2.722827,1.66036 -0.152135,0.10094 -0.738981,0.46393 -1.294871,0.80357 -0.5588,0.33965 -1.138766,0.70165 -1.295664,0.80357 -0.152136,0.10094 -0.583936,0.36954 -0.947209,0.59428 -0.368035,0.22537 -1.135327,0.70797 -1.713441,1.07487 -0.57785,0.36692 -1.348317,0.85084 -1.712648,1.07537 -0.36195,0.22537 -0.790575,0.49157 -0.947208,0.59378 -0.1524,0.10094 -0.722048,0.44664 -1.255184,0.76687 -1.345935,0.80682 -1.805781,1.30212 -1.805781,1.94767 0,0.28316 0.08917,0.59883 0.197115,0.71882 0.1778,0.20188 1.742545,2.40716 3.634845,5.13715 1.195388,1.7254 1.370807,1.92334 1.810279,2.04021 0.637382,0.16885 0.756444,0.11416 3.173413,-1.44489 0.17145,-0.10917 0.406135,-0.25647 0.514085,-0.32505 0.37465,-0.22791 1.521884,-0.9349 1.710532,-1.05417 0.1016,-0.0648 1.019439,-0.5937 2.039672,-1.17618 1.019705,-0.58214 1.938073,-1.11186 2.039673,-1.17719 0.4572,-0.29392 5.182394,-2.68279 6.678084,-3.37756 0.713052,-0.33076 1.685131,-0.7855 2.160587,-1.01029 0.47625,-0.22537 1.395148,-0.61378 2.040731,-0.86505 1.031082,-0.40058 1.55284,-0.61749 2.53365,-1.05421 0.1397,-0.0571 0.720196,-0.26863 1.29884,-0.46352 2.112698,-0.71014 3.033712,-1.02952 3.275541,-1.13533 0.133615,-0.0571 0.776023,-0.25403 1.421607,-0.43307 0.646377,-0.17902 1.285875,-0.37166 1.422135,-0.42942 0.3048,-0.12697 0.634736,-0.21529 4.079346,-1.05574 1.495689,-0.36504 3.331633,-0.78266 4.079346,-0.9276 0.748506,-0.14539 1.67931,-0.34377 2.069306,-0.44029 0.387085,-0.0959 0.912548,-0.17622 1.16205,-0.17622 0.24765,0 0.875771,-0.0802 1.393296,-0.17671 1.929341,-0.3606 4.116652,-0.61992 7.799916,-0.92501 0.32385,-0.0254 0.826294,-0.0702 1.277144,-0.10957 l -0.08334,-2.07996 c -0.29845,-7.78193 -2.969154,-15.00786 -7.796477,-21.12534 -1.263914,-1.60145 -4.11136,-4.44492 -5.761302,-5.75366 -0.71411,-0.56626 -1.965854,-1.46833 -2.781829,-2.00451 -1.714764,-1.12699 -5.267325,-2.9269 -7.014898,-3.55483 -0.661723,-0.23871 -1.204648,-0.50197 -1.205177,-0.58703 0,-0.023 0.0053,-0.0444 0.01058,-0.0641 -0.0053,0.0185 -0.01058,0.039 -0.01058,0.0605 0,0.0851 0.542396,0.34885 1.204384,0.58756 1.748631,0.62791 5.299868,2.42758 7.015162,3.55431 0.81571,0.53644 2.066925,1.43825 2.7813,2.00453 1.650471,1.30879 4.497917,4.15219 5.761302,5.75366 4.828117,6.11748 7.498027,13.34392 7.796477,21.12584 l 0.126206,2.08359 1.184804,-0.0775 c 0.651934,-0.0444 2.019561,-0.13742 3.039531,-0.20722 1.10278,-0.073 5.55043,-0.12412 10.97518,-0.0987 l 9.11992,0.032 0.31089,-0.30953 c 0.4318,-0.43138 0.51435,-1.31247 0.2667,-2.81223 -0.21273,-1.27122 -0.37783,-2.41377 -0.64426,-4.40852 -0.57388,-4.27757 -0.6059,-4.4215 -1.11363,-4.86843 -0.48498,-0.42598 -0.56595,-0.4386 -3.70576,-0.6227 -4.10236,-0.23998 -6.291,-0.38746 -8.46931,-0.57155 -1.18957,-0.10158 -2.59398,-0.18138 -3.11441,-0.18138 -0.95065,0 -3.78592,-0.19428 -4.48866,-0.31109 -0.2794,-0.047 -0.4191,-0.17114 -0.57785,-0.52348 -0.70987,-1.58591 -0.938734,-2.06555 -1.46552,-3.12023 -0.324379,-0.64609 -0.793221,-1.53633 -1.034521,-1.97816 -0.24765,-0.4418 -0.514085,-0.9412 -0.602985,-1.1126 -0.0889,-0.17002 -0.311679,-0.54441 -0.495565,-0.83201 -0.1905,-0.28757 -0.342635,-0.55689 -0.342635,-0.58859 0,-0.0362 -0.1905,-0.33216 -0.4064,-0.65783 -0.221985,-0.32618 -0.456935,-0.68472 -0.52705,-0.79582 -1.277938,-2.10724 -4.522523,-5.73333 -6.55664,-7.32874 -1.186391,-0.93031 -2.683933,-1.8745 -3.703637,-2.33474 -0.406929,-0.18476 -0.826029,-0.38018 -0.927629,-0.43101 -0.1016,-0.0533 -0.688711,-0.24529 -1.298046,-0.42942 -0.611981,-0.18409 -1.280583,-0.39004 -1.483783,-0.45733 -0.368565,-0.12234 -2.05449,-0.34745 -3.41974,-0.48627 -0.144198,-0.0151 -0.290512,-0.0328 -0.424392,-0.0455 -0.08387,-0.008 -0.156633,-0.0135 -0.235479,-0.0201 -0.161396,-0.014 -0.31406,-0.0267 -0.445558,-0.0352 -0.03942,-0.003 -0.06456,-0.003 -0.101335,-0.004 -0.112977,-0.006 -0.238919,-0.0145 -0.316177,-0.0145 z M 17.68105,136.09664 h 0.0026 c -1.582738,0.0254 -3.449373,0.42495 -5.021263,1.15033 -1.456531,0.67249 -2.6961037,1.57456 -3.9518161,2.87631 -1.8563167,1.92426 -2.8471813,3.67607 -3.5403896,6.25697 l -0.3876146,1.43042 -0.069585,12.91857 c -0.064029,12.06701 -0.089429,12.96369 -0.2987146,13.59866 -0.5016499,1.51537 -1.3263562,2.7056 -2.4365478,3.52279 -0.9345084,0.68803 -1.78990627,1.00637 -3.3250187,1.23714 -2.613025,0.39233 -3.5819292,1.12155 -3.9666333,2.98429 -0.2794,1.3697 0.2159,2.81861 1.2247562,3.59204 0.6220354,0.47297 1.3562542,0.70506 2.9993166,0.94517 1.6131646,0.2355 2.6431875,0.73581 3.7128979,1.80298 0.8374062,0.83558 1.3766271,1.73161 1.7912291,2.97606 0.2159,0.63597 0.2288646,1.51193 0.2987146,13.53714 l 0.069585,12.85711 0.3495146,1.29809 c 0.7495646,2.77543 1.9309292,4.83696 3.8994291,6.80633 2.1711706,2.17128 4.5825836,3.29393 7.6718586,3.57238 3.132931,0.2825 4.877593,-0.65524 5.342202,-2.87218 0.27305,-1.30562 -0.368036,-2.86626 -1.430867,-3.48145 -0.628385,-0.36247 -1.230577,-0.5267 -2.779712,-0.75549 -1.69545,-0.2514 -2.920736,-0.86788 -4.008967,-2.0216 -0.817563,-0.86725 -1.417373,-1.91124 -1.712119,-2.98222 -0.1143,-0.41201 -0.171185,-3.84191 -0.228335,-13.47206 -0.08308,-13.70737 -0.06297,-13.17437 -0.658284,-15.15567 -0.577849,-1.92445 -1.3813891,-3.22281 -2.9731224,-4.81418 l -1.1300354,-1.13016 0.8919104,-0.83043 c 1.4671146,-1.3663 2.6651484,-3.14618 3.1728834,-4.71342 0.635,-1.95709 0.6096,-1.43306 0.691621,-15.38872 0.06985,-12.12381 0.09472,-13.0901 0.297921,-13.72216 0.727075,-2.21197 2.225939,-3.7877 4.300008,-4.51961 0.26035,-0.0908 0.930539,-0.22768 1.492514,-0.30385 2.206625,-0.29776 3.100652,-0.78383 3.739886,-2.03502 0.90461,-1.76914 0.152664,-3.99767 -1.612371,-4.77853 -0.622035,-0.27488 -1.469231,-0.39923 -2.418556,-0.38653 z m 129.63763,0.008 c -1.592,-0.0193 -2.41697,0.21365 -3.19934,0.90176 -0.74004,0.65039 -1.08347,1.32617 -1.15941,2.27946 -0.091,1.12964 0.21141,2.02549 0.93319,2.76984 0.67786,0.6993 1.23375,0.90231 3.24062,1.18547 2.73738,0.38605 4.56088,1.81943 5.55016,4.362 l 0.32385,0.82579 0.0699,12.9186 c 0.0699,12.55231 0.0762,12.95151 0.3302,14.06477 0.67786,2.98535 1.55258,4.57946 3.5769,6.52209 l 0.90488,0.86815 -1.05939,1.04801 c -1.19671,1.18409 -2.36935,2.8375 -2.76913,3.9093 -0.38921,1.04484 -0.72549,2.53847 -0.86519,3.87988 -0.063,0.68937 -0.127,6.02416 -0.127,12.97699 -0.005,13.12114 0.0238,12.62182 -0.83661,14.26631 -1.03161,1.96807 -2.7522,3.13605 -5.11202,3.47318 -2.17937,0.31081 -2.96095,0.62929 -3.51975,1.43764 -1.02711,1.48323 -0.85487,3.52872 0.39396,4.68032 0.65511,0.60386 1.16682,0.84069 2.13043,0.98288 v -0.003 c 0.38576,0.0605 0.9226,0.089 1.19565,0.0636 1.66132,-0.14475 2.11561,-0.21521 3.13002,-0.48628 3.99442,-1.06894 7.61074,-4.54636 8.98499,-8.63978 0.74004,-2.25428 0.71411,-1.46439 0.80301,-15.46678 0.0572,-9.38696 0.12038,-13.00019 0.2286,-13.38934 0.28945,-1.0404 0.94297,-2.17821 1.73725,-3.02205 1.04299,-1.10913 2.31881,-1.75651 3.84625,-1.95077 2.98582,-0.3811 4.18042,-1.34088 4.30107,-3.45924 0.12806,-2.21901 -0.90752,-3.43352 -3.31312,-3.88554 -2.08147,-0.39163 -2.31192,-0.45169 -3.0808,-0.81544 -0.99801,-0.47207 -2.30744,-1.76443 -2.82152,-2.77866 -0.83238,-1.74506 -0.82074,-0.70286 -0.89667,-14.95721 l -0.0696,-12.85658 -0.34951,-1.28625 c -0.46329,-1.71108 -1.00992,-2.97434 -1.83145,-4.23486 -2.6625,-4.08459 -6.19363,-6.12807 -10.67012,-6.18517 z m -29.93707,21.84879 c -0.29343,-0.005 -0.50192,0.0988 -0.70909,0.29303 -0.44423,0.41817 -0.46328,0.82179 -0.0759,1.9885 0.1905,0.57817 0.39978,1.24492 0.46963,1.48362 0.0701,0.238 0.32994,1.12832 0.57732,1.97819 0.41328,1.41271 0.70565,2.53278 0.87683,3.33777 0.0381,0.16989 0.17145,0.78243 0.29819,1.36012 1.69703,7.6803 1.62877,16.19959 -0.18997,24.04504 -0.43366,1.86486 -0.53552,2.27962 -0.97976,3.83233 -0.24765,0.88379 -0.51408,1.8161 -0.5842,2.07068 -0.0635,0.25329 -0.15187,0.46353 -0.2159,0.46353 -0.0513,0 -0.67204,-0.54211 -1.37927,-1.20508 -1.4941,-1.39919 -7.05988,-6.52891 -9.35593,-8.62687 0.003,0.003 -0.0529,-0.0492 -0.0508,-0.047 0.0857,0.0812 -0.42651,-0.3863 -1.89839,-1.75496 -1.45203,-1.35284 -2.0148,-1.39996 -2.9792,-0.24855 -0.3175,0.3828 -0.80831,0.94824 -1.08374,1.25624 -0.279132,0.30793 -1.224224,1.41605 -2.107932,2.4624 -0.883709,1.04608 -2.636044,3.10486 -3.894138,4.57491 -1.257829,1.47029 -2.565135,2.99844 -2.90486,3.39617 -0.342635,0.39743 -1.163902,1.36826 -1.829858,2.15802 -0.666486,0.78967 -1.26365,1.42274 -1.326621,1.4061 -0.06377,-0.0254 -0.991394,-0.70956 -2.064279,-1.53996 -1.072886,-0.83044 -2.950898,-2.27681 -4.175125,-3.21479 -4.347369,-3.33094 -5.16255,-3.99002 -7.834048,-6.33862 -2.582598,-2.26984 -5.219965,-5.0242 -6.869377,-7.17373 -0.66384,-0.86516 -2.383631,-3.40852 -2.672556,-3.95221 -0.4826,-0.90535 -0.865981,-1.59512 -0.961761,-1.72133 -0.06297,-0.0755 -0.3429,-0.67757 -0.6223,-1.33895 -0.28575,-0.66132 -0.60272,-1.35715 -0.6985,-1.54564 -0.09499,-0.18918 -0.1778,-0.42894 -0.1778,-0.53433 0,-0.10665 -0.06403,-0.24363 -0.10795,-0.30903 -0.1143,-0.12697 -0.845873,-2.44983 -1.186127,-3.78169 -0.27305,-1.06601 -0.698764,-1.50791 -1.456266,-1.50791 h -0.0053 c -0.43815,0 -1.245394,0.35337 -4.5466,1.98643 -2.4765,1.225 -4.14655,2.12522 -4.357952,2.34818 -0.418835,0.43868 -0.583935,0.98449 -0.583935,1.89085 0,0.37647 -0.08202,1.35014 -0.1778,2.16421 -0.09499,0.81386 -0.20955,1.95244 -0.254,2.53061 -0.06324,0.57769 -0.152136,1.85782 -0.253736,2.84374 -0.09525,0.98597 -0.260879,2.76582 -0.362479,3.95584 -0.107685,1.19001 -0.247385,2.74772 -0.317235,3.4618 -0.06985,0.71369 -0.177536,1.99343 -0.253736,2.84324 -0.06985,0.84992 -0.20955,2.24036 -0.3048,3.09023 -0.09499,0.84987 -0.1778,1.81819 -0.1778,2.1513 0,0.3333 -0.07594,1.33488 -0.1778,2.2257 -0.298185,2.68984 -0.494771,4.92289 -0.482071,5.55472 0.06297,1.21825 0.973932,1.56808 2.455069,0.89863 0.4064,-0.1841 0.964406,-0.43969 1.236133,-0.5679 0.583936,-0.2749 1.191948,-0.54592 2.782359,-1.24077 0.645583,-0.28249 1.47955,-0.65235 1.853406,-0.82216 1.126331,-0.51107 1.38774,-0.62998 2.225939,-1.00822 l 0.80354,-0.36224 0.08202,3.84833 c 0.06403,2.11691 0.139964,5.04513 0.216164,6.50711 0.07594,1.46198 0.15875,3.90954 0.19685,5.43947 0.139436,6.0112 0.329671,10.60248 0.456671,11.27371 0.1651,0.8701 0.514615,1.24068 1.177396,1.25161 0.488686,0 0.806715,-0.12457 2.447925,-1.03042 0.89244,-0.49202 1.94019,-1.0577 3.152246,-1.70016 1.222639,-0.64863 3.211248,-1.71773 3.647281,-1.96112 0.27305,-0.15301 0.82841,-0.4517 1.236133,-0.66455 0.406136,-0.21268 1.13083,-0.59651 1.607609,-0.85215 0.475985,-0.25648 1.400175,-0.75282 2.054489,-1.10434 l 1.189302,-0.63924 0.26035,0.83511 c 0.1397,0.45897 0.4572,1.50204 0.702734,2.3182 0.24765,0.81589 0.520964,1.70561 0.61595,1.97765 0.08916,0.2717 0.285485,0.91223 0.431535,1.42214 0.14605,0.50977 0.342635,1.14914 0.431535,1.4211 0.09499,0.27173 0.2921,0.91215 0.43815,1.42214 0.1524,0.50977 0.355336,1.20496 0.450586,1.54511 0.1016,0.33965 0.260614,0.84064 0.343164,1.1126 0.09499,0.2717 0.285486,0.91165 0.431536,1.42161 0.2794,0.95461 1.017852,3.3896 1.297252,4.26537 0.0889,0.27173 0.19685,0.66823 0.2413,0.88059 0.09499,0.4228 0.488421,0.85288 0.873125,0.94826 0.3937,0.0984 0.966523,-0.0443 1.254919,-0.30593 0.145785,-0.13457 0.645848,-0.8844 1.112573,-1.66759 0.469635,-0.78346 0.93001,-1.55596 1.032404,-1.7167 0.1016,-0.1606 0.926835,-1.50498 1.833562,-2.98638 0.906463,-1.48108 2.420673,-3.9447 3.366558,-5.4746 0.945357,-1.52984 1.769005,-2.89266 1.82933,-3.02876 0.09499,-0.22029 0.126735,-0.20196 0.234685,0.18656 0.07011,0.2387 0.247915,0.73847 0.3937,1.1126 0.14605,0.3739 0.32385,0.84703 0.393965,1.05108 0.06985,0.20442 0.20267,0.5466 0.298185,0.76068 0.09498,0.21521 0.177535,0.43442 0.177535,0.49093 0,0.0571 0.19685,0.60373 0.4445,1.21748 0.51435,1.29598 0.672836,1.7099 1.047486,2.72285 0.1524,0.40757 0.3175,0.85297 0.381,0.98907 0.06376,0.13459 0.221985,0.58063 0.361685,0.98859 0.139436,0.4082 0.444765,1.21457 0.676275,1.79266 0.2286,0.57769 0.520171,1.37736 0.654844,1.77612 0.1905,0.57324 0.45085,0.98933 0.766498,1.22833 0,-0.003 0,-0.007 0,-0.01 0.04683,0.16377 0.184679,0.21063 0.407723,0.24701 v 0.003 c 0.461962,0.0737 0.995891,-0.13256 1.319736,-0.50901 0.17013,-0.19888 0.8128,-1.04267 1.42214,-1.87481 1.75286,-2.38315 5.61261,-7.5882 7.21307,-9.72603 1.03135,-1.38131 1.03796,-1.38673 1.24725,-1.1131 0.11509,0.15139 0.84455,1.19306 1.62216,2.31407 0.7784,1.12107 1.56924,2.26184 1.75974,2.53421 0.18971,0.27273 0.75935,1.11233 1.26074,1.86602 0.50086,0.75396 1.00277,1.44135 1.10437,1.52705 0.32253,0.26664 1.05622,0.1901 1.39277,-0.14574 0.3548,-0.35626 0.70405,-1.62676 0.89455,-3.24733 0.0635,-0.61212 0.18442,-1.50204 0.26035,-1.97819 0.31486,-2.01861 0.50509,-3.31938 0.74004,-5.00692 0.25718,-1.82676 0.45376,-3.17296 0.79005,-5.37744 0.10795,-0.68006 0.24818,-1.68114 0.32411,-2.2252 0.0762,-0.54393 0.15822,-1.2119 0.22225,-1.48363 l 0.0889,-0.49453 0.26035,0.55602 c 0.1397,0.30594 0.381,0.8622 0.52705,1.23611 0.29475,0.73133 0.55431,1.33747 0.82736,1.8955 0.0955,0.19235 0.17171,0.41907 0.17171,0.50229 0,0.0832 0.16484,0.30742 0.36169,0.49659 0.4773,0.45712 1.14723,0.4726 1.58538,0.0377 0.27305,-0.27818 0.31115,-0.44434 0.40613,-1.83555 0.2667,-3.91141 0.38074,-5.98355 0.49504,-9.13275 0.0635,-1.86981 0.11377,-3.46906 0.1778,-3.55224 0.0317,-0.0837 0.11456,-1.8233 0.19076,-3.8649 0.0699,-2.0419 0.15188,-3.93605 0.2159,-4.20905 l 0.0889,-0.49609 1.09511,0.94311 c 1.12501,0.9685 1.53962,1.18408 2.0918,1.07746 0.41328,-0.0785 0.78079,-0.52451 0.84482,-0.90797 0.0185,-0.37404 -0.20955,-2.29979 -0.44424,-3.70158 -0.0952,-0.5779 -0.26061,-1.71825 -0.37465,-2.5342 -0.1143,-0.81616 -0.27966,-1.98424 -0.37465,-2.59623 -0.16193,-1.06299 -0.48154,-3.26747 -0.86254,-5.93402 -0.0953,-0.67971 -0.2413,-1.65338 -0.31724,-2.16318 -0.0825,-0.50996 -0.20981,-1.45611 -0.29871,-2.10219 -0.21087,-1.56356 -0.52044,-3.68851 -0.99007,-6.79905 -0.10795,-0.71403 -0.2421,-1.68757 -0.30507,-2.16371 -0.0572,-0.47575 -0.17145,-1.28286 -0.24738,-1.79266 -0.42545,-2.80461 -0.67945,-4.56091 -0.93345,-6.46679 -0.32491,-2.46261 -0.55139,-2.85406 -2.09788,-3.62508 -0.47625,-0.23725 -1.728,-0.88127 -2.7813,-1.43042 -1.34303,-0.69971 -2.06719,-1.01134 -2.55588,-1.0201 z M 103.94818,187.002 c 0,0 0,1e-4 0,0 l 0.0818,0.67799 z m 0.27384,2.32648 c 0.41699,3.79457 0.6358,7.31086 0.71385,11.51816 -0.0833,-4.20714 -0.29792,-7.7233 -0.71385,-11.51816 z m -5.333467,51.31056 c -0.05053,0.15979 -0.08969,0.29107 -0.129116,0.42323 0.03916,-0.13062 0.07885,-0.26535 0.129116,-0.42323 z m -0.199496,0.663 c -0.08546,0.30459 -0.137583,0.53297 -0.150283,0.69453 0.01058,-0.15886 0.0672,-0.39704 0.150283,-0.69453 z m -0.152929,0.76533 c 0,0.0188 0,0.0394 0,0.0563 0,-0.0167 0,-0.0378 0,-0.0563 z"
       id="path1959" />
    <g
       aria-label="vikingsDev"
       style="font-style:normal;font-weight:normal;font-size:80.79755402px;line-height:1.25;font-family:sans-serif;letter-spacing:0px;word-spacing:0px;fill:#000000;fill-opacity:1;stroke:none;stroke-width:0.38576886"
       id="text1971">
      <path
         d="m 241.19192,166.37336 -11.95804,29.32952 -12.03884,-29.32952 h -8.24135 l 17.85626,40.56038 h 4.84786 l 17.69466,-40.56038 z"
         style="font-style:normal;font-variant:normal;font-weight:normal;font-stretch:normal;font-family:Acre;-inkscape-font-specification:Acre;fill:#000000;fill-opacity:1;stroke-width:0.38576886"
         id="path815" />
      <path
         d="m 260.01396,158.77839 c 2.98951,0 5.17104,-2.26233 5.17104,-5.25184 0,-2.82791 -2.18153,-5.09024 -5.17104,-5.09024 -2.98951,0 -5.17105,2.26233 -5.17105,5.09024 0,2.98951 2.18154,5.25184 5.17105,5.25184 z m -3.79749,47.99375 h 7.59497 v -40.39878 h -7.59497 z"
         style="font-style:normal;font-variant:normal;font-weight:normal;font-stretch:normal;font-family:Acre;-inkscape-font-specification:Acre;fill:#000000;fill-opacity:1;stroke-width:0.38576886"
         id="path817" />
      <path
         d="m 311.83296,206.77214 -19.14902,-19.957 18.01786,-20.44178 h -9.29172 l -16.5635,19.14902 V 142.1341 h -7.59497 v 64.63804 h 7.59497 V 188.1887 l 17.12908,18.58344 z"
         style="font-style:normal;font-variant:normal;font-weight:normal;font-stretch:normal;font-family:Acre;-inkscape-font-specification:Acre;fill:#000000;fill-opacity:1;stroke-width:0.38576886"
         id="path819" />
      <path
         d="m 323.61047,158.77839 c 2.98951,0 5.17105,-2.26233 5.17105,-5.25184 0,-2.82791 -2.18154,-5.09024 -5.17105,-5.09024 -2.98951,0 -5.17104,2.26233 -5.17104,5.09024 0,2.98951 2.18153,5.25184 5.17104,5.25184 z m -3.79748,47.99375 h 7.59497 v -40.39878 h -7.59497 z"
         style="font-style:normal;font-variant:normal;font-weight:normal;font-stretch:normal;font-family:Acre;-inkscape-font-specification:Acre;fill:#000000;fill-opacity:1;stroke-width:0.38576886"
         id="path821" />
      <path
         d="m 360.64353,165.56539 c -5.57503,0 -9.8573,2.66632 -12.20043,6.4638 v -5.65583 h -7.59497 v 40.39878 h 7.59497 v -22.05773 c 0,-7.99896 4.20147,-12.20043 9.8573,-12.20043 5.73663,0 9.8573,4.20147 9.8573,12.20043 v 22.05773 h 7.59497 v -23.1889 c 0,-12.03883 -7.19098,-18.01785 -15.10914,-18.01785 z"
         style="font-style:normal;font-variant:normal;font-weight:normal;font-stretch:normal;font-family:Acre;-inkscape-font-specification:Acre;fill:#000000;fill-opacity:1;stroke-width:0.38576886"
         id="path823" />
      <path
         d="m 424.34482,166.37336 h -7.51417 v 6.54461 c -3.07031,-4.28227 -7.83736,-7.11019 -13.81638,-7.11019 -11.23086,0 -18.90663,9.13012 -18.90663,20.76497 0,11.63485 7.67577,20.76497 18.90663,20.76497 6.05982,0 10.82687,-2.90871 13.97798,-7.27178 v 3.07031 c 0,8.96853 -5.17105,13.17 -12.60442,13.17 -4.76706,0 -9.9381,-1.93914 -14.46276,-5.09024 l -0.0808,7.99895 c 4.44386,2.50473 9.21092,4.28227 15.35153,4.28227 9.61491,0 19.22982,-6.05981 19.22982,-18.42184 z m -20.03779,33.61179 c -7.27178,0 -12.36203,-5.97902 -12.36203,-13.4124 0,-7.35258 5.09025,-13.33159 12.36203,-13.33159 7.27178,0 12.52362,6.22141 12.52362,13.33159 0,7.11019 -5.25184,13.4124 -12.52362,13.4124 z"
         style="font-style:normal;font-variant:normal;font-weight:normal;font-stretch:normal;font-family:Acre;-inkscape-font-specification:Acre;fill:#000000;fill-opacity:1;stroke-width:0.38576886"
         id="path825" />
      <path
         d="m 447.87584,207.41852 c 8.40295,0 13.97798,-5.00945 14.05878,-11.63485 0,-14.05877 -19.39142,-11.39245 -19.31062,-18.66423 0,-2.42393 2.18154,-4.03988 5.25184,-4.03988 3.3935,0 6.6254,2.34313 8.40295,3.95908 l 4.44386,-5.57503 c -2.50472,-2.82791 -7.27178,-5.81742 -12.9276,-5.73663 -7.91817,0 -13.00841,5.09025 -13.00841,11.23086 -0.0808,13.73559 19.22982,10.82688 19.22982,18.66424 0,2.66632 -2.50473,4.44386 -5.89822,4.44386 -3.79749,0 -7.27178,-2.26233 -9.77651,-4.68625 l -4.76705,5.65582 c 3.3127,3.71669 9.21092,6.38301 14.30116,6.38301 z"
         style="font-style:normal;font-variant:normal;font-weight:normal;font-stretch:normal;font-family:Acre;-inkscape-font-specification:Acre;fill:#000000;fill-opacity:1;stroke-width:0.38576886"
         id="path827" />
      <path
         d="m 486.63343,150.21385 h -14.86675 v 56.55829 h 14.86675 c 17.77546,0 28.35994,-12.76601 28.35994,-28.44074 0,-15.59393 -10.58448,-28.11755 -28.35994,-28.11755 z m 0.0808,49.04412 h -7.27178 v -41.52994 h 7.27178 c 12.92761,0 20.52258,9.04932 20.52258,20.60337 0,11.31166 -7.59497,20.92657 -20.52258,20.92657 z"
         style="font-style:normal;font-variant:normal;font-weight:normal;font-stretch:normal;font-family:Acre;-inkscape-font-specification:Acre;fill:#000000;fill-opacity:1;stroke-width:0.38576886"
         id="path829" />
      <path
         d="m 542.93165,165.80778 c -11.87724,0 -19.7954,9.53411 -19.7954,20.76497 0,11.31166 7.75657,20.84577 20.60338,20.84577 5.49423,0 10.34208,-1.53515 13.73558,-4.03988 v -7.67576 c -3.87828,2.66631 -7.99896,4.36306 -13.33159,4.36306 -6.94859,0 -11.95804,-4.03987 -13.17001,-10.42288 h 30.86467 c 0.88877,-12.76601 -6.30221,-23.83528 -18.90663,-23.83528 z m -0.16159,7.59497 c 5.81742,0 9.9381,4.03988 11.06926,9.9381 h -22.78491 c 1.21197,-5.81742 5.57503,-9.9381 11.71565,-9.9381 z"
         style="font-style:normal;font-variant:normal;font-weight:normal;font-stretch:normal;font-family:Acre;-inkscape-font-specification:Acre;fill:#000000;fill-opacity:1;stroke-width:0.38576886"
         id="path831" />
      <path
         d="m 595.94369,166.37336 -11.95804,29.32952 -12.03884,-29.32952 h -8.24135 l 17.85626,40.56038 h 4.84786 l 17.69466,-40.56038 z"
         style="font-style:normal;font-variant:normal;font-weight:normal;font-stretch:normal;font-family:Acre;-inkscape-font-specification:Acre;fill:#000000;fill-opacity:1;stroke-width:0.38576886"
         id="path833" />
    </g>
  </g>
</svg>
