<?xml version="1.0" encoding="UTF-8" standalone="no"?>
<!-- Created with Inkscape (http://www.inkscape.org/) -->

<svg
   xmlns:dc="http://purl.org/dc/elements/1.1/"
   xmlns:cc="http://creativecommons.org/ns#"
   xmlns:rdf="http://www.w3.org/1999/02/22-rdf-syntax-ns#"
   xmlns:svg="http://www.w3.org/2000/svg"
   xmlns="http://www.w3.org/2000/svg"
   xmlns:sodipodi="http://sodipodi.sourceforge.net/DTD/sodipodi-0.dtd"
   xmlns:inkscape="http://www.inkscape.org/namespaces/inkscape"
   width="169.67285mm"
   height="163.08496mm"
   viewBox="0 0 169.67285 163.08496"
   version="1.1"
   id="svg2745"
   inkscape:version="0.92.4 (5da689c313, 2019-01-14)"
   sodipodi:docname="events.svg">
  <defs
     id="defs2739" />
  <sodipodi:namedview
     id="base"
     pagecolor="#ffffff"
     bordercolor="#666666"
     borderopacity="1.0"
     inkscape:pageopacity="0.0"
     inkscape:pageshadow="2"
     inkscape:zoom="0.35"
     inkscape:cx="433.49876"
     inkscape:cy="113.90635"
     inkscape:document-units="mm"
     inkscape:current-layer="layer1"
     showgrid="false"
     inkscape:window-width="1920"
     inkscape:window-height="1016"
     inkscape:window-x="1680"
     inkscape:window-y="27"
     inkscape:window-maximized="1"
     fit-margin-top="0"
     fit-margin-left="0"
     fit-margin-right="0"
     fit-margin-bottom="0" />
  <metadata
     id="metadata2742">
    <rdf:RDF>
      <cc:Work
         rdf:about="">
        <dc:format>image/svg+xml</dc:format>
        <dc:type
           rdf:resource="http://purl.org/dc/dcmitype/StillImage" />
        <dc:title></dc:title>
      </cc:Work>
    </rdf:RDF>
  </metadata>
  <g
     inkscape:label="Layer 1"
     inkscape:groupmode="layer"
     id="layer1"
     transform="translate(148.33643,-15.886089)">
    <path
       style="fill:#c69249;stroke-width:0.127;fill-opacity:1"
       d="m -140.98826,178.76937 c -2.7128,-0.5403 -5.1577,-2.4304 -6.3792,-4.9313 -1.0623,-2.17517 -0.9688,2.5115 -0.9656,-48.36877 0,-44.319763 0.01,-45.389833 0.2442,-45.909345 0.8151,-1.79519 3.4722,-1.857658 4.4769,-0.10527 l 0.2926,0.51018 0.063,45.402505 0.064,45.40253 0.2744,0.5938 c 0.3887,0.841 1.2208,1.6914 2.0569,2.10207 l 0.7167,0.3521 h 76.644426 76.644503 l 0.71664,-0.3521 c 0.83613,-0.41067 1.66824,-1.26107 2.05692,-2.10207 l 0.27444,-0.5938 0.0635,-13.90653 c 0.063,-13.79558 0.0656,-13.91055 0.32881,-14.4145 0.71984,-1.37832 2.6671,-1.7481 3.87099,-0.73511 0.21083,0.1774 0.49513,0.54169 0.63176,0.80953 0.24211,0.47455 0.24844,0.84159 0.24844,14.40521 0,15.6691 0.0482,14.8281 -0.96844,16.90957 -1.24397,2.547 -3.67985,4.4046 -6.47779,4.94 -1.37554,0.2631 -153.555999,0.2547 -154.878099,-0.01 z m 7.173,-10.02167 c -2.0044,-0.4861 -3.6271,-2.0146 -4.2382,-3.992 -0.246,-0.7959 -0.2494,-1.4439 -0.2479,-46.86295 10e-4,-38.048863 0.031,-46.166285 0.1714,-46.690885 0.4592,-1.716781 1.5906,-3.067899 3.2205,-3.846179 l 0.9881,-0.471821 h 70.421426 70.4215032 l 0.98809,0.471821 c 1.62991,0.77828 2.7612398,2.129398 3.2205098,3.846179 0.14035,0.5246 0.17014,8.642022 0.17139,46.690885 0.002,45.41905 -0.002,46.06705 -0.24793,46.86295 -0.62756,2.0306 -2.3512198,3.6018 -4.4240598,4.0327 -1.03976,0.2162 -139.5512292,0.176 -140.4448292,-0.041 z m 42.629366,-26.61633 v -21.717 h -21.018496 -21.01847 v 21.45378 21.45375 l 0.3346,0.2632 0.3346,0.2633 h 20.68387 20.683896 z m 50.291963,0 v -21.717 h -22.606003 -22.60596 v 21.717 21.71703 h 22.60596 22.606003 z m 46.7823602,21.45373 0.33464,-0.2632 v -21.45375 -21.45378 h -21.0185002 -21.0185 v 21.717 21.71703 h 20.68386 20.6838802 z M -91.185894,93.617365 v -21.717 h -20.764496 c -20.59517,0 -20.76657,0.0021 -21.01847,0.254 -0.252,0.252 -0.254,0.423331 -0.254,21.717 v 21.462995 h 21.01847 21.018496 z m 50.291963,0 v -21.717 h -22.606003 -22.60596 v 21.717 21.716995 h 22.60596 22.606003 z m 47.1170002,0.254 c 0,-21.293669 -0.002,-21.465 -0.254,-21.717 -0.25193,-0.251928 -0.42333,-0.254 -21.0185002,-0.254 h -20.7645 v 21.717 21.716995 h 21.0185 21.0185002 z M -23.901211,109.12848 c -1.7919,-0.59322 -3.02272,-2.23429 -3.02272,-4.03023 0,-0.38587 0.26071,-2.22032 0.57936,-4.07656 l 0.57936,-3.374943 -2.64567,-2.568662 c -3.19449,-3.10151 -3.39253,-3.404918 -3.39867,-5.20722 -0.003,-0.997529 0.0411,-1.234538 0.34934,-1.862288 0.19427,-0.3956 0.59432,-0.96171 0.889,-1.258012 0.90858,-0.913609 1.40947,-1.06581 5.42528,-1.6485 1.99072,-0.288859 3.62845,-0.534199 3.63938,-0.5452 0.0109,-0.01101 0.73956,-1.49528 1.61917,-3.29842 1.37123,-2.810928 1.68963,-3.36641 2.2329,-3.895569 1.70148,-1.6573 4.53853,-1.59597 6.15586,0.13308 0.43371,0.46368 0.94896,1.38747 2.1513002,3.857059 0.86954,1.78604 1.64306,3.24735 1.71894,3.24735 0.0759,0 1.69473,0.22887 3.59745,0.508579 3.94570002,0.580081 4.61661002,0.804993 5.54407,1.858661 0.77449,0.879851 1.06311,1.774471 0.99811,3.09376 -0.0823,1.669391 -0.28325,1.967561 -3.38168998,5.016302 l -2.64272002,2.60033 0.61705,3.589433 c 0.67302,3.91499 0.68654,4.35601 0.16903,5.50967 -0.41758,0.93091 -1.10997,1.63417 -2.0781,2.11079 -0.73946,0.36403 -0.96504,0.41397 -1.86971,0.41397 -1.01488,0 -1.05188,-0.0116 -2.73318,-0.85015 -0.9374002,-0.46758 -2.4928902,-1.26744 -3.4566502,-1.77744 l -1.75228,-0.92728 -1.10522,0.57336 c -5.87521,3.04792 -5.62001,2.93166 -6.56621,2.99151 -0.65245,0.0413 -1.08159,-0.007 -1.61278,-0.18338 z m 15.7589802,-8.24037 c -0.56491,-3.236505 -0.60049,-4.052004 -0.22139,-5.075235 0.24079,-0.649949 0.54494,-1.0106 2.628,-3.11626 1.29563,-1.30969 2.27322,-2.381358 2.17243,-2.38152 -0.10078,0 -1.48343,-0.193468 -3.07256,-0.42963 -4.4434002,-0.660289 -4.5581202,-0.745519 -6.6546802,-4.944039 l -1.35701,-2.717511 -1.37404,2.77401 c -1.48808,3.00427 -1.8715,3.52466 -3.02903,4.111231 -0.62278,0.315579 -1.33234,0.45158 -5.76031,1.103911 l -1.1254,0.165798 2.18224,2.084181 c 2.4018,2.293869 2.82824,2.879259 3.05555,4.19445 0.13253,0.766869 0.10306,1.071031 -0.36943,3.811604 -0.28241,1.63802 -0.49157,3.0001 -0.46481,3.02687 0.0268,0.0267 1.12404,-0.51335 2.4384,-1.20022 1.31435,-0.68688 2.64298,-1.35165 2.95252,-1.47726 0.64108,-0.26014 2.00142,-0.30821 2.7605,-0.0976 0.33787,0.0938 5.1760002,2.5696 5.7094902,2.92172 0.006,0.004 -0.2053,-1.23531 -0.47047,-2.75455 z m 25.8256998,33.41335 c -0.56229,-0.27717 -1.13148,-0.95206 -1.29277,-1.53287 -0.0915,-0.32947 -0.13344,-11.62749 -0.13392,-36.071475 l -7.9e-4,-35.59175 h -79.749731 -79.749718 l -0.038,4.34975 -0.038,4.34975 -0.3475,0.590971 c -0.3867,0.657899 -1.3638,1.25109 -2.0587,1.24982 -1.0265,-0.0021 -1.915,-0.531281 -2.3619,-1.40721 -0.2428,-0.475811 -0.2484,-0.858941 -0.2484,-16.72771 0,-15.847101 0.01,-16.264911 0.255,-17.237941 0.6945,-2.71548 2.5294,-4.94145 5.0368,-6.1102 1.6878,-0.78671 2.0504,-0.83249 7.1224,-0.89945 l 4.6038,-0.0608 v -3.90667 c 0,-2.14867 0.058,-4.21426 0.1296,-4.59021 0.4277,-2.25557 2.3257,-4.20675 4.5439,-4.67121 1.0444,-0.2187 6.4095,-0.18431 7.2967,0.0468 2.2408,0.58365 3.8229,2.18472 4.3442,4.39613 0.1494,0.63364 0.1922,1.69181 0.1937,4.78243 v 3.96875 h 6.66137 6.6615 l 0.038,-4.47675 0.038,-4.47675 0.4743,-0.99337 c 0.7735,-1.61986 2.130596,-2.74608 3.848096,-3.19345 0.882899,-0.22995 6.179299,-0.27849 7.312499,-0.067 1.755899,0.32771 3.341801,1.57461 4.146801,3.26046 l 0.4743,0.99337 0.039,4.47675 0.039,4.47675 h 6.66006 6.660081 v -3.91967 c 0,-2.15581 0.0583,-4.22725 0.12963,-4.6032 0.427768,-2.25557 2.325749,-4.20675 4.54387,-4.67121 0.891299,-0.18663 6.28737,-0.18429 7.163009,0.003 2.25281,0.48213 4.12741,2.40658 4.54665,4.66756 0.0698,0.37624 0.126849,2.44793 0.126849,4.60375 v 3.91966 h 6.660081 6.660093 l 0.0392,-4.47675 0.0392,-4.47675 0.47432,-0.99336 c 0.80497,-1.68585 2.39082,-2.93275 4.14676,-3.26047 1.13315,-0.21148 6.42962,-0.16294 7.31247,0.067 1.7282,0.45014 3.07068,1.56534 3.85063,3.19872 l 0.47182,0.9881 0.0378,4.47675 0.0378,4.47675 h 6.66145 6.66145 v -3.91966 c 0,-2.15582 0.0583,-4.22726 0.12962,-4.6032 0.42777,-2.25558 2.3257602,-4.20676 4.5438702,-4.67122 0.8913,-0.18663 6.28737,-0.18429 7.16301002,0.003 2.25280998,0.48213 4.12740998,2.40657 4.54664998,4.66755 0.0698,0.37625 0.12685,2.44208 0.12685,4.59075 v 3.90667 l 4.60375,0.0608 c 5.0720498,0.067 5.4345698,0.11274 7.1223598,0.89945 2.5074,1.16874 4.34235,3.39471 5.03685,6.1102 0.25316,0.98986 0.25504,1.34809 0.25504,48.688781 v 47.691604 l -0.2723,0.56249 c -0.40151,0.82941 -1.19553,1.29657 -2.19732,1.2928 -0.4442,-0.002 -0.94375,-0.0891 -1.18298,-0.20701 z m -1.45598,-87.578845 -0.0349,-9.30275 -0.31148,-0.635 c -0.43568,-0.88817 -1.37358,-1.76472 -2.23183,-2.08583 -0.66253,-0.24789 -0.96293,-0.26367 -5.0179598,-0.26367 h -4.31323 v 3.91967 c 0,2.15581 -0.0571,4.227499 -0.12685,4.60375 -0.20838,1.12381 -0.91744,2.406819 -1.76249,3.1892 -0.81298,0.752671 -1.53730998,1.144759 -2.65043998,1.43469 -1.04118002,0.27119 -6.40799002,0.266322 -7.45644002,-0.007 -2.19862,-0.572672 -3.8043002,-2.209752 -4.3223202,-4.406852 -0.14437,-0.612379 -0.18815,-1.71243 -0.18958,-4.764939 l -0.002,-3.968751 h -6.66145 -6.66145 l -0.0378,4.476751 -0.0378,4.476749 -0.47432,0.99337 c -0.79113,1.656832 -2.17004,2.780321 -3.91818,3.192391 -1.15182,0.271489 -6.31919,0.271489 -7.47101,0 -1.72927,-0.407619 -3.07374,-1.504561 -3.90522,-3.186239 l -0.48727,-0.985502 -0.0392,-4.48376 -0.0392,-4.48376 h -6.659971 -6.660081 v 3.91967 c 0,2.155811 -0.0583,4.22725 -0.12963,4.6032 -0.422611,2.2284 -2.134798,4.031781 -4.384159,4.617672 -1.06644,0.277767 -6.41599,0.277767 -7.48243,0 -2.24936,-0.585891 -3.961551,-2.389272 -4.384162,-4.617672 -0.0713,-0.37595 -0.12963,-2.447389 -0.12963,-4.6032 V 34.43535 h -6.660078 -6.660102 l -0.039,4.48376 -0.039,4.48376 -0.487299,0.985499 c -0.831401,1.681681 -2.175902,2.778623 -3.9052,3.186242 -1.1518,0.271489 -6.3192,0.271489 -7.471,0 -1.738402,-0.409781 -3.135597,-1.553882 -3.930597,-3.21869 l -0.4619,-0.967071 -0.038,-4.47675 -0.038,-4.47675 h -6.66141 -6.66147 v 3.96875 c 0,3.09062 -0.044,4.148791 -0.19369,4.782431 -0.5179,2.1975 -2.115,3.815498 -4.3375,4.39438 -1.0477,0.272889 -6.41001,0.26929 -7.4631,-0.005 -2.24941,-0.58588 -3.96161,-2.389259 -4.3842,-4.617669 -0.071,-0.375949 -0.12961,-2.447391 -0.12961,-4.603201 v -3.91969 h -4.31319 c -4.05501,0 -4.35541,0.0158 -5.01801,0.26367 -0.8582,0.32111 -1.7961,1.19766 -2.2318,2.08583 l -0.3115,0.635 -0.035,9.30275 -0.035,9.30275 h 79.762227 79.762372 z m -136.427149,-4.343979 0.3118,-0.311721 v -10.23505 -10.23505 l -0.3118,-0.31172 c -0.3102,-0.31028 -0.3235,-0.31173 -2.8632,-0.31173 -2.5398,0 -2.553,10e-4 -2.8633,0.31173 l -0.3117,0.31172 v 10.23505 10.23505 l 0.3117,0.311721 c 0.3103,0.310279 0.3235,0.311729 2.8633,0.311729 2.5397,0 2.553,-0.0011 2.8632,-0.311729 z m 29.775766,0.0577 c 0.249801,-0.249841 0.254,-0.423331 0.254,-10.604501 0,-10.18117 0,-10.35466 -0.254,-10.6045 -0.237498,-0.23748 -0.423399,-0.254 -2.8575,-0.254 -2.434198,0 -2.6201,0.0165 -2.8575,0.254 -0.249899,0.24984 -0.254,0.42333 -0.254,10.6045 0,10.18117 0,10.35466 0.254,10.604501 0.2374,0.237479 0.423302,0.254 2.8575,0.254 2.434101,0 2.620002,-0.01651 2.8575,-0.254 z m 29.787231,-0.0577 0.311729,-0.311721 v -10.23505 -10.23505 l -0.311729,-0.31172 c -0.31028,-0.31028 -0.323551,-0.31173 -2.863271,-0.31173 -2.53973,0 -2.552999,10e-4 -2.863278,0.31173 l -0.31173,0.31172 v 10.23505 10.23505 l 0.31173,0.311721 c 0.310279,0.310279 0.323548,0.311729 2.863278,0.311729 2.53972,0 2.552991,-0.0011 2.863271,-0.311729 z m 29.775732,0.0577 c 0.24984,-0.249841 0.254,-0.423331 0.254,-10.604501 0,-10.18117 -0.004,-10.35466 -0.254,-10.6045 -0.23748,-0.23748 -0.42333,-0.254 -2.8575,-0.254 -2.43418,0 -2.62003,0.0165 -2.8575,0.254 -0.24985,0.24984 -0.254,0.42333 -0.254,10.6045 0,10.18117 0.004,10.35466 0.254,10.604501 0.23747,0.237479 0.42332,0.254 2.8575,0.254 2.43417,0 2.62002,-0.01651 2.8575,-0.254 z m 29.7872702,-0.0577 0.31173002,-0.311721 v -10.23505 -10.23505 l -0.31173002,-0.31172 c -0.31028,-0.31028 -0.32355,-0.31173 -2.86327,-0.31173 -2.53972,0 -2.553,10e-4 -2.86328,0.31173 l -0.31172,0.31172 v 10.23505 10.23505 l 0.31172,0.311721 c 0.31028,0.310279 0.32356,0.311729 2.86328,0.311729 2.53972,0 2.55299,-0.0011 2.86327,-0.311729 z"
       id="path2737"
       inkscape:connector-curvature="0" />
  </g>
</svg>
