<?xml version="1.0" encoding="UTF-8" standalone="no"?>
<!-- Generator: Adobe Illustrator 19.0.0, SVG Export Plug-In . SVG Version: 6.00 Build 0)  -->

<svg
   xmlns:dc="http://purl.org/dc/elements/1.1/"
   xmlns:cc="http://creativecommons.org/ns#"
   xmlns:rdf="http://www.w3.org/1999/02/22-rdf-syntax-ns#"
   xmlns:svg="http://www.w3.org/2000/svg"
   xmlns="http://www.w3.org/2000/svg"
   xmlns:sodipodi="http://sodipodi.sourceforge.net/DTD/sodipodi-0.dtd"
   xmlns:inkscape="http://www.inkscape.org/namespaces/inkscape"
   version="1.1"
   id="Layer_1"
   x="0px"
   y="0px"
   viewBox="0 0 492 492"
   style="enable-background:new 0 0 492 492;"
   xml:space="preserve"
   sodipodi:docname="left-arrow.svg"
   inkscape:version="0.92.4 (5da689c313, 2019-01-14)"><metadata
   id="metadata937"><rdf:RDF><cc:Work
       rdf:about=""><dc:format>image/svg+xml</dc:format><dc:type
         rdf:resource="http://purl.org/dc/dcmitype/StillImage" /></cc:Work></rdf:RDF></metadata><defs
   id="defs935" /><sodipodi:namedview
   pagecolor="#ffffff"
   bordercolor="#666666"
   borderopacity="1"
   objecttolerance="10"
   gridtolerance="10"
   guidetolerance="10"
   inkscape:pageopacity="0"
   inkscape:pageshadow="2"
   inkscape:window-width="960"
   inkscape:window-height="1016"
   id="namedview933"
   showgrid="false"
   inkscape:zoom="0.89634146"
   inkscape:cx="246"
   inkscape:cy="246"
   inkscape:window-x="0"
   inkscape:window-y="27"
   inkscape:window-maximized="0"
   inkscape:current-layer="Layer_1" />
<g
   id="g900"
   style="fill:#c69249;fill-opacity:1">
	<g
   id="g898"
   style="fill:#c69249;fill-opacity:1">
		<path
   d="M464.344,207.418l0.768,0.168H135.888l103.496-103.724c5.068-5.064,7.848-11.924,7.848-19.124    c0-7.2-2.78-14.012-7.848-19.088L223.28,49.538c-5.064-5.064-11.812-7.864-19.008-7.864c-7.2,0-13.952,2.78-19.016,7.844    L7.844,226.914C2.76,231.998-0.02,238.77,0,245.974c-0.02,7.244,2.76,14.02,7.844,19.096l177.412,177.412    c5.064,5.06,11.812,7.844,19.016,7.844c7.196,0,13.944-2.788,19.008-7.844l16.104-16.112c5.068-5.056,7.848-11.808,7.848-19.008    c0-7.196-2.78-13.592-7.848-18.652L134.72,284.406h329.992c14.828,0,27.288-12.78,27.288-27.6v-22.788    C492,219.198,479.172,207.418,464.344,207.418z"
   id="path896"
   style="fill:#c69249;fill-opacity:1" />
	</g>
</g>
<g
   id="g902">
</g>
<g
   id="g904">
</g>
<g
   id="g906">
</g>
<g
   id="g908">
</g>
<g
   id="g910">
</g>
<g
   id="g912">
</g>
<g
   id="g914">
</g>
<g
   id="g916">
</g>
<g
   id="g918">
</g>
<g
   id="g920">
</g>
<g
   id="g922">
</g>
<g
   id="g924">
</g>
<g
   id="g926">
</g>
<g
   id="g928">
</g>
<g
   id="g930">
</g>
</svg>