<svg id="Capa_1" enable-background="new 0 0 512.004 512.004" height="512" viewBox="0 0 512.004 512.004" width="512" xmlns="http://www.w3.org/2000/svg"><g><g><g><g><g><path d="m452 181.002c0 24.51-11.82 46.31-30.05 60-12.54 9.42-28.1 15-44.95 15h-362c-8.28 0-15-6.72-15-15s6.72-15 15-15h362c24.82 0 45-20.19 45-45s-20.18-45-45-45c-24.81 0-45 20.19-45 45 0 8.28-6.71 15-15 15-8.28 0-15-6.72-15-15 0-41.36 33.65-75 75-75 41.36 0 75 33.64 75 75z" fill="#ffeb95"/></g></g></g><g><path d="m421.95 241.002c-12.54 9.42-28.1 15-44.95 15h-362c-8.28 0-15-6.72-15-15z" fill="#ffda2d"/></g><g><g><g><path d="m452.004 406.002c-25.387 0-48.125-16.075-56.582-40.001-2.761-7.811 1.333-16.381 9.144-19.141 7.811-2.761 16.38 1.333 19.142 9.144 4.228 11.962 15.6 19.999 28.297 19.999 16.542 0 30-13.458 30-30s-13.458-30-30-30h-197c-8.284 0-15-6.716-15-15s6.716-15 15-15h197c33.084 0 60 26.916 60 60s-26.917 59.999-60.001 59.999z" fill="#ffda2d"/></g></g></g><g><g><g><path d="m317.004 376.002h-152c-8.284 0-15-6.716-15-15s6.716-15 15-15h152c8.284 0 15 6.716 15 15s-6.716 15-15 15z" fill="#ffda2d"/></g></g></g><g><g><path d="m225.004 196.002h-150c-8.284 0-15-6.716-15-15s6.716-15 15-15h150c8.284 0 15 6.716 15 15s-6.716 15-15 15z" fill="#ffeb95"/></g></g><g><g><path d="m195.004 316.002h-150c-8.284 0-15-6.716-15-15s6.716-15 15-15h150c8.284 0 15 6.716 15 15s-6.716 15-15 15z" fill="#ffda2d"/></g></g><g><g><circle cx="105.004" cy="361.002" fill="#ffda2d" r="15"/></g></g><g><g><circle cx="15.004" cy="181.002" fill="#ffeb95" r="15"/></g></g><g><g><circle cx="377.004" cy="181.002" fill="#ffeb95" r="15"/></g></g><g><g><circle cx="467" cy="241.002" fill="#ffeb95" r="15"/></g></g><g><path d="m482 241.002c0 8.28-6.71 15-15 15-8.28 0-15-6.72-15-15z" fill="#ffda2d"/></g><g><g><circle cx="497.004" cy="121.002" fill="#ffeb95" r="15"/></g></g><g><g><circle cx="437.004" cy="61.002" fill="#ffeb95" r="15"/></g></g><g><g><circle cx="255.004" cy="121.002" fill="#ffeb95" r="15"/></g></g><g><g><circle cx="316.004" cy="421.002" fill="#ffda2d" r="15"/></g></g><g><g><g><circle cx="406.004" cy="451.002" fill="#ffda2d" r="15"/></g></g></g></g></g></svg>