<?xml version="1.0" encoding="UTF-8" standalone="no"?>
<!-- Created with Inkscape (http://www.inkscape.org/) -->

<svg
   xmlns:dc="http://purl.org/dc/elements/1.1/"
   xmlns:cc="http://creativecommons.org/ns#"
   xmlns:rdf="http://www.w3.org/1999/02/22-rdf-syntax-ns#"
   xmlns:svg="http://www.w3.org/2000/svg"
   xmlns="http://www.w3.org/2000/svg"
   xmlns:sodipodi="http://sodipodi.sourceforge.net/DTD/sodipodi-0.dtd"
   xmlns:inkscape="http://www.inkscape.org/namespaces/inkscape"
   width="96.006851mm"
   height="21.6106mm"
   viewBox="0 0 96.006851 21.6106"
   version="1.1"
   id="svg8118"
   inkscape:version="0.92.4 (5da689c313, 2019-01-14)"
   sodipodi:docname="full-logo-color.svg">
  <defs
     id="defs8112" />
  <sodipodi:namedview
     id="base"
     pagecolor="#ffffff"
     bordercolor="#666666"
     borderopacity="1.0"
     inkscape:pageopacity="0.0"
     inkscape:pageshadow="2"
     inkscape:zoom="1.979899"
     inkscape:cx="109.91391"
     inkscape:cy="-13.831286"
     inkscape:document-units="mm"
     inkscape:current-layer="layer1"
     showgrid="false"
     fit-margin-top="0"
     fit-margin-left="0"
     fit-margin-right="0"
     fit-margin-bottom="0"
     inkscape:window-width="1920"
     inkscape:window-height="1016"
     inkscape:window-x="1680"
     inkscape:window-y="27"
     inkscape:window-maximized="1" />
  <metadata
     id="metadata8115">
    <rdf:RDF>
      <cc:Work
         rdf:about="">
        <dc:format>image/svg+xml</dc:format>
        <dc:type
           rdf:resource="http://purl.org/dc/dcmitype/StillImage" />
        <dc:title />
      </cc:Work>
    </rdf:RDF>
  </metadata>
  <g
     inkscape:label="Layer 1"
     inkscape:groupmode="layer"
     id="layer1"
     transform="translate(359.45585,-145.58756)">
    <g
       id="g2502"
       inkscape:export-xdpi="285.72977"
       inkscape:export-ydpi="285.72977">
      <path
         style="fill:#c68e49;fill-opacity:1;stroke-width:0.01947339"
         d="m -354.4621,146.54274 c -0.037,0 -0.073,0.0156 -0.101,0.0421 -0.064,0.06 -0.077,0.16756 -0.041,0.33561 0.017,0.0778 0.04,0.20264 0.051,0.27762 0.049,0.32017 0.1115,0.69935 0.1456,0.88602 0.015,0.0803 0.045,0.25124 0.068,0.37976 0.064,0.36423 0.092,0.49606 0.1979,0.93316 0.1015,0.41998 0.2779,0.98881 0.3464,1.11667 0.01,0.0188 0.055,0.11268 0.101,0.2091 0.1058,0.22355 0.1692,0.32813 0.3311,0.54592 0.2059,0.2768 0.5351,0.5737 0.7864,0.70912 0.043,0.0229 0.091,0.0499 0.1071,0.0597 0.039,0.0237 0.2087,0.097 0.2247,0.097 0.01,0 0.041,0.0122 0.074,0.0278 0.1491,0.0672 0.5919,0.16388 0.8598,0.18758 0.2175,0.0192 1.0072,0.005 1.1782,-0.0212 0.07,-0.0106 0.2185,-0.0319 0.331,-0.0475 0.4137,-0.0567 0.5508,-0.0884 0.6472,-0.14987 0.097,-0.0617 0.2221,-0.19877 0.2738,-0.2998 0.045,-0.0877 0.1109,-0.36207 0.1109,-0.45951 -2e-4,-0.10949 -0.067,-0.38527 -0.1161,-0.48243 -0.048,-0.095 -0.24,-0.30351 -0.3322,-0.36174 -0.1355,-0.0856 -0.3362,-0.12787 -0.6518,-0.13742 -0.6988,-0.0212 -1.4428,-0.1411 -1.8305,-0.29494 -0.4258,-0.16898 -0.7557,-0.38285 -1.0341,-0.6706 -0.1308,-0.13505 -0.3582,-0.41067 -0.3582,-0.43403 0,-0.005 -0.03,-0.0524 -0.067,-0.10324 -0.1892,-0.26378 -0.5327,-0.91363 -0.8005,-1.51416 -0.015,-0.0322 -0.058,-0.12852 -0.097,-0.2142 -0.039,-0.0857 -0.085,-0.18647 -0.1014,-0.22391 -0.017,-0.0376 -0.046,-0.10325 -0.064,-0.14608 -0.019,-0.0428 -0.04,-0.0962 -0.047,-0.11864 -0.024,-0.0834 -0.1114,-0.13268 -0.1927,-0.12778 z m 7.8643,0.97662 c -0.2638,0 -0.7443,0.072 -1.1786,0.17703 -0.1338,0.0322 -0.28,0.0667 -0.3248,0.0764 -0.094,0.0204 -0.2668,0.0719 -0.3373,0.10075 -0.027,0.011 -0.1275,0.0447 -0.2239,0.0751 -0.096,0.0302 -0.2235,0.074 -0.2824,0.0971 -0.059,0.0229 -0.1391,0.0507 -0.1782,0.0615 -0.1737,0.0479 -0.253,0.23613 -0.145,0.34423 l 0.051,0.0508 0.4331,0.004 c 0.4779,0.004 0.8808,0.0306 1.1634,0.0778 0.2648,0.0443 0.6094,0.13791 0.7206,0.19573 0.027,0.0139 0.057,0.0254 0.067,0.0254 0.044,2.1e-4 0.328,0.15208 0.5071,0.27064 0.2136,0.14138 0.5694,0.47205 0.7515,0.69833 0.1533,0.19063 0.4184,0.57729 0.5592,0.81599 0.1298,0.21971 0.2572,0.44877 0.2572,0.46233 0,0.005 -0.046,0.018 -0.1022,0.029 -0.2686,0.0522 -0.803,0.1685 -0.9689,0.21084 -0.1016,0.0261 -0.2375,0.0602 -0.3017,0.076 -0.2209,0.0544 -0.878,0.26006 -0.9961,0.31184 -0.034,0.0147 -0.071,0.027 -0.084,0.027 -0.012,0 -0.059,0.0159 -0.1041,0.0355 -0.045,0.0196 -0.1211,0.0511 -0.1693,0.0701 -0.048,0.0192 -0.1165,0.0469 -0.1517,0.0618 -0.035,0.0151 -0.073,0.0273 -0.083,0.0273 -0.01,0 -0.087,0.0315 -0.1698,0.0701 -0.083,0.0384 -0.1773,0.0814 -0.2093,0.0953 -0.032,0.0139 -0.1549,0.0704 -0.2727,0.12574 -0.296,0.13898 -0.5022,0.2445 -0.9639,0.49296 -0.093,0.0498 -0.3413,0.19509 -0.5812,0.33953 -0.039,0.0237 -0.084,0.0493 -0.1004,0.057 -0.016,0.008 -0.064,0.0364 -0.1071,0.0637 -0.043,0.0273 -0.095,0.0594 -0.1168,0.0714 -0.063,0.0352 -0.3537,0.21256 -0.4289,0.26148 -0.024,0.0159 -0.1164,0.0731 -0.204,0.1266 -0.088,0.0535 -0.1794,0.11052 -0.2041,0.12657 -0.024,0.0159 -0.092,0.0582 -0.1492,0.0936 -0.058,0.0355 -0.1788,0.11156 -0.2699,0.16935 -0.091,0.0578 -0.2124,0.13403 -0.2698,0.1694 -0.057,0.0355 -0.1245,0.0774 -0.1492,0.0935 -0.024,0.0159 -0.1137,0.0704 -0.1977,0.12084 -0.212,0.12709 -0.2844,0.20509 -0.2844,0.30678 0,0.0446 0.014,0.0943 0.031,0.1132 0.028,0.0318 0.2745,0.37922 0.5726,0.80925 0.1883,0.27178 0.2159,0.3029 0.2851,0.32131 0.1004,0.0266 0.1192,0.018 0.4999,-0.22758 0.027,-0.0172 0.064,-0.0404 0.081,-0.0512 0.059,-0.0359 0.2397,-0.14726 0.2694,-0.16605 0.016,-0.0102 0.1606,-0.0935 0.3213,-0.18525 0.1606,-0.0917 0.3053,-0.17515 0.3213,-0.18544 0.072,-0.0463 0.8163,-0.42256 1.0519,-0.532 0.1123,-0.0521 0.2655,-0.12374 0.3404,-0.15915 0.075,-0.0355 0.2197,-0.0967 0.3214,-0.13628 0.1624,-0.0631 0.2446,-0.0973 0.3991,-0.16609 0.022,-0.009 0.1135,-0.0423 0.2046,-0.073 0.3328,-0.11186 0.4779,-0.16213 0.516,-0.1788 0.021,-0.009 0.1222,-0.04 0.2239,-0.0682 0.1018,-0.0282 0.2025,-0.0586 0.224,-0.0677 0.048,-0.02 0.1,-0.0339 0.6426,-0.16629 0.2356,-0.0575 0.5248,-0.12329 0.6426,-0.14612 0.1179,-0.0229 0.2645,-0.0541 0.3259,-0.0693 0.061,-0.0151 0.1438,-0.0278 0.1831,-0.0278 0.039,0 0.1379,-0.0126 0.2194,-0.0278 0.3039,-0.0568 0.6485,-0.0977 1.2287,-0.14576 0.051,-0.004 0.1301,-0.011 0.2011,-0.0172 l -0.013,-0.32764 c -0.047,-1.2258 -0.4677,-2.36409 -1.2281,-3.32771 -0.1991,-0.25226 -0.6476,-0.70013 -0.9075,-0.90628 -0.1125,-0.0892 -0.3097,-0.23127 -0.4382,-0.31573 -0.2701,-0.17752 -0.8297,-0.46106 -1.105,-0.55997 -0.1042,-0.0376 -0.1897,-0.0791 -0.1898,-0.0925 0,-0.0135 0.01,-0.0245 0.01,-0.0245 0.01,0 0.1012,-0.0131 0.219,-0.029 0.1178,-0.0159 0.2714,-0.029 0.3414,-0.029 0.081,-2.5e-4 0.2855,0.0204 0.4678,0.0434 -0.1802,-0.0233 -0.3812,-0.0439 -0.4581,-0.0439 z m -9.2234,2.81877 c -0.2493,0.004 -0.5433,0.0669 -0.7909,0.18116 -0.2294,0.10593 -0.4247,0.24809 -0.6225,0.45314 -0.2924,0.30311 -0.4485,0.57905 -0.5577,0.98559 l -0.061,0.22527 -0.011,2.03497 c -0.01,1.90078 -0.014,2.04203 -0.047,2.14205 -0.079,0.2387 -0.2089,0.42619 -0.3838,0.55491 -0.1472,0.10838 -0.282,0.15849 -0.5238,0.19484 -0.4116,0.0618 -0.5642,0.17667 -0.6248,0.47009 -0.044,0.21575 0.034,0.44399 0.1929,0.56582 0.098,0.0745 0.2137,0.11103 0.4725,0.14885 0.2541,0.0371 0.4163,0.11589 0.5848,0.28399 0.1319,0.13162 0.2169,0.2728 0.2822,0.46882 0.034,0.10018 0.036,0.23813 0.047,2.13233 l 0.011,2.02525 0.055,0.20448 c 0.1181,0.43718 0.3042,0.76188 0.6143,1.07209 0.342,0.34202 0.7218,0.51889 1.2084,0.56275 0.4935,0.0445 0.7683,-0.1032 0.8415,-0.45241 0.043,-0.20566 -0.058,-0.45147 -0.2254,-0.54837 -0.099,-0.0571 -0.1938,-0.083 -0.4378,-0.11904 -0.2671,-0.0396 -0.4601,-0.13673 -0.6315,-0.31846 -0.1288,-0.13661 -0.2233,-0.30102 -0.2697,-0.46972 -0.018,-0.0649 -0.027,-0.60515 -0.036,-2.12208 -0.013,-2.15917 -0.01,-2.07524 -0.1037,-2.38733 -0.091,-0.30314 -0.2176,-0.50766 -0.4683,-0.75833 l -0.178,-0.17805 0.1405,-0.1308 c 0.2311,-0.21522 0.4198,-0.49554 0.4998,-0.74241 0.1,-0.30828 0.096,-0.22575 0.1089,-2.42403 0.011,-1.90973 0.015,-2.06197 0.047,-2.16153 0.1145,-0.34843 0.3506,-0.59661 0.6773,-0.7119 0.041,-0.0143 0.1466,-0.0359 0.2351,-0.0479 0.3476,-0.0469 0.4884,-0.12345 0.5891,-0.32054 0.1425,-0.27867 0.024,-0.62972 -0.254,-0.75272 -0.098,-0.0433 -0.2314,-0.0629 -0.3809,-0.0609 z m 6.5406,5.21726 c -0.069,0 -0.1961,0.0557 -0.7161,0.31294 -0.3901,0.19296 -0.6532,0.33471 -0.6865,0.36983 -0.066,0.0691 -0.092,0.15511 -0.092,0.29788 0,0.0593 -0.013,0.21268 -0.028,0.34091 -0.015,0.1282 -0.033,0.30756 -0.04,0.39863 -0.01,0.091 -0.024,0.29257 -0.04,0.44787 -0.015,0.15531 -0.041,0.4357 -0.057,0.62315 -0.017,0.18745 -0.039,0.4328 -0.05,0.54528 -0.011,0.11242 -0.028,0.314 -0.04,0.44786 -0.011,0.13388 -0.033,0.35297 -0.048,0.48684 -0.015,0.13387 -0.028,0.28636 -0.028,0.33883 0,0.0525 -0.012,0.21024 -0.028,0.35056 -0.047,0.4237 -0.078,0.77544 -0.076,0.87496 0.01,0.1919 0.1535,0.24708 0.3868,0.14163 0.064,-0.029 0.1519,-0.0693 0.1947,-0.0895 0.092,-0.0433 0.1877,-0.086 0.4382,-0.19545 0.1017,-0.0445 0.2331,-0.10275 0.292,-0.1295 0.1774,-0.0805 0.2186,-0.0992 0.3506,-0.15878 l 0.1266,-0.0571 0.013,0.6062 c 0.01,0.33345 0.022,0.79467 0.034,1.02496 0.012,0.23029 0.025,0.61584 0.031,0.85683 0.022,0.94688 0.052,1.67012 0.072,1.77585 0.026,0.13706 0.081,0.19541 0.1854,0.19713 0.077,0 0.1271,-0.0196 0.3856,-0.16229 0.1406,-0.0775 0.3057,-0.16658 0.4966,-0.26778 0.1926,-0.10217 0.5058,-0.27064 0.5745,-0.30898 0.043,-0.0241 0.1305,-0.0711 0.1947,-0.10463 0.064,-0.0335 0.1781,-0.094 0.2532,-0.13427 0.075,-0.0404 0.2206,-0.11856 0.3237,-0.17393 l 0.1873,-0.10071 0.041,0.13153 c 0.022,0.0723 0.072,0.23662 0.1107,0.36518 0.039,0.12852 0.082,0.26871 0.097,0.31156 0.014,0.0428 0.045,0.14363 0.068,0.22395 0.023,0.0803 0.054,0.18108 0.068,0.22392 0.015,0.0428 0.046,0.14363 0.069,0.22396 0.024,0.0803 0.056,0.18986 0.071,0.24344 0.016,0.0535 0.041,0.13239 0.054,0.17523 0.015,0.0428 0.045,0.14363 0.068,0.22396 0.044,0.15037 0.1603,0.53388 0.2043,0.67183 0.014,0.0428 0.031,0.10528 0.038,0.13873 0.015,0.0666 0.077,0.13432 0.1376,0.14934 0.062,0.0155 0.1522,-0.007 0.1976,-0.0482 0.023,-0.0212 0.1018,-0.1393 0.1753,-0.26267 0.074,-0.12341 0.1465,-0.24507 0.1626,-0.27039 0.016,-0.0253 0.146,-0.23703 0.2888,-0.47038 0.1428,-0.2333 0.3814,-0.62139 0.5304,-0.86238 0.1489,-0.24098 0.2786,-0.45567 0.2881,-0.47711 0.015,-0.0347 0.02,-0.0318 0.037,0.0294 0.011,0.0376 0.039,0.11634 0.062,0.17527 0.023,0.0589 0.051,0.13338 0.062,0.16552 0.011,0.0322 0.032,0.0861 0.047,0.11982 0.015,0.0339 0.028,0.0685 0.028,0.0774 0,0.009 0.031,0.0951 0.07,0.19178 0.081,0.20414 0.106,0.26928 0.165,0.42884 0.024,0.0642 0.05,0.13435 0.06,0.15579 0.01,0.0212 0.035,0.0915 0.057,0.15576 0.022,0.0643 0.07,0.19133 0.1065,0.28239 0.036,0.091 0.082,0.21694 0.1032,0.27975 0.03,0.0903 0.071,0.15584 0.1207,0.19349 -0.014,-0.0433 0.015,-0.1406 0.094,-0.37971 0.6328,-1.92385 0.9507,-4.06639 0.9111,-6.14004 -0.015,-0.75746 -0.057,-1.37274 -0.1425,-2.07385 l -0.013,-0.10711 c 0.388,0.34993 0.5101,0.4696 0.034,0.0269 -0.2287,-0.2131 -0.3173,-0.22057 -0.4692,-0.0392 -0.05,0.0603 -0.1273,0.14934 -0.1707,0.19786 -0.044,0.0485 -0.1929,0.22306 -0.3321,0.38788 -0.1392,0.16478 -0.4152,0.48911 -0.6134,0.72067 -0.1981,0.2316 -0.404,0.47229 -0.4575,0.53494 -0.054,0.0626 -0.1834,0.21558 -0.2883,0.33998 -0.105,0.12439 -0.199,0.22404 -0.2089,0.22142 -0.01,-0.004 -0.1562,-0.11173 -0.3252,-0.24253 -0.169,-0.13081 -0.4649,-0.35865 -0.6577,-0.5064 -0.6848,-0.52469 -0.8132,-0.62854 -1.234,-0.99849 -0.4068,-0.35754 -0.8222,-0.79133 -1.082,-1.12992 -0.1046,-0.13628 -0.3755,-0.53698 -0.421,-0.62262 -0.076,-0.14261 -0.1364,-0.2512 -0.1515,-0.27108 -0.01,-0.0119 -0.054,-0.10676 -0.098,-0.21094 -0.045,-0.10417 -0.095,-0.21374 -0.1101,-0.24343 -0.015,-0.0298 -0.028,-0.0676 -0.028,-0.0842 0,-0.0168 -0.01,-0.0384 -0.017,-0.0487 -0.018,-0.02 -0.1332,-0.38592 -0.1868,-0.59571 -0.043,-0.16792 -0.1101,-0.23747 -0.2294,-0.23747 z"
         id="path1475"
         inkscape:connector-curvature="0"
         sodipodi:nodetypes="ccccccccccccsccccccccccccsccsccccccccssccccccccccsccccscccsccccccccccccccscsccccccccccccccsccccsccccscccccsccccccccccccsccccccccccccccccccccscccccccscccccccccccccccccscccccccccccsccccscccccccscccccccsccsscccccccccccccccscsccccscccscc" />
      <path
         id="path1477"
         transform="matrix(0.26458333,0,0,0.26458333,-359.45585,145.58756)"
         d="M 72.595703 0 C 72.385939 0 72.26081 0.051249139 72.117188 0.19335938 L 71.925781 0.38671875 L 71.878906 3.5410156 C 71.829772 6.6428361 71.770553 7.4819019 71.509766 8.6640625 C 71.422836 9.0562641 71.125358 10.011885 71.019531 10.226562 C 70.589799 11.121781 70.405779 11.430401 69.914062 12.070312 C 69.656299 12.405594 69.150071 12.950983 68.791016 13.283203 C 68.120149 13.901685 68.00908 14.024893 68.046875 14.394531 C 68.052544 14.605391 68.382149 15.027936 68.537109 15.029297 C 69.014842 15.031943 69.661975 15.513653 69.949219 16.078125 C 70.135172 16.447007 70.417969 17.253181 70.417969 17.417969 C 70.417969 17.541295 70.793065 17.880047 70.970703 17.914062 C 71.167985 17.95104 71.673268 17.82752 71.8125 17.708984 C 71.872972 17.657583 72.005375 17.580196 72.107422 17.537109 C 72.576083 17.336605 73.583291 16.549492 74.25 15.863281 C 75.436016 14.642985 75.933735 13.714535 76.345703 11.947266 C 76.542239 11.169174 76.541702 11.024281 76.503906 9.8867188 C 76.469891 8.7266306 76.390886 8.1562342 76.107422 7.0058594 C 75.986099 6.5135003 75.464822 4.8767777 75.347656 4.6152344 C 75.309861 4.5342013 75.150801 4.1520317 74.988281 3.7675781 C 74.827651 3.3828978 74.514134 2.7219585 74.294922 2.296875 C 73.237032 0.25876476 73.045467 0 72.595703 0 z M 48.582031 7.3027344 C 48.317842 7.3027344 47.736244 7.3520149 47.291016 7.4121094 C 46.845787 7.4722039 46.500686 7.5214844 46.462891 7.5214844 C 46.462891 7.5214844 46.425781 7.5622576 46.425781 7.6132812 C 46.426159 7.6639269 46.748373 7.8207804 47.142578 7.9628906 C 48.18346 8.3367237 50.297131 9.4092876 51.318359 10.080078 C 51.804029 10.399448 52.549413 10.936304 52.974609 11.273438 C 53.957287 12.052625 55.652171 13.745795 56.404297 14.699219 C 59.278628 18.341247 60.869237 22.642446 61.046875 27.275391 L 61.121094 28.515625 L 61.828125 28.470703 C 62.216282 28.444246 63.029349 28.389231 63.636719 28.347656 C 64.293223 28.304192 66.940316 28.273944 70.169922 28.289062 L 75.599609 28.306641 L 75.785156 28.123047 C 76.042164 27.866228 76.090761 27.342094 75.943359 26.449219 C 75.816745 25.692406 75.719287 25.011784 75.560547 23.824219 C 75.218878 21.277573 75.2008 21.19186 74.898438 20.925781 C 74.609682 20.672175 74.560761 20.664294 72.691406 20.554688 C 70.249076 20.411821 68.945193 20.32445 67.648438 20.214844 C 66.940154 20.154371 66.104843 20.107422 65.794922 20.107422 C 65.229127 20.108178 63.541441 19.991418 63.123047 19.921875 C 62.956748 19.893906 62.873785 19.819139 62.779297 19.609375 C 62.356746 18.665211 62.219951 18.379846 61.90625 17.751953 C 61.713116 17.367311 61.434638 16.837274 61.291016 16.574219 C 61.143614 16.311201 60.984554 16.014157 60.931641 15.912109 C 60.878727 15.810894 60.746325 15.587228 60.636719 15.416016 C 60.523333 15.244803 60.431641 15.085304 60.431641 15.066406 C 60.431641 15.044863 60.317957 14.869671 60.189453 14.675781 C 60.05717 14.481589 59.918528 14.267314 59.876953 14.201172 C 59.116134 12.946633 57.183617 10.787724 55.972656 9.8378906 C 55.266263 9.2840387 54.37457 8.7212814 53.767578 8.4472656 C 53.52531 8.3372814 53.277269 8.2216425 53.216797 8.1914062 C 53.156324 8.1596582 52.806194 8.0451532 52.443359 7.9355469 C 52.079013 7.8259406 51.681492 7.7041255 51.560547 7.6640625 C 51.233618 7.5555901 49.136488 7.3012226 48.582031 7.3027344 z M 90.914062 17.958984 C 89.966157 17.947532 89.475403 18.086431 89.009766 18.496094 C 88.569073 18.883306 88.365667 19.285982 88.320312 19.853516 C 88.266265 20.526045 88.445268 21.058804 88.875 21.501953 C 89.278654 21.918268 89.609979 22.040417 90.804688 22.208984 C 92.43442 22.438817 93.520525 23.290987 94.109375 24.804688 L 94.300781 25.296875 L 94.34375 32.988281 C 94.385325 40.461277 94.387881 40.69855 94.539062 41.361328 C 94.942716 43.138651 95.464631 44.087605 96.669922 45.244141 L 97.208984 45.761719 L 96.578125 46.384766 C 95.865684 47.089723 95.165845 48.074793 94.927734 48.712891 C 94.696049 49.334925 94.497212 50.22287 94.414062 51.021484 C 94.376267 51.431903 94.339402 54.608708 94.337891 58.748047 C 94.335245 66.559688 94.352726 66.263139 93.839844 67.242188 C 93.225671 68.413879 92.201725 69.107901 90.796875 69.308594 C 89.499363 69.493639 89.03377 69.684768 88.701172 70.166016 C 88.089644 71.049064 88.192114 72.265566 88.935547 72.951172 C 89.325594 73.310681 89.629393 73.452448 90.203125 73.537109 L 90.203125 73.535156 C 90.43292 73.571402 90.753496 73.589337 90.916016 73.574219 C 91.905118 73.488046 92.175328 73.444589 92.779297 73.283203 C 95.157376 72.646806 97.310639 70.577627 98.128906 68.140625 C 98.569221 66.798553 98.552555 67.267918 98.605469 58.931641 C 98.639484 53.343118 98.677936 51.192623 98.742188 50.960938 C 98.914534 50.341549 99.304525 49.664484 99.777344 49.162109 C 100.39832 48.501788 101.15705 48.115654 102.06641 48 C 103.84392 47.773115 104.55514 47.202559 104.62695 45.941406 C 104.7033 44.62031 104.08636 43.896055 102.6543 43.626953 C 101.41499 43.393794 101.27801 43.359145 100.82031 43.142578 C 100.22617 42.861532 99.446767 42.092099 99.140625 41.488281 C 98.644751 40.449365 98.652776 41.070271 98.607422 32.583984 L 98.564453 24.929688 L 98.357422 24.164062 C 98.081516 23.145366 97.756649 22.393041 97.267578 21.642578 C 95.682444 19.21083 93.579007 17.993 90.914062 17.958984 z M 72.931641 30.984375 C 72.833946 31.010315 72.752127 31.063523 72.669922 31.140625 C 72.405355 31.389582 72.392496 31.63157 72.623047 32.326172 C 72.736433 32.670373 72.862722 33.066874 72.904297 33.208984 C 72.945872 33.350679 73.100645 33.880753 73.248047 34.386719 C 73.494094 35.227777 73.667484 35.893803 73.769531 36.373047 C 73.792208 36.474187 73.871675 36.839657 73.947266 37.183594 C 74.957533 41.756028 74.916819 46.827269 73.833984 51.498047 C 73.575843 52.608283 73.514567 52.8549 73.25 53.779297 C 73.102598 54.305445 72.943919 54.862113 72.902344 55.013672 C 72.864548 55.164475 72.811233 55.289062 72.773438 55.289062 C 72.742823 55.289062 72.374164 54.965009 71.953125 54.570312 C 70.980653 53.659673 66.873108 49.873163 65.861328 48.955078 L 65.09375 48.259766 L 65.142578 48.664062 C 65.465728 51.313927 65.628727 53.640876 65.681641 56.503906 C 65.83131 64.341135 64.629966 72.437702 62.238281 79.708984 C 61.773399 81.12797 61.765945 81.228527 62.125 81.287109 C 62.40015 81.330952 62.719353 81.208501 62.912109 80.984375 C 63.013401 80.865962 63.394978 80.364561 63.757812 79.869141 C 64.80134 78.450344 67.099915 75.350881 68.052734 74.078125 C 68.666908 73.255775 68.670197 73.253118 68.794922 73.416016 C 68.863331 73.506157 69.298727 74.12558 69.761719 74.792969 C 70.225089 75.460396 70.695208 76.140593 70.808594 76.302734 C 70.921602 76.465103 71.260011 76.963404 71.558594 77.412109 C 71.856798 77.860966 72.156324 78.271242 72.216797 78.322266 C 72.408797 78.481006 72.844607 78.436265 73.044922 78.236328 C 73.256197 78.024221 73.464739 77.267534 73.578125 76.302734 C 73.61592 75.938312 73.687068 75.408465 73.732422 75.125 C 73.919886 73.923224 74.033986 73.149205 74.173828 72.144531 C 74.326899 71.056972 74.444216 70.253847 74.644531 68.941406 C 74.708783 68.536543 74.792536 67.941093 74.837891 67.617188 C 74.883245 67.293358 74.930955 66.896139 74.96875 66.734375 L 75.021484 66.439453 L 75.177734 66.771484 C 75.260884 66.95362 75.403305 67.283245 75.490234 67.505859 C 75.665604 67.941261 75.821855 68.302545 75.984375 68.634766 C 76.041068 68.749285 76.085938 68.884082 76.085938 68.933594 C 76.085938 68.983106 76.183616 69.117839 76.300781 69.230469 C 76.585002 69.502595 76.983353 69.510851 77.244141 69.251953 C 77.40666 69.086334 77.429635 68.988402 77.486328 68.160156 C 77.645068 65.831514 77.713219 64.597529 77.78125 62.722656 C 77.819045 61.609472 77.848923 60.656934 77.886719 60.607422 C 77.905616 60.55757 77.954646 59.522099 78 58.306641 C 78.041575 57.090993 78.091111 55.963301 78.128906 55.800781 L 78.181641 55.505859 L 78.833984 56.066406 C 79.503717 56.643011 79.751259 56.77248 80.080078 56.708984 C 80.326125 56.662232 80.544236 56.396252 80.582031 56.167969 C 80.59337 55.945279 80.458202 54.799401 80.318359 53.964844 C 80.261666 53.620793 80.163735 52.940861 80.095703 52.455078 C 80.027672 51.969182 79.92974 51.274503 79.873047 50.910156 C 79.776669 50.277312 79.586147 48.964468 79.359375 47.376953 C 79.302682 46.972279 79.215276 46.391387 79.169922 46.087891 C 79.120788 45.784281 79.045101 45.222533 78.992188 44.837891 C 78.866707 43.907031 78.682029 42.640918 78.402344 40.789062 C 78.338092 40.363979 78.258498 39.785418 78.220703 39.501953 C 78.186687 39.218715 78.119573 38.73709 78.074219 38.433594 C 77.82099 36.763874 77.668759 35.718636 77.517578 34.583984 C 77.324066 33.117868 77.190224 32.884805 76.269531 32.425781 C 75.986067 32.28454 75.240305 31.901148 74.613281 31.574219 C 73.653754 31.074329 73.224725 30.906555 72.931641 30.984375 z "
         style="fill:#9c6d41;fill-opacity:1;stroke-width:0.07360025" />
      <g
         aria-label="vikingsDev"
         style="font-style:normal;font-weight:normal;font-size:12.7271471px;line-height:1.25;font-family:sans-serif;letter-spacing:0px;word-spacing:0px;fill:#c68e49;fill-opacity:1;stroke:none;stroke-width:0.06076591"
         id="text1487">
        <path
           d="m -320.61458,155.10721 -1.88361,4.61995 -1.89635,-4.61995 h -1.29817 l 2.8127,6.38902 h 0.76363 l 2.78725,-6.38902 z"
           style="font-style:normal;font-variant:normal;font-weight:normal;font-stretch:normal;font-family:Acre;-inkscape-font-specification:Acre;fill:#c68e49;fill-opacity:1;stroke-width:0.06076591"
           id="path817" />
        <path
           d="m -317.64975,153.91085 c 0.47091,0 0.81454,-0.35636 0.81454,-0.82726 0,-0.44545 -0.34363,-0.80181 -0.81454,-0.80181 -0.4709,0 -0.81454,0.35636 -0.81454,0.80181 0,0.4709 0.34364,0.82726 0.81454,0.82726 z m -0.59817,7.55993 h 1.19635 v -6.36357 h -1.19635 z"
           style="font-style:normal;font-variant:normal;font-weight:normal;font-stretch:normal;font-family:Acre;-inkscape-font-specification:Acre;fill:#c68e49;fill-opacity:1;stroke-width:0.06076591"
           id="path819" />
        <path
           d="m -309.48727,161.47078 -3.01633,-3.14361 2.83815,-3.21996 h -1.46362 l -2.60907,3.01633 v -6.83448 h -1.19635 v 10.18172 h 1.19635 v -2.92724 l 2.69816,2.92724 z"
           style="font-style:normal;font-variant:normal;font-weight:normal;font-stretch:normal;font-family:Acre;-inkscape-font-specification:Acre;fill:#c68e49;fill-opacity:1;stroke-width:0.06076591"
           id="path821" />
        <path
           d="m -307.63209,153.91085 c 0.4709,0 0.81454,-0.35636 0.81454,-0.82726 0,-0.44545 -0.34364,-0.80181 -0.81454,-0.80181 -0.47091,0 -0.81454,0.35636 -0.81454,0.80181 0,0.4709 0.34363,0.82726 0.81454,0.82726 z m -0.59818,7.55993 h 1.19635 v -6.36357 h -1.19635 z"
           style="font-style:normal;font-variant:normal;font-weight:normal;font-stretch:normal;font-family:Acre;-inkscape-font-specification:Acre;fill:#c68e49;fill-opacity:1;stroke-width:0.06076591"
           id="path823" />
        <path
           d="m -301.79868,154.97993 c -0.87818,0 -1.55271,0.42 -1.9218,1.01818 v -0.8909 h -1.19635 v 6.36357 h 1.19635 v -3.47451 c 0,-1.25999 0.66181,-1.9218 1.55271,-1.9218 0.90363,0 1.55271,0.66181 1.55271,1.9218 v 3.47451 h 1.19635 v -3.65269 c 0,-1.89635 -1.13271,-2.83816 -2.37997,-2.83816 z"
           style="font-style:normal;font-variant:normal;font-weight:normal;font-stretch:normal;font-family:Acre;-inkscape-font-specification:Acre;fill:#c68e49;fill-opacity:1;stroke-width:0.06076591"
           id="path825" />
        <path
           d="m -291.76452,155.10721 h -1.18362 v 1.03089 c -0.48364,-0.67453 -1.23454,-1.11998 -2.17635,-1.11998 -1.76907,0 -2.97815,1.43816 -2.97815,3.27087 0,1.83271 1.20908,3.27088 2.97815,3.27088 0.95454,0 1.70544,-0.45818 2.2018,-1.14544 v 0.48363 c 0,1.41271 -0.81454,2.07452 -1.98543,2.07452 -0.75091,0 -1.56544,-0.30545 -2.27816,-0.80181 l -0.0127,1.25999 c 0.69999,0.39454 1.45089,0.67454 2.41816,0.67454 1.51453,0 3.02906,-0.95454 3.02906,-2.90179 z m -3.15633,5.29449 c -1.14545,0 -1.94726,-0.94181 -1.94726,-2.11271 0,-1.15817 0.80181,-2.09998 1.94726,-2.09998 1.14544,0 1.97271,0.97999 1.97271,2.09998 0,1.11999 -0.82727,2.11271 -1.97271,2.11271 z"
           style="font-style:normal;font-variant:normal;font-weight:normal;font-stretch:normal;font-family:Acre;-inkscape-font-specification:Acre;fill:#c68e49;fill-opacity:1;stroke-width:0.06076591"
           id="path827" />
        <path
           d="m -288.05794,161.5726 c 1.32363,0 2.2018,-0.78909 2.21453,-1.83271 0,-2.21453 -3.05452,-1.79453 -3.04179,-2.93997 0,-0.38182 0.34363,-0.63636 0.82726,-0.63636 0.53454,0 1.04363,0.36909 1.32363,0.62363 l 0.69999,-0.87817 c -0.39454,-0.44545 -1.14544,-0.91636 -2.03635,-0.90363 -1.24726,0 -2.04907,0.80181 -2.04907,1.76907 -0.0127,2.16362 3.02907,1.70544 3.02907,2.93997 0,0.42 -0.39455,0.7 -0.92909,0.7 -0.59817,0 -1.14544,-0.35636 -1.53998,-0.73818 l -0.7509,0.8909 c 0.52181,0.58545 1.45089,1.00545 2.2527,1.00545 z"
           style="font-style:normal;font-variant:normal;font-weight:normal;font-stretch:normal;font-family:Acre;-inkscape-font-specification:Acre;fill:#c68e49;fill-opacity:1;stroke-width:0.06076591"
           id="path829" />
        <path
           d="m -281.95288,152.56178 h -2.3418 v 8.909 h 2.3418 c 2.79997,0 4.46722,-2.01089 4.46722,-4.47996 0,-2.45634 -1.66725,-4.42904 -4.46722,-4.42904 z m 0.0127,7.72537 h -1.14544 v -6.54175 h 1.14544 c 2.03635,0 3.2327,1.42544 3.2327,3.24542 0,1.7818 -1.19635,3.29633 -3.2327,3.29633 z"
           style="font-style:normal;font-variant:normal;font-weight:normal;font-stretch:normal;font-family:Acre;-inkscape-font-specification:Acre;fill:#c68e49;fill-opacity:1;stroke-width:0.06076591"
           id="path831" />
        <path
           d="m -273.08485,155.01812 c -1.87089,0 -3.11815,1.5018 -3.11815,3.27087 0,1.7818 1.22181,3.28361 3.24542,3.28361 0.86545,0 1.62908,-0.24182 2.16362,-0.63636 v -1.20908 c -0.61091,0.42 -1.25999,0.68727 -2.09998,0.68727 -1.09454,0 -1.88362,-0.63636 -2.07453,-1.64181 h 4.86177 c 0.14,-2.01089 -0.99271,-3.7545 -2.97815,-3.7545 z m -0.0254,1.19635 c 0.91635,0 1.56544,0.63636 1.74362,1.56544 h -3.58906 c 0.19091,-0.91636 0.87817,-1.56544 1.84544,-1.56544 z"
           style="font-style:normal;font-variant:normal;font-weight:normal;font-stretch:normal;font-family:Acre;-inkscape-font-specification:Acre;fill:#c68e49;fill-opacity:1;stroke-width:0.06076591"
           id="path833" />
        <path
           d="m -264.73445,155.10721 -1.88361,4.61995 -1.89635,-4.61995 h -1.29817 l 2.8127,6.38902 h 0.76363 l 2.78725,-6.38902 z"
           style="font-style:normal;font-variant:normal;font-weight:normal;font-stretch:normal;font-family:Acre;-inkscape-font-specification:Acre;fill:#c68e49;fill-opacity:1;stroke-width:0.06076591"
           id="path835" />
      </g>
    </g>
  </g>
</svg>
