<?xml version="1.0" encoding="UTF-8" standalone="no"?>
<!-- Created with Inkscape (http://www.inkscape.org/) -->

<svg
   xmlns:dc="http://purl.org/dc/elements/1.1/"
   xmlns:cc="http://creativecommons.org/ns#"
   xmlns:rdf="http://www.w3.org/1999/02/22-rdf-syntax-ns#"
   xmlns:svg="http://www.w3.org/2000/svg"
   xmlns="http://www.w3.org/2000/svg"
   xmlns:sodipodi="http://sodipodi.sourceforge.net/DTD/sodipodi-0.dtd"
   xmlns:inkscape="http://www.inkscape.org/namespaces/inkscape"
   width="96.006851mm"
   height="21.6106mm"
   viewBox="0 0 96.006851 21.6106"
   version="1.1"
   id="svg8118"
   inkscape:version="0.92.4 (5da689c313, 2019-01-14)"
   sodipodi:docname="full-logo-black.svg">
  <defs
     id="defs8112" />
  <sodipodi:namedview
     id="base"
     pagecolor="#ffffff"
     bordercolor="#666666"
     borderopacity="1.0"
     inkscape:pageopacity="0.0"
     inkscape:pageshadow="2"
     inkscape:zoom="1.979899"
     inkscape:cx="150.32995"
     inkscape:cy="26.455381"
     inkscape:document-units="mm"
     inkscape:current-layer="layer1"
     showgrid="false"
     fit-margin-top="0"
     fit-margin-left="0"
     fit-margin-right="0"
     fit-margin-bottom="0"
     inkscape:window-width="1680"
     inkscape:window-height="1013"
     inkscape:window-x="0"
     inkscape:window-y="0"
     inkscape:window-maximized="1" />
  <metadata
     id="metadata8115">
    <rdf:RDF>
      <cc:Work
         rdf:about="">
        <dc:format>image/svg+xml</dc:format>
        <dc:type
           rdf:resource="http://purl.org/dc/dcmitype/StillImage" />
        <dc:title />
      </cc:Work>
    </rdf:RDF>
  </metadata>
  <g
     inkscape:label="Layer 1"
     inkscape:groupmode="layer"
     id="layer1"
     transform="translate(359.45585,-145.58756)">
    <path
       style="fill:#000000;fill-opacity:1;stroke-width:0.07360022"
       d="M 72.595703 0 C 72.385939 0 72.260809 0.051249136 72.117188 0.19335938 L 71.925781 0.38671875 L 71.878906 3.5410156 C 71.829772 6.6428361 71.770553 7.4819019 71.509766 8.6640625 C 71.422836 9.0562641 71.125358 10.011886 71.019531 10.226562 C 70.589799 11.121781 70.405779 11.430402 69.914062 12.070312 C 69.6563 12.405594 69.150071 12.950983 68.791016 13.283203 C 68.120149 13.901685 68.00908 14.024893 68.046875 14.394531 C 68.052544 14.605391 68.382149 15.027936 68.537109 15.029297 C 69.014842 15.031943 69.661975 15.513653 69.949219 16.078125 C 70.135172 16.447007 70.417969 17.253181 70.417969 17.417969 C 70.417969 17.541295 70.793065 17.880048 70.970703 17.914062 C 71.167985 17.95104 71.673268 17.82752 71.8125 17.708984 C 71.872972 17.657583 72.005375 17.580196 72.107422 17.537109 C 72.576083 17.336605 73.583291 16.549492 74.25 15.863281 C 75.436016 14.642985 75.933735 13.714535 76.345703 11.947266 C 76.542239 11.169174 76.541702 11.024281 76.503906 9.8867188 C 76.469891 8.7266306 76.390886 8.1562342 76.107422 7.0058594 C 75.986099 6.5135003 75.464822 4.8767777 75.347656 4.6152344 C 75.309861 4.5342013 75.150801 4.1520317 74.988281 3.7675781 C 74.827651 3.3828978 74.514134 2.7219585 74.294922 2.296875 C 73.237032 0.25876479 73.045467 0 72.595703 0 z M 18.873047 3.609375 C 18.733204 3.609375 18.598013 3.6693739 18.492188 3.7695312 C 18.250298 3.9963029 18.201828 4.4019598 18.337891 5.0371094 C 18.402143 5.3311566 18.487722 5.8045016 18.529297 6.0878906 C 18.714494 7.297982 18.951196 8.7300225 19.080078 9.4355469 C 19.136771 9.7390429 19.250961 10.385349 19.337891 10.871094 C 19.57978 12.247711 19.685686 12.746406 20.085938 14.398438 C 20.469559 15.985762 21.135634 18.13589 21.394531 18.619141 C 21.432327 18.690196 21.601532 19.043781 21.775391 19.408203 C 22.175265 20.253117 22.415438 20.649513 23.027344 21.472656 C 23.805548 22.518829 25.050205 23.64052 26 24.152344 C 26.16252 24.238895 26.343446 24.339914 26.404297 24.376953 C 26.551698 24.466528 27.193434 24.744141 27.253906 24.744141 C 27.291702 24.744141 27.408479 24.790649 27.533203 24.849609 C 28.096731 25.103594 29.770668 25.469019 30.783203 25.558594 C 31.60525 25.631161 34.590029 25.577539 35.236328 25.478516 C 35.500895 25.438453 36.063084 25.357789 36.488281 25.298828 C 38.051872 25.084529 38.569247 24.964749 38.933594 24.732422 C 39.300208 24.499225 39.773348 23.981455 39.96875 23.599609 C 40.138829 23.268145 40.386719 22.231558 40.386719 21.863281 C 40.385963 21.449461 40.134794 20.406281 39.949219 20.039062 C 39.767801 19.680008 39.041832 18.891957 38.693359 18.671875 C 38.181233 18.348347 37.423288 18.188438 36.230469 18.152344 C 33.589335 18.072218 30.77587 17.618552 29.310547 17.037109 C 27.701224 16.398445 26.454564 15.591465 25.402344 14.503906 C 24.907982 13.993481 24.048828 12.951571 24.048828 12.863281 C 24.048828 12.844384 23.934764 12.664807 23.794922 12.472656 C 23.079835 11.475692 21.781689 9.0197197 20.769531 6.75 C 20.712838 6.6282992 20.551698 6.263283 20.404297 5.9394531 C 20.256895 5.6155476 20.081516 5.2352555 20.019531 5.09375 C 19.955279 4.9516398 19.847328 4.7028928 19.779297 4.5410156 C 19.707486 4.3792518 19.628019 4.1785626 19.601562 4.09375 C 19.510855 3.7785374 19.180322 3.5928084 18.873047 3.6113281 L 18.873047 3.609375 z M 48.597656 7.3007812 C 47.600617 7.3007812 45.784027 7.5737393 44.142578 7.9707031 C 43.636877 8.0924039 43.085338 8.2231042 42.916016 8.2597656 C 42.56074 8.336868 41.907082 8.5315856 41.640625 8.640625 C 41.538578 8.6821998 41.159268 8.8089305 40.794922 8.9238281 C 40.432087 9.0379699 39.949177 9.2037085 39.726562 9.2910156 C 39.503571 9.3775668 39.200514 9.4826186 39.052734 9.5234375 C 38.39623 9.7044769 38.09767 10.415652 38.505859 10.824219 L 38.697266 11.015625 L 40.333984 11.03125 C 42.140221 11.046368 43.664327 11.147778 44.732422 11.326172 C 45.733241 11.493605 47.034795 11.845921 47.455078 12.064453 C 47.557125 12.116989 47.671189 12.162109 47.708984 12.162109 C 47.875284 12.162903 48.948087 12.735493 49.625 13.183594 C 50.432307 13.717943 51.776592 14.968987 52.464844 15.824219 C 53.044245 16.54471 54.047921 18.00603 54.580078 18.908203 C 55.070661 19.738603 55.550781 20.603046 55.550781 20.654297 C 55.550781 20.673195 55.378425 20.722097 55.166016 20.763672 C 54.150835 20.960963 52.13093 21.400522 51.503906 21.560547 C 51.119906 21.659193 50.605927 21.78794 50.363281 21.847656 C 49.528384 22.053263 47.044018 22.83164 46.597656 23.027344 C 46.469152 23.082903 46.330384 23.128906 46.28125 23.128906 C 46.235896 23.128906 46.057175 23.189593 45.886719 23.263672 C 45.71664 23.337751 45.43022 23.457486 45.248047 23.529297 C 45.06663 23.601864 44.806867 23.705404 44.673828 23.761719 C 44.541545 23.81879 44.39717 23.865234 44.359375 23.865234 C 44.32158 23.865234 44.031695 23.98497 43.71875 24.130859 C 43.405049 24.275993 43.048679 24.437699 42.927734 24.490234 C 42.806789 24.54277 42.341713 24.755685 41.896484 24.964844 C 40.777744 25.490122 39.998914 25.889064 38.253906 26.828125 C 37.90241 27.016345 36.963349 27.565413 36.056641 28.111328 C 35.909239 28.200903 35.739719 28.299023 35.677734 28.328125 C 35.617262 28.358361 35.436334 28.465178 35.273438 28.568359 C 35.110918 28.67154 34.914425 28.792536 34.832031 28.837891 C 34.593921 28.97093 33.495157 29.641277 33.210938 29.826172 C 33.120229 29.886266 32.77054 30.102483 32.439453 30.304688 C 32.106855 30.506891 31.761323 30.722542 31.667969 30.783203 C 31.57726 30.843298 31.319705 31.002923 31.103516 31.136719 C 30.884303 31.270892 30.428299 31.558925 30.083984 31.777344 C 29.740047 31.9958 29.281398 32.284287 29.064453 32.417969 C 28.84902 32.552142 28.593354 32.710634 28.5 32.771484 C 28.409291 32.831579 28.069433 33.035924 27.751953 33.226562 C 26.950693 33.706903 26.677734 34.002379 26.677734 34.386719 C 26.677734 34.555286 26.73067 34.74302 26.794922 34.814453 C 26.900749 34.934642 27.832307 36.247737 28.958984 37.873047 C 29.670669 38.900247 29.775566 39.01831 30.037109 39.087891 C 30.416574 39.188426 30.486915 39.154739 31.925781 38.226562 C 32.027828 38.161556 32.16817 38.074022 32.232422 38.033203 C 32.455414 37.897518 33.137748 37.477267 33.25 37.40625 C 33.310472 37.367699 33.857474 37.053803 34.464844 36.707031 C 35.071836 36.360449 35.619215 36.044751 35.679688 36.005859 C 35.951812 35.830867 38.76384 34.407772 39.654297 33.994141 C 40.078738 33.797227 40.65832 33.526411 40.941406 33.392578 C 41.224871 33.258405 41.771872 33.0285 42.15625 32.878906 C 42.770045 32.640418 43.080126 32.509994 43.664062 32.25 C 43.747212 32.215984 44.093185 32.090641 44.4375 31.974609 C 45.695327 31.551831 46.244672 31.361833 46.388672 31.298828 C 46.468042 31.264812 46.849997 31.147598 47.234375 31.041016 C 47.619131 30.934433 48.000771 30.81955 48.082031 30.785156 C 48.263449 30.709566 48.458994 30.656622 50.509766 30.15625 C 51.400222 29.938927 52.494225 29.689802 52.939453 29.603516 C 53.385059 29.516964 53.937859 29.399246 54.169922 29.341797 C 54.400473 29.284726 54.712793 29.236328 54.861328 29.236328 C 55.00873 29.236328 55.383375 29.190261 55.691406 29.132812 C 56.840005 28.918136 58.143056 28.763675 60.335938 28.582031 C 60.528692 28.566913 60.827357 28.539058 61.095703 28.515625 L 61.046875 27.277344 L 61.121094 28.515625 L 61.828125 28.470703 C 62.216282 28.444246 63.029349 28.389231 63.636719 28.347656 C 64.293223 28.304192 66.940316 28.273945 70.169922 28.289062 L 75.599609 28.306641 L 75.785156 28.123047 C 76.042164 27.866228 76.090761 27.342094 75.943359 26.449219 C 75.816745 25.692406 75.719287 25.011784 75.560547 23.824219 C 75.218878 21.277573 75.200799 21.19186 74.898438 20.925781 C 74.609682 20.672175 74.560761 20.664293 72.691406 20.554688 C 70.249076 20.411821 68.945192 20.32445 67.648438 20.214844 C 66.940154 20.154371 66.104843 20.107422 65.794922 20.107422 C 65.229127 20.108178 63.541441 19.991418 63.123047 19.921875 C 62.956748 19.893906 62.873785 19.819139 62.779297 19.609375 C 62.356746 18.665211 62.219951 18.379846 61.90625 17.751953 C 61.713116 17.367311 61.434638 16.837274 61.291016 16.574219 C 61.143614 16.311201 60.984554 16.014157 60.931641 15.912109 C 60.878727 15.810894 60.746325 15.587228 60.636719 15.416016 C 60.523333 15.244803 60.431641 15.085304 60.431641 15.066406 C 60.431641 15.044863 60.317957 14.869671 60.189453 14.675781 C 60.05717 14.481589 59.918528 14.267314 59.876953 14.201172 C 59.116134 12.946633 57.183617 10.787724 55.972656 9.8378906 C 55.266263 9.2840387 54.37457 8.7212814 53.767578 8.4472656 C 53.52531 8.3372814 53.277269 8.2216425 53.216797 8.1914062 C 53.156324 8.1596583 52.806194 8.0451532 52.443359 7.9355469 C 52.079013 7.8259406 51.681492 7.7041255 51.560547 7.6640625 C 51.413694 7.6153378 50.859804 7.5359437 50.298828 7.4648438 C 50.298828 7.4648438 50.296875 7.4628906 50.296875 7.4628906 C 49.782577 7.3977521 49.395468 7.367119 49.017578 7.3417969 C 48.907035 7.3343122 48.68437 7.3027344 48.617188 7.3027344 L 48.597656 7.3007812 z M 46.425781 7.6132812 C 46.426159 7.6639269 46.748373 7.8207804 47.142578 7.9628906 C 48.18346 8.3367237 50.297131 9.4092877 51.318359 10.080078 C 51.804029 10.399448 52.549413 10.936304 52.974609 11.273438 C 53.22041 11.468338 53.509732 11.720538 53.818359 12.003906 C 53.509636 11.720952 53.220184 11.470178 52.974609 11.275391 C 52.549413 10.938257 51.804029 10.40125 51.318359 10.082031 C 50.297509 9.4110898 48.183082 8.3386767 47.142578 7.9648438 C 46.748751 7.8227335 46.426159 7.66588 46.425781 7.6152344 C 46.425781 7.6152344 46.425781 7.6132812 46.425781 7.6132812 z M 13.736328 17.955078 C 12.794092 17.970196 11.683858 18.206823 10.748047 18.638672 C 9.8810232 19.039037 9.1421218 19.576571 8.3945312 20.351562 C 7.2893975 21.497175 6.6998338 22.541596 6.2871094 24.078125 L 6.0566406 24.929688 L 6.015625 32.619141 C 5.9778297 39.803191 5.962615 40.338769 5.8378906 40.716797 C 5.5393079 41.61897 5.047758 42.325999 4.3867188 42.8125 C 3.8303723 43.222125 3.3220929 43.411442 2.4082031 43.548828 C 0.85254962 43.782403 0.27591437 44.217183 0.046875 45.326172 C -0.11942421 46.141605 0.17482371 47.004384 0.77539062 47.464844 C 1.1457843 47.746419 1.5824051 47.884402 2.5605469 48.027344 C 3.5209248 48.167564 4.134634 48.466225 4.7714844 49.101562 C 5.2700041 49.599024 5.5910875 50.132184 5.8378906 50.873047 C 5.9663946 51.25168 5.9740502 51.77246 6.015625 58.931641 L 6.0566406 66.585938 L 6.265625 67.359375 C 6.7119872 69.011709 7.413906 70.239662 8.5859375 71.412109 C 9.8785359 72.704783 11.315179 73.373293 13.154297 73.539062 C 15.019494 73.707251 16.057323 73.147974 16.333984 71.828125 C 16.496504 71.050827 16.115115 70.122096 15.482422 69.755859 C 15.108249 69.540048 14.75033 69.442855 13.828125 69.306641 C 12.818613 69.156971 12.089217 68.788416 11.441406 68.101562 C 10.954603 67.585242 10.597245 66.963778 10.421875 66.326172 C 10.353844 66.080881 10.319172 64.039919 10.285156 58.306641 C 10.236022 50.145998 10.24672 50.462756 9.8925781 49.283203 C 9.5486411 48.137477 9.0705744 47.365383 8.1230469 46.417969 L 7.4511719 45.744141 L 7.9824219 45.25 C 8.8558707 44.43657 9.5687315 43.376411 9.8710938 42.443359 C 10.249047 41.278207 10.234447 41.591663 10.283203 33.283203 C 10.324778 26.065326 10.339993 25.489571 10.460938 25.113281 C 10.893692 23.79638 11.78476 22.857617 13.019531 22.421875 C 13.174492 22.367828 13.573715 22.285589 13.908203 22.240234 C 15.221967 22.062975 15.754167 21.774204 16.134766 21.029297 C 16.673348 19.976056 16.22649 18.650429 15.175781 18.185547 C 14.805388 18.021893 14.301367 17.947519 13.736328 17.955078 z M 90.914062 17.958984 C 89.966158 17.947532 89.475403 18.086431 89.009766 18.496094 C 88.569073 18.883306 88.365667 19.285982 88.320312 19.853516 C 88.266266 20.526045 88.445268 21.058804 88.875 21.501953 C 89.278654 21.918268 89.609979 22.040417 90.804688 22.208984 C 92.434419 22.438817 93.520525 23.290987 94.109375 24.804688 L 94.300781 25.296875 L 94.34375 32.988281 C 94.385325 40.461277 94.387882 40.69855 94.539062 41.361328 C 94.942716 43.138651 95.464631 44.087605 96.669922 45.244141 L 97.208984 45.761719 L 96.578125 46.384766 C 95.865684 47.089723 95.165845 48.074793 94.927734 48.712891 C 94.696049 49.334925 94.497212 50.22287 94.414062 51.021484 C 94.376268 51.431903 94.339402 54.608708 94.337891 58.748047 C 94.335245 66.559688 94.352726 66.263139 93.839844 67.242188 C 93.225671 68.413878 92.201725 69.107901 90.796875 69.308594 C 89.499363 69.493639 89.03377 69.684768 88.701172 70.166016 C 88.089644 71.049064 88.192114 72.265566 88.935547 72.951172 C 89.325594 73.310681 89.629393 73.452448 90.203125 73.537109 L 90.203125 73.535156 C 90.43292 73.571402 90.753496 73.589337 90.916016 73.574219 C 91.905118 73.488046 92.175328 73.444589 92.779297 73.283203 C 95.157376 72.646806 97.310639 70.577627 98.128906 68.140625 C 98.569221 66.798553 98.552555 67.267918 98.605469 58.931641 C 98.639484 53.343118 98.677936 51.192622 98.742188 50.960938 C 98.914533 50.341549 99.304525 49.664484 99.777344 49.162109 C 100.39832 48.501788 101.15705 48.115654 102.06641 48 C 103.84392 47.773115 104.55514 47.202559 104.62695 45.941406 C 104.7033 44.62031 104.08636 43.896055 102.6543 43.626953 C 101.41499 43.393794 101.27801 43.359145 100.82031 43.142578 C 100.22617 42.861532 99.446767 42.092099 99.140625 41.488281 C 98.644751 40.449365 98.652776 41.070271 98.607422 32.583984 L 98.564453 24.929688 L 98.357422 24.164062 C 98.081516 23.145367 97.756649 22.393041 97.267578 21.642578 C 95.682444 19.21083 93.579007 17.993 90.914062 17.958984 z M 168.26953 21.548828 L 168.26953 60.03125 L 172.79102 60.03125 L 172.79102 48.966797 L 182.98828 60.03125 L 188.85742 60.03125 L 177.45703 48.150391 L 188.18359 35.980469 L 182.65234 35.980469 L 172.79102 47.380859 L 172.79102 21.548828 L 168.26953 21.548828 z M 158.00781 25.300781 C 156.22802 25.300781 154.92969 26.64844 154.92969 28.332031 C 154.92969 30.111828 156.22802 31.458984 158.00781 31.458984 C 159.78761 31.458984 161.08594 30.111828 161.08594 28.332031 C 161.08594 26.64844 159.78761 25.300781 158.00781 25.300781 z M 195.86914 25.300781 C 194.08934 25.300781 192.79102 26.64844 192.79102 28.332031 C 192.79102 30.111828 194.08934 31.458984 195.86914 31.458984 C 197.64894 31.458984 198.94727 30.111828 198.94727 28.332031 C 198.94727 26.64844 197.64894 25.300781 195.86914 25.300781 z M 284.07422 26.359375 L 284.07422 60.03125 L 292.92383 60.03125 C 303.5064 60.03125 309.80859 52.431514 309.80859 43.099609 C 309.80859 33.815807 303.5064 26.359375 292.92383 26.359375 L 284.07422 26.359375 z M 288.64258 30.832031 L 292.97266 30.832031 C 300.66907 30.832031 305.19141 36.220937 305.19141 43.099609 C 305.19141 49.833974 300.66907 55.556641 292.97266 55.556641 L 288.64258 55.556641 L 288.64258 30.832031 z M 73.183594 30.972656 C 73.087165 30.96006 73.004912 30.96492 72.931641 30.984375 C 72.833946 31.010315 72.752127 31.063523 72.669922 31.140625 C 72.405355 31.389582 72.392496 31.63157 72.623047 32.326172 C 72.736433 32.670373 72.862722 33.066874 72.904297 33.208984 C 72.945872 33.350679 73.100645 33.880753 73.248047 34.386719 C 73.494094 35.227777 73.667484 35.893803 73.769531 36.373047 C 73.792208 36.474187 73.871675 36.839657 73.947266 37.183594 C 74.957533 41.756028 74.916819 46.827269 73.833984 51.498047 C 73.575843 52.608283 73.514567 52.8549 73.25 53.779297 C 73.102598 54.305445 72.943919 54.862113 72.902344 55.013672 C 72.864548 55.164475 72.811232 55.289062 72.773438 55.289062 C 72.742823 55.289062 72.374164 54.965009 71.953125 54.570312 C 71.063883 53.737612 67.750827 50.68555 66.382812 49.435547 C 66.381702 49.434503 66.364578 49.419182 66.363281 49.417969 C 66.241328 49.306555 65.944714 49.030742 65.861328 48.955078 C 65.682561 48.790545 65.718538 48.824375 65.222656 48.363281 C 64.358278 47.557864 64.023329 47.529351 63.449219 48.214844 C 63.260242 48.442749 62.968718 48.779508 62.804688 48.962891 C 62.638388 49.146198 62.074938 49.804793 61.548828 50.427734 C 61.022718 51.050525 59.979571 52.277156 59.230469 53.152344 C 58.481744 54.027682 57.704158 54.937041 57.501953 55.173828 C 57.297859 55.410427 56.808582 55.988811 56.412109 56.458984 C 56.015259 56.92912 55.660464 57.304824 55.623047 57.294922 C 55.585252 57.279804 55.033271 56.873268 54.394531 56.378906 C 53.755791 55.884506 52.636896 55.023269 51.908203 54.464844 C 49.319983 52.481763 48.834566 52.089642 47.244141 50.691406 C 45.706629 49.340074 44.136218 47.699632 43.154297 46.419922 C 42.758958 45.904848 41.734469 44.392038 41.5625 44.068359 C 41.275256 43.529361 41.047305 43.118106 40.990234 43.042969 C 40.952439 42.997992 40.787393 42.639845 40.621094 42.246094 C 40.451015 41.85238 40.262149 41.438386 40.205078 41.326172 C 40.148385 41.213542 40.097656 41.070553 40.097656 41.007812 C 40.097656 40.944317 40.05966 40.863148 40.033203 40.824219 C 39.965172 40.748628 39.530708 39.365173 39.328125 38.572266 C 39.165605 37.937607 38.911834 37.673828 38.460938 37.673828 L 38.457031 37.673828 C 38.196244 37.673828 37.717307 37.885176 35.751953 38.857422 C 34.277559 39.58672 33.282108 40.121169 33.15625 40.253906 C 32.906801 40.515072 32.808594 40.841256 32.808594 41.380859 C 32.808594 41.604985 32.759818 42.18332 32.703125 42.667969 C 32.646432 43.152504 32.577238 43.83158 32.550781 44.175781 C 32.512986 44.519718 32.460863 45.280227 32.400391 45.867188 C 32.343698 46.454185 32.246019 47.514184 32.185547 48.222656 C 32.121295 48.931129 32.037669 49.858082 31.996094 50.283203 C 31.954519 50.708098 31.891057 51.470636 31.845703 51.976562 C 31.804128 52.482566 31.720755 53.310441 31.664062 53.816406 C 31.607371 54.322372 31.558594 54.899344 31.558594 55.097656 C 31.558594 55.296081 31.511644 55.891532 31.451172 56.421875 C 31.273534 58.023261 31.156504 59.352377 31.164062 59.728516 C 31.201858 60.453807 31.745189 60.662223 32.626953 60.263672 C 32.868843 60.154066 33.201517 60.002128 33.363281 59.925781 C 33.710998 59.762128 34.07276 59.601169 35.019531 59.1875 C 35.403909 59.019311 35.900433 58.798368 36.123047 58.697266 C 36.793535 58.393014 36.948368 58.322841 37.447266 58.097656 L 37.925781 57.882812 L 37.974609 60.173828 C 38.012405 61.434112 38.058161 63.176488 38.103516 64.046875 C 38.14887 64.917262 38.198026 66.374328 38.220703 67.285156 C 38.303853 70.863915 38.416597 73.598437 38.492188 73.998047 C 38.590454 74.516069 38.798777 74.735687 39.193359 74.742188 C 39.484383 74.742188 39.673383 74.668207 40.650391 74.128906 C 41.181792 73.835993 41.805832 73.499675 42.527344 73.117188 C 43.255281 72.731033 44.439565 72.094126 44.699219 71.949219 C 44.861738 71.858132 45.192901 71.681414 45.435547 71.554688 C 45.677437 71.428073 46.108736 71.199077 46.392578 71.046875 C 46.676043 70.894182 47.225565 70.597944 47.615234 70.388672 L 48.324219 70.007812 L 48.478516 70.505859 C 48.561665 70.779119 48.750217 71.39887 48.896484 71.884766 C 49.043886 72.370511 49.206979 72.900547 49.263672 73.0625 C 49.316585 73.224264 49.432602 73.606585 49.519531 73.910156 C 49.60646 74.213652 49.72443 74.593944 49.777344 74.755859 C 49.834037 74.917623 49.952134 75.297954 50.039062 75.601562 C 50.129771 75.905059 50.249948 76.32093 50.306641 76.523438 C 50.367113 76.725641 50.460632 77.023632 50.509766 77.185547 C 50.566459 77.347311 50.680649 77.727641 50.767578 78.03125 C 50.933877 78.599578 51.372764 80.048928 51.539062 80.570312 C 51.591976 80.732076 51.657137 80.969278 51.683594 81.095703 C 51.740287 81.34742 51.974086 81.603388 52.203125 81.660156 C 52.437456 81.718739 52.779581 81.632279 52.951172 81.476562 C 53.038101 81.396438 53.335486 80.950655 53.613281 80.484375 C 53.892966 80.017944 54.165713 79.558588 54.226562 79.462891 C 54.287035 79.367269 54.778643 78.565547 55.318359 77.683594 C 55.858076 76.80183 56.761069 75.33661 57.324219 74.425781 C 57.88699 73.514991 58.376204 72.702127 58.412109 72.621094 C 58.468802 72.489944 58.488482 72.501115 58.552734 72.732422 C 58.594309 72.874532 58.70018 73.171804 58.787109 73.394531 C 58.874039 73.617145 58.97991 73.90001 59.021484 74.021484 C 59.063059 74.143185 59.142526 74.347164 59.199219 74.474609 C 59.255912 74.602735 59.304688 74.731987 59.304688 74.765625 C 59.304688 74.799641 59.420958 75.126783 59.568359 75.492188 C 59.874501 76.263739 59.970367 76.508267 60.193359 77.111328 C 60.284068 77.353974 60.382127 77.620139 60.419922 77.701172 C 60.457717 77.781298 60.551616 78.046191 60.634766 78.289062 C 60.717915 78.532086 60.899157 79.013258 61.037109 79.357422 C 61.173172 79.701359 61.347608 80.176671 61.427734 80.414062 C 61.54112 80.755354 61.694971 81.004185 61.882812 81.146484 C 61.8822 81.144586 61.883383 81.140626 61.882812 81.138672 C 61.910401 81.237138 61.991682 81.265358 62.125 81.287109 C 62.40015 81.330952 62.719353 81.208501 62.912109 80.984375 C 63.013401 80.865962 63.394979 80.364561 63.757812 79.869141 C 64.80134 78.450344 67.099915 75.350881 68.052734 74.078125 C 68.666908 73.255775 68.670197 73.253118 68.794922 73.416016 C 68.863331 73.506157 69.298727 74.12558 69.761719 74.792969 C 70.225089 75.460396 70.695208 76.140593 70.808594 76.302734 C 70.921602 76.465103 71.260011 76.963404 71.558594 77.412109 C 71.856798 77.860966 72.156324 78.271242 72.216797 78.322266 C 72.408797 78.481006 72.844607 78.436265 73.044922 78.236328 C 73.256197 78.024221 73.464739 77.267534 73.578125 76.302734 C 73.61592 75.938312 73.687068 75.408465 73.732422 75.125 C 73.919886 73.923224 74.033986 73.149205 74.173828 72.144531 C 74.326899 71.056972 74.444216 70.253847 74.644531 68.941406 C 74.708783 68.536543 74.792536 67.941092 74.837891 67.617188 C 74.883245 67.293358 74.930955 66.896139 74.96875 66.734375 L 75.021484 66.439453 L 75.177734 66.771484 C 75.260884 66.95362 75.403305 67.283245 75.490234 67.505859 C 75.665604 67.941261 75.821855 68.302545 75.984375 68.634766 C 76.041068 68.749285 76.085938 68.884082 76.085938 68.933594 C 76.085938 68.983106 76.183616 69.117839 76.300781 69.230469 C 76.585002 69.502595 76.983353 69.510851 77.244141 69.251953 C 77.40666 69.086334 77.429635 68.988402 77.486328 68.160156 C 77.645068 65.831514 77.713219 64.597529 77.78125 62.722656 C 77.819045 61.609472 77.848923 60.656934 77.886719 60.607422 C 77.905616 60.55757 77.954646 59.522099 78 58.306641 C 78.041575 57.090993 78.091111 55.963301 78.128906 55.800781 L 78.181641 55.505859 L 78.833984 56.066406 C 79.503717 56.643011 79.751259 56.77248 80.080078 56.708984 C 80.326125 56.662232 80.544236 56.396252 80.582031 56.167969 C 80.59337 55.945279 80.458202 54.799401 80.318359 53.964844 C 80.261666 53.620793 80.163735 52.940861 80.095703 52.455078 C 80.027672 51.969182 79.92974 51.274503 79.873047 50.910156 C 79.776669 50.277312 79.586147 48.964468 79.359375 47.376953 C 79.302682 46.972279 79.215276 46.391387 79.169922 46.087891 C 79.120788 45.784281 79.0451 45.222533 78.992188 44.837891 C 78.866707 43.907031 78.682029 42.640918 78.402344 40.789062 C 78.338092 40.36398 78.258498 39.785418 78.220703 39.501953 C 78.186687 39.218715 78.119573 38.73709 78.074219 38.433594 C 77.82099 36.763874 77.668759 35.718636 77.517578 34.583984 C 77.324066 33.117868 77.190224 32.884805 76.269531 32.425781 C 75.986067 32.28454 75.240305 31.901148 74.613281 31.574219 C 73.893636 31.199301 73.472881 31.010445 73.183594 30.972656 z M 217.91602 35.498047 C 214.59694 35.498047 212.04927 37.086834 210.6543 39.347656 L 210.6543 35.980469 L 206.13086 35.980469 L 206.13086 60.03125 L 210.6543 60.03125 L 210.6543 46.898438 C 210.6543 42.13628 213.1543 39.634766 216.52148 39.634766 C 219.93677 39.634766 222.39062 42.13628 222.39062 46.898438 L 222.39062 60.03125 L 226.91211 60.03125 L 226.91211 46.226562 C 226.91211 39.059276 222.63007 35.498047 217.91602 35.498047 z M 269.80273 35.595703 C 265.08868 35.595703 262.05859 38.625452 262.05859 42.28125 C 262.01049 50.458693 273.50586 48.726626 273.50586 53.392578 C 273.50586 54.979964 272.01445 56.039062 269.99414 56.039062 C 267.73332 56.039062 265.66501 54.691125 264.17383 53.248047 L 261.33594 56.615234 C 263.30814 58.827954 266.81915 60.416016 269.84961 60.416016 C 274.85228 60.416016 278.1726 57.432695 278.2207 53.488281 C 278.2207 45.118428 266.67651 46.706187 266.72461 42.376953 C 266.72461 40.933875 268.02171 39.972656 269.84961 39.972656 C 271.86992 39.972656 273.79526 41.368026 274.85352 42.330078 L 277.49805 39.009766 C 276.00687 37.326175 273.16992 35.547601 269.80273 35.595703 z M 243.14258 35.642578 C 236.45632 35.642578 231.88672 41.079085 231.88672 48.005859 C 231.88672 54.932634 236.45632 60.367188 243.14258 60.367188 C 246.75027 60.367188 249.58884 58.636603 251.46484 56.039062 L 251.46484 57.867188 C 251.46484 63.206575 248.38442 65.707031 243.95898 65.707031 C 241.12093 65.707031 238.04336 64.551783 235.34961 62.675781 L 235.30078 67.439453 C 237.94642 68.930634 240.78561 69.988281 244.44141 69.988281 C 250.16562 69.988281 255.88867 66.381183 255.88867 59.021484 L 255.8418 35.980469 L 251.36719 35.980469 L 251.36719 39.876953 C 249.53929 37.327515 246.70217 35.642578 243.14258 35.642578 z M 326.44141 35.642578 C 319.37032 35.642578 314.65625 41.319598 314.65625 48.005859 C 314.65625 54.740224 319.27356 60.416016 326.92188 60.416016 C 330.19284 60.416016 333.0793 59.502899 335.09961 58.011719 L 335.09961 53.441406 C 332.79068 55.028792 330.33883 56.039062 327.16406 56.039062 C 323.02724 56.039062 320.0438 53.63409 319.32227 49.833984 L 337.69727 49.833984 C 338.22639 42.233773 333.94541 35.642578 326.44141 35.642578 z M 127.60938 35.980469 L 138.24023 60.126953 L 141.125 60.126953 L 151.66016 35.980469 L 146.80078 35.980469 L 139.68164 53.441406 L 132.51562 35.980469 L 127.60938 35.980469 z M 155.74609 35.980469 L 155.74609 60.03125 L 160.26758 60.03125 L 160.26758 35.980469 L 155.74609 35.980469 z M 193.60938 35.980469 L 193.60938 60.03125 L 198.13086 60.03125 L 198.13086 35.980469 L 193.60938 35.980469 z M 338.80859 35.980469 L 349.43945 60.126953 L 352.32617 60.126953 L 362.86133 35.980469 L 358.00195 35.980469 L 350.88281 53.441406 L 343.71484 35.980469 L 338.80859 35.980469 z M 243.91211 40.068359 C 248.24134 40.068359 251.36719 43.77283 251.36719 48.005859 C 251.36719 52.238888 248.24134 55.990234 243.91211 55.990234 C 239.58288 55.990234 236.55273 52.431299 236.55273 48.005859 C 236.55273 43.628522 239.58288 40.068359 243.91211 40.068359 z M 326.3457 40.164062 C 329.80909 40.164062 332.26211 42.570541 332.93555 46.082031 L 319.37109 46.082031 C 320.09263 42.618644 322.68991 40.164063 326.3457 40.164062 z M 65.513672 52.505859 C 65.601232 53.775718 65.655197 55.07311 65.681641 56.503906 C 65.653294 55.072486 65.600837 53.776314 65.513672 52.505859 z "
       transform="matrix(0.26458333,0,0,0.26458333,-359.45585,145.58756)"
       id="path1475"
       inkscape:export-xdpi="200"
       inkscape:export-ydpi="200" />
  </g>
</svg>
