<?xml version="1.0" encoding="UTF-8" standalone="no"?>
<!-- Created with Inkscape (http://www.inkscape.org/) -->

<svg
   xmlns:dc="http://purl.org/dc/elements/1.1/"
   xmlns:cc="http://creativecommons.org/ns#"
   xmlns:rdf="http://www.w3.org/1999/02/22-rdf-syntax-ns#"
   xmlns:svg="http://www.w3.org/2000/svg"
   xmlns="http://www.w3.org/2000/svg"
   xmlns:sodipodi="http://sodipodi.sourceforge.net/DTD/sodipodi-0.dtd"
   xmlns:inkscape="http://www.inkscape.org/namespaces/inkscape"
   width="376.1326mm"
   height="293.61963mm"
   viewBox="0 0 376.1326 293.61963"
   version="1.1"
   id="svg7502"
   inkscape:version="0.92.4 (5da689c313, 2019-01-14)"
   sodipodi:docname="logo-black.svg">
  <defs
     id="defs7496" />
  <sodipodi:namedview
     id="base"
     pagecolor="#ffffff"
     bordercolor="#666666"
     borderopacity="1.0"
     inkscape:pageopacity="0.0"
     inkscape:pageshadow="2"
     inkscape:zoom="0.35"
     inkscape:cx="-16.341076"
     inkscape:cy="380.58601"
     inkscape:document-units="mm"
     inkscape:current-layer="layer1"
     showgrid="false"
     fit-margin-top="0"
     fit-margin-left="0"
     fit-margin-right="0"
     fit-margin-bottom="0"
     inkscape:window-width="1680"
     inkscape:window-height="1013"
     inkscape:window-x="0"
     inkscape:window-y="0"
     inkscape:window-maximized="1" />
  <metadata
     id="metadata7499">
    <rdf:RDF>
      <cc:Work
         rdf:about="">
        <dc:format>image/svg+xml</dc:format>
        <dc:type
           rdf:resource="http://purl.org/dc/dcmitype/StillImage" />
        <dc:title />
      </cc:Work>
    </rdf:RDF>
  </metadata>
  <g
     inkscape:label="Layer 1"
     inkscape:groupmode="layer"
     id="layer1"
     transform="translate(120.78654,41.065763)">
    <path
       style="fill:#000000;fill-opacity:1;stroke-width:0.99999994"
       d="M 986.3418 0 C 983.49581 0 981.77281 0.69455514 979.8457 2.6210938 L 977.22266 5.2441406 L 976.56836 48.115234 C 975.92353 90.260066 975.10185 101.63679 971.54883 117.69922 C 970.3698 123.02839 966.30473 136.02827 964.9043 138.94531 C 959.06595 151.10775 956.55571 155.28835 949.87305 163.98242 C 946.37173 168.53737 939.50312 175.95784 934.60742 180.47266 C 925.49589 188.87552 924.37201 190.55522 924.51562 195.57422 C 924.597 198.43899 929.02726 204.18656 931.16016 204.20508 C 937.65361 204.23914 946.46147 210.77654 950.34766 218.44531 C 952.88773 223.45805 956.72266 234.40514 956.72266 236.64258 C 956.72266 238.32006 961.83963 242.92923 964.22266 243.39844 C 966.8752 243.92066 973.83897 242.24313 975.72461 240.62695 C 976.55055 239.91881 978.35064 238.8585 979.72461 238.27148 C 986.09689 235.54919 999.78272 224.86536 1008.8418 215.54102 C 1024.9499 198.96132 1031.6993 186.34059 1037.2969 162.32812 C 1039.7613 151.75649 1039.9132 149.7842 1039.4473 134.32812 C 1038.972 118.56573 1037.907 110.83017 1034.0547 95.199219 C 1032.4063 88.510286 1025.3343 66.257757 1023.7266 62.699219 C 1023.2296 61.599376 1021.0336 56.424189 1018.8457 51.199219 C 1016.6579 45.974249 1012.4151 36.974223 1009.418 31.199219 C 995.04511 3.5061291 992.45129 0 986.3418 0 z M 257.18555 49.03125 C 256.92296 49.025516 256.66155 49.029173 256.40039 49.044922 C 254.5011 49.159064 252.66237 49.848997 251.21484 51.208984 C 247.93316 54.291983 247.25744 59.812355 249.10352 68.443359 C 249.95712 72.435372 251.13867 78.849241 251.73047 82.699219 C 254.25769 99.141222 257.45827 118.61222 259.20898 128.19922 C 259.9624 132.32423 261.53293 141.09922 262.69922 147.69922 C 266.00472 166.40322 267.44165 173.17414 272.86523 195.61914 C 278.07614 217.18514 287.13606 246.39589 290.65234 252.96289 C 291.16383 253.91889 293.50019 258.74922 295.8418 263.69922 C 301.2726 275.18022 304.52735 280.55038 312.84375 291.73438 C 323.41316 305.94937 340.32202 321.19739 353.22461 328.15039 C 355.42471 329.33539 357.89961 330.7138 358.72461 331.2168 C 360.72749 332.4368 369.44258 336.19922 370.26758 336.19922 C 370.62739 336.19922 372.33894 336.83909 374.07227 337.62109 C 381.73065 341.07609 404.46751 346.03691 418.22461 347.25391 C 429.3936 348.2419 469.94333 347.50819 478.72461 346.1582 C 482.2997 345.6092 489.9496 344.5127 495.72461 343.7207 C 516.96639 340.80871 524.00995 339.17839 528.96094 336.02539 C 533.93725 332.85639 540.36392 325.81791 543.01953 320.62891 C 545.32342 316.12691 548.7168 302.0372 548.7168 297.0332 C 548.70546 291.4102 545.29889 277.24776 542.75391 272.25977 C 540.26429 267.37976 530.4334 256.67459 525.69531 253.68359 C 518.7358 249.28959 508.43141 247.117 492.22461 246.625 C 456.342 245.537 418.13021 239.38142 398.22461 231.48242 C 376.35751 222.80342 359.41816 211.81897 345.11719 197.04297 C 338.40539 190.10897 326.72461 175.95386 326.72461 174.75586 C 326.72461 174.45285 325.19052 172.06713 323.31641 169.45312 C 313.60502 155.90814 295.96232 122.53623 282.20703 91.699219 C 281.47112 90.049228 279.22065 85.099231 277.20703 80.699219 C 275.19345 76.299244 272.85068 71.124208 272.00195 69.199219 C 271.15318 67.274192 269.65981 63.899206 268.68359 61.699219 C 267.70749 59.499231 266.63422 56.758401 266.29883 55.607422 C 265.12808 51.591154 261.1243 49.117264 257.18555 49.03125 z M 660.25195 99.197266 C 646.70114 99.197266 622.02809 102.8961 599.72461 108.28711 C 592.84957 109.94912 585.34374 111.71491 583.04492 112.21094 C 578.20255 113.25692 569.34351 115.90278 565.72461 117.38477 C 564.34981 117.94776 559.17462 119.68317 554.22461 121.24219 C 549.27464 122.80117 542.74948 125.04748 539.72461 126.23047 C 536.6997 127.4135 532.58354 128.83175 530.57812 129.38477 C 521.65456 131.84475 517.58145 141.51253 523.13086 147.0625 L 525.73828 149.66797 L 547.98047 149.83789 C 572.52347 150.0249 593.2088 151.40794 607.72461 153.83594 C 621.32063 156.10994 639.01748 160.91772 644.72461 163.88672 C 646.09968 164.60172 647.64908 165.19336 648.16797 165.19336 C 650.40447 165.20319 665.01166 173.00379 674.20898 179.0918 C 685.17698 186.3508 703.44897 203.33217 712.79688 214.95117 C 720.67367 224.74217 734.28355 244.59847 741.51953 256.85547 C 748.18125 268.13847 754.72461 279.9007 754.72461 280.5957 C 754.72461 280.8487 752.36202 281.51517 749.47461 282.07617 C 735.6824 284.75617 708.24159 290.7303 699.72461 292.9043 C 694.4996 294.2383 687.52451 295.99464 684.22461 296.80664 C 672.88228 299.59664 639.13765 310.15936 633.07227 312.81836 C 631.33897 313.57836 629.40227 314.19922 628.76758 314.19922 C 628.13307 314.19922 625.72732 315.02239 623.41992 316.02539 C 621.11271 317.02739 617.19971 318.647 614.72461 319.625 C 612.2497 320.603 608.74554 322.03078 606.93945 322.80078 C 605.13325 323.56978 603.22306 324.19922 602.69336 324.19922 C 602.16355 324.19922 598.24047 325.81983 593.97656 327.79883 C 589.71246 329.77783 584.87471 331.98136 583.22461 332.69336 C 581.57462 333.40636 575.27461 336.31234 569.22461 339.15234 C 554.02573 346.28835 543.43279 351.70584 519.72461 364.46484 C 514.9677 367.02484 502.20087 374.48435 489.88086 381.90234 C 487.86928 383.11436 485.54953 384.43209 484.72461 384.83008 C 483.89961 385.22908 481.42452 386.70252 479.22461 388.10352 C 477.02451 389.50451 474.32472 391.15448 473.22461 391.77148 C 470.01753 393.5685 455.0653 402.68621 451.20508 405.19922 C 449.93788 406.02421 445.22198 408.94923 440.72461 411.69922 C 436.2275 414.44924 431.51134 417.37422 430.24414 418.19922 C 428.97705 419.02421 425.52893 421.18593 422.58203 423.00195 C 419.6354 424.81794 413.39962 428.73221 408.72461 431.69922 C 404.04952 434.66721 397.8139 438.58338 394.86719 440.40039 C 391.92048 442.21642 388.47228 444.37422 387.20508 445.19922 C 385.93788 446.02421 381.36884 448.81732 377.05273 451.4043 C 366.16562 457.93029 362.45117 461.9372 362.45117 467.1582 C 362.45117 469.4512 363.13593 471.9997 364.01172 472.9707 C 365.48071 474.59972 378.10661 492.44627 393.41211 514.5293 C 403.08418 528.4843 404.50135 530.08328 408.05664 531.0293 C 413.21184 532.4013 414.1778 531.96282 433.72461 519.33984 C 435.09971 518.45184 436.97327 517.26988 437.88867 516.71289 C 440.92057 514.86886 450.19961 509.15151 451.72461 508.1875 C 452.5496 507.66551 459.97451 503.38282 468.22461 498.67383 C 476.47449 493.9648 483.89961 489.67941 484.72461 489.15039 C 488.43482 486.77341 526.64127 467.45102 538.74219 461.83203 C 544.50778 459.15503 552.37471 455.47721 556.22461 453.6582 C 560.07463 451.84021 567.4996 448.69116 572.72461 446.66016 C 581.06399 443.41914 585.28601 441.66287 593.22461 438.13086 C 594.32453 437.64084 599.04971 435.95381 603.72461 434.38281 C 620.81439 428.6388 628.2684 426.05813 630.22461 425.20312 C 631.32472 424.72215 636.4996 423.1462 641.72461 421.70117 C 646.94958 420.25618 652.12462 418.69263 653.22461 418.22461 C 655.66293 417.18762 658.35691 416.48855 686.22461 409.68555 C 698.32462 406.73154 713.17461 403.3527 719.22461 402.17969 C 725.27461 401.00569 732.80486 399.40605 735.95898 398.62305 C 739.11326 397.84106 743.34356 397.20117 745.35938 397.20117 C 747.37536 397.20117 752.44499 396.56132 756.625 395.7793 C 772.23437 392.86033 789.92791 390.76193 819.72461 388.29492 C 822.353 388.07688 826.40439 387.72499 830.04688 387.41602 L 830.04883 387.48242 L 839.63672 386.84961 C 844.90958 386.50133 855.97278 385.74397 864.22266 385.16797 C 873.14536 384.54537 909.11407 384.21966 952.99805 384.36328 L 1026.7715 384.60547 L 1029.2715 382.10742 C 1032.761 378.6179 1033.4354 371.49002 1031.4238 359.35742 C 1029.7189 349.07588 1028.3686 339.83418 1026.2129 323.69922 C 1021.5905 289.09873 1021.3229 287.93379 1017.2051 284.31836 C 1013.2851 280.87652 1012.6229 280.76552 987.22266 279.2793 C 954.04487 277.33767 936.34183 276.14192 918.72266 274.65625 C 909.09771 273.84448 897.75981 273.19141 893.52734 273.19141 C 885.84368 273.20079 862.89992 271.60967 857.22266 270.67383 C 854.93718 270.29721 853.82569 269.28839 852.55078 266.43945 C 846.80983 253.61178 844.98577 249.72983 840.69922 241.19922 C 838.07354 235.97424 834.30798 228.77434 832.33008 225.19922 C 830.35199 221.62429 828.16333 217.57426 827.4668 216.19922 C 826.77004 214.82417 824.96704 211.79741 823.46094 209.4707 C 821.95483 207.14417 820.72266 205.00057 820.72266 204.70898 C 820.72266 204.41741 819.26022 202.02474 817.47266 199.39062 C 815.68528 196.75651 813.77269 193.85811 813.22266 192.95117 C 802.88425 175.90449 776.64215 146.57351 760.18359 133.66797 C 750.58813 126.14369 738.47457 118.50759 730.22266 114.7832 C 726.92271 113.29384 723.54769 111.7252 722.72266 111.29688 C 721.89762 110.86854 717.17263 109.30453 712.22266 107.82031 C 707.27268 106.33632 701.87253 104.6748 700.22266 104.12695 C 698.23358 103.46682 691.37454 102.41353 683.78125 101.44922 C 682.06177 101.23085 680.36204 101.02346 678.60938 100.82031 C 677.39441 100.67665 676.23958 100.54572 675.05078 100.41406 C 674.80734 100.38772 674.57575 100.36169 674.33398 100.33594 C 668.31502 99.67926 662.86237 99.197266 660.25195 99.197266 z M 708.67188 144.90625 C 711.82797 147.17946 714.92407 149.47568 717.54297 151.49219 C 714.92392 149.47571 711.82796 147.17947 708.67188 144.90625 z M 186.60742 243.94727 C 173.80333 244.12128 158.7077 247.382 145.99609 253.25 C 134.21402 258.689 124.18445 265.99148 114.02734 276.52148 C 99.012948 292.08548 90.994089 306.25581 85.388672 327.13281 L 82.283203 338.69922 L 81.71875 443.19922 C 81.19177 540.8092 81.033221 548.06224 79.328125 553.19922 C 75.259917 565.45725 68.603129 575.0853 59.623047 581.69531 C 52.064332 587.26033 45.141831 589.83421 32.724609 591.69922 C 11.590021 594.87421 3.7506593 600.77283 0.63867188 615.83984 C -1.6496431 626.91885 2.3479838 638.64246 10.546875 644.89648 C 15.56639 648.72447 21.518717 650.59805 34.808594 652.53906 C 47.857224 654.44508 56.188278 658.49106 64.839844 667.12305 C 71.61476 673.88307 75.978759 681.13222 79.332031 691.19922 C 81.045631 696.34323 81.199886 703.42616 81.726562 800.69922 L 82.289062 904.69922 L 85.125 915.19922 C 91.188609 937.64923 100.74359 954.32392 116.67188 970.25391 C 134.23318 987.81692 153.73649 996.89937 178.72461 999.15234 C 204.0663 1001.4384 218.17649 993.85193 221.9375 975.91992 C 224.15291 965.35792 218.96566 952.73676 210.36523 947.75977 C 205.29386 944.82477 200.40949 943.49742 187.88281 941.64844 C 174.1626 939.62242 164.25456 934.625 155.45117 925.29297 C 148.83454 918.279 143.98621 909.83386 141.60352 901.17188 C 140.6866 897.83788 140.2124 870.09623 139.73633 792.19922 C 139.05892 681.3202 139.24584 685.6324 134.41602 669.60547 C 129.72543 654.03941 123.2389 643.53408 110.36719 630.66211 L 101.22266 621.52148 L 108.4375 614.80078 C 120.30431 603.75077 129.99618 589.35571 134.10547 576.67773 C 139.23697 560.84571 139.04652 565.08518 139.69531 452.19922 C 140.25899 354.1312 140.43017 346.31222 142.10938 341.19922 C 147.98645 323.30722 160.11064 310.56353 176.88672 304.64453 C 178.98001 303.90553 184.41308 302.7995 188.95898 302.1875 C 206.81139 299.7815 214.03825 295.84952 219.21484 285.72852 C 226.53363 271.41752 220.45077 253.38927 206.17188 247.07227 C 201.14828 244.85026 194.28992 243.84326 186.60742 243.94727 z M 1232.8789 244.00391 C 1221.5102 244.10327 1215.2725 246.08385 1209.3438 251.30273 C 1203.366 256.56454 1200.5877 262.03053 1199.9688 269.74219 C 1199.2354 278.8786 1201.6763 286.12659 1207.5156 292.14844 C 1213.0001 297.8049 1217.4948 299.45022 1233.7227 301.73828 C 1255.8703 304.86112 1270.6228 316.45381 1278.6211 337.02148 L 1281.2188 343.69922 L 1281.791 448.19922 C 1282.3487 549.73307 1282.4258 552.96357 1284.4707 561.96875 C 1289.954 586.11581 1297.0241 599.00908 1313.4004 614.72266 L 1320.7207 621.74609 L 1312.1523 630.22266 C 1302.472 639.79971 1292.9994 653.1763 1289.7559 661.8457 C 1286.5936 670.29714 1283.8986 682.3802 1282.7559 693.23047 C 1282.1686 698.80667 1281.7455 741.96008 1281.7266 798.19922 C 1281.6908 904.33701 1281.9279 900.29561 1274.9551 913.59766 C 1266.6102 929.51778 1252.6997 938.97017 1233.6074 941.69336 C 1215.9792 944.20784 1209.6688 946.78458 1205.1367 953.32422 C 1196.8233 965.32063 1198.2149 981.8688 1208.3203 991.18359 C 1213.6196 996.06841 1217.7552 997.97638 1225.5508 999.13477 C 1228.6709 999.60021 1233.0228 999.82173 1235.2227 999.63086 C 1248.6608 998.46419 1252.333 997.89243 1260.543 995.69531 C 1292.8523 987.04874 1322.1031 958.91946 1333.2188 925.80664 C 1339.3399 907.57193 1339.0078 913.9644 1339.7148 800.69922 C 1340.1889 724.76821 1340.6883 695.53805 1341.5625 692.39258 C 1343.9013 683.9781 1349.1908 674.77675 1355.6152 667.94922 C 1364.0564 658.97828 1374.37 653.74674 1386.7227 652.16992 C 1410.8733 649.08685 1420.5258 641.32451 1421.5176 624.18945 C 1422.5567 606.23991 1414.1799 596.41413 1394.7227 592.75781 C 1377.8829 589.59318 1376.0192 589.10089 1369.8008 586.16016 C 1361.7265 582.34151 1351.1111 571.89142 1346.9707 563.6875 C 1339.8461 549.57074 1340.3508 558.00098 1339.7266 442.69922 L 1339.1641 338.69922 L 1336.3457 328.29883 C 1332.597 314.45801 1328.1774 304.23892 1321.5312 294.04297 C 1299.9948 261.00307 1271.4326 244.44529 1235.2227 244.00977 C 1234.4177 244.00008 1233.6368 243.99728 1232.8789 244.00391 z M 993.05078 420.74219 C 990.67837 420.69994 988.99007 421.54102 987.31641 423.11328 C 983.71497 426.49675 983.59249 429.76038 986.71094 439.19922 C 988.25552 443.87438 989.97818 449.27415 990.53906 451.19922 C 991.10013 453.12428 993.20775 460.32418 995.22266 467.19922 C 998.57207 478.62681 1000.9526 487.68808 1002.3164 494.19922 C 1002.6045 495.57425 1003.6851 500.52425 1004.7168 505.19922 C 1018.4268 567.32431 1017.8742 636.23933 1003.1602 699.69922 C 999.66254 714.78418 998.80524 718.14106 995.24023 730.69922 C 993.21044 737.84929 991.08478 745.38665 990.51562 747.44922 C 989.94629 749.51159 989.14158 751.19922 988.72852 751.19922 C 988.31545 751.19922 983.29486 746.81169 977.57031 741.44922 C 965.31881 729.9726 917.67445 686.04899 899.6875 669.625 C 898.74756 668.75832 898.27789 668.31807 896.50195 666.69531 C 896.79164 666.96284 897.40823 667.53591 897.66992 667.77734 C 896.94145 667.11349 895.3881 665.68567 894.80469 665.15625 C 895.24608 665.55884 896.01558 666.25149 896.41797 666.61914 C 893.84941 664.24695 891.02867 661.63987 886.13477 657.08984 C 874.38837 646.14584 869.84243 645.7633 862.04492 655.07031 C 859.45133 658.16631 855.50418 662.74043 853.27539 665.23242 C 851.04679 667.72343 843.37472 676.6864 836.22461 685.15039 C 829.07461 693.6134 814.89982 710.26618 804.72461 722.1582 C 794.54971 734.05018 783.97471 746.41095 781.22461 749.62695 C 778.4747 752.84299 771.81287 760.69891 766.42188 767.08594 C 761.03098 773.47292 756.20411 778.59 755.69531 778.45703 C 755.18674 778.32399 747.67335 772.71897 738.99805 766.00195 C 730.32275 759.28494 715.12478 747.58405 705.22461 739.99805 C 670.05849 713.05406 663.46604 707.72068 641.85156 688.72266 C 620.96295 670.36266 599.63308 648.08622 586.29297 630.69922 C 580.92347 623.70123 567.00992 603.12554 564.67383 598.72852 C 560.78382 591.40451 557.66634 585.82671 556.89062 584.80469 C 556.42923 584.19671 554.15586 579.32461 551.83984 573.97461 C 549.52375 568.62461 546.979 562.99957 546.18359 561.47461 C 545.38819 559.94961 544.73047 558.00339 544.73047 557.15039 C 544.73047 556.29841 544.33063 555.1734 543.84961 554.65039 C 542.90382 553.6244 537.0118 534.83354 534.25781 524.06055 C 532.05371 515.43755 528.60573 511.86523 522.47852 511.86523 C 518.95335 511.86523 512.41113 514.72557 485.70703 527.93555 C 465.67414 537.84454 452.16308 545.1228 450.45508 546.92578 C 447.08948 550.4788 445.72461 554.89361 445.72461 562.22461 C 445.72461 565.26966 445.08214 573.14646 444.29688 579.73047 C 443.51175 586.31346 442.59549 595.52421 442.26172 600.19922 C 441.92799 604.87423 441.01796 615.22419 440.23828 623.19922 C 439.45849 631.17421 438.12185 645.5742 437.26953 655.19922 C 436.41736 664.8242 435.26358 677.42421 434.70508 683.19922 C 434.14677 688.97419 433.2301 699.32422 432.66797 706.19922 C 432.10576 713.07425 430.98653 724.32422 430.18164 731.19922 C 429.37645 738.07418 428.7207 745.90559 428.7207 748.60156 C 428.7207 751.29659 428.07017 759.39657 427.27148 766.60156 C 424.85916 788.35955 423.2878 806.42227 423.36328 811.53125 C 423.50804 821.38625 431.24332 824.22066 443.22461 818.80664 C 446.52451 817.31467 451.0247 815.24499 453.22461 814.20898 C 457.95 811.98299 462.86201 809.79285 475.72461 804.17188 C 480.94962 801.88885 487.69951 798.89838 490.72461 797.52539 C 499.83293 793.38938 501.94554 792.43014 508.72461 789.36914 L 515.22461 786.4375 L 515.90039 817.56641 C 516.27267 834.68944 517.05024 858.37421 517.62695 870.19922 C 518.20363 882.02423 518.9165 901.82421 519.21289 914.19922 C 520.3774 962.82322 521.88066 999.96553 522.90234 1005.3945 C 524.22654 1012.4315 527.04613 1015.4286 532.42383 1015.5176 C 536.38719 1015.5875 538.94872 1014.5046 552.22461 1007.1836 C 559.43931 1003.2046 567.92301 998.62962 577.72461 993.43164 C 587.61503 988.18562 603.6974 979.53548 607.22461 977.56445 C 609.42471 976.33448 613.92451 973.91642 617.22461 972.19141 C 620.52451 970.46741 626.37471 967.36289 630.22461 965.29492 C 634.07459 963.22692 641.55477 959.20828 646.84766 956.36328 L 656.4707 951.19336 L 658.53711 957.94727 C 659.67301 961.66224 662.22839 970.09922 664.2168 976.69922 C 666.20517 983.29922 668.44296 990.49919 669.18945 992.69922 C 669.93587 994.89921 671.51435 1000.0742 672.69727 1004.1992 C 673.88003 1008.3242 675.45527 1013.4992 676.19727 1015.6992 C 676.93945 1017.8992 678.53826 1023.0742 679.74805 1027.1992 C 680.95776 1031.3242 682.60814 1036.9492 683.41602 1039.6992 C 684.22393 1042.4492 685.48459 1046.4992 686.2168 1048.6992 C 686.94908 1050.8992 688.52598 1056.0742 689.72266 1060.1992 C 691.96206 1067.9202 697.95257 1087.6162 700.21484 1094.6992 C 700.91765 1096.8992 701.79275 1100.1062 702.16016 1101.8242 C 702.89165 1105.2462 706.09263 1108.7202 709.22461 1109.4922 C 712.4143 1110.2792 717.04438 1109.1497 719.37109 1107.0156 C 720.55189 1105.9316 724.60196 1099.8614 728.37109 1093.5254 C 732.14038 1087.1884 735.89961 1080.9416 736.72461 1079.6406 C 737.5496 1078.3396 744.22259 1067.4693 751.55469 1055.4863 C 758.88678 1043.5043 771.14382 1023.5742 778.79102 1011.1992 C 786.43863 998.8242 793.0951 987.79921 793.58398 986.69922 C 794.3781 984.9132 794.58504 985.07325 795.51953 988.19922 C 796.09504 990.12425 797.5332 994.17424 798.7168 997.19922 C 799.9002 1000.2243 801.33025 1004.0492 801.89453 1005.6992 C 802.45915 1007.3492 803.55166 1010.1195 804.32227 1011.8535 C 805.09295 1013.5865 805.72461 1015.3741 805.72461 1015.8281 C 805.72461 1016.2831 807.33559 1020.7177 809.30469 1025.6797 C 813.46436 1036.1627 814.75206 1039.5062 817.77734 1047.6992 C 818.99564 1050.9992 820.36961 1054.5992 820.83203 1055.6992 C 821.29442 1056.7992 822.62449 1060.3992 823.78711 1063.6992 C 824.94969 1066.9992 827.41083 1073.5242 829.25781 1078.1992 C 831.10472 1082.8742 833.48928 1089.3404 834.55469 1092.5664 C 836.08534 1097.2001 838.21365 1100.5658 840.75391 1102.5 C 840.75391 1102.5 840.75586 1102.502 840.75586 1102.502 C 841.15682 1103.7706 842.26745 1104.1438 844.04688 1104.4297 C 847.78247 1105.0299 852.12038 1103.3581 854.72266 1100.3145 C 856.09772 1098.7063 861.27268 1091.8829 866.22266 1085.1523 C 880.40072 1065.8744 911.62769 1023.7681 924.57227 1006.4746 C 932.93371 995.30381 932.98193 995.26015 934.66016 997.47461 C 935.58788 998.69831 941.49417 1007.1209 947.78516 1016.1895 C 954.07592 1025.2584 960.47952 1034.483 962.01562 1036.6895 C 963.55155 1038.8956 968.14165 1045.6886 972.21484 1051.7852 C 976.28827 1057.8819 980.30608 1063.4388 981.14453 1064.1348 C 983.75494 1066.3012 989.69192 1065.6869 992.41016 1062.9688 C 995.29038 1060.0885 998.12055 1049.8118 999.64453 1036.7012 C 1000.2199 1031.751 1001.176 1024.5511 1001.7695 1020.7012 C 1004.2862 1004.3713 1005.8414 993.85169 1007.7578 980.20117 C 1009.8325 965.42454 1011.434 954.53366 1014.1504 936.70117 C 1014.9881 931.20117 1016.1641 923.1013 1016.7637 918.70117 C 1017.3632 914.3012 1018.1747 908.90105 1018.5664 906.70117 L 1019.2773 902.70117 L 1021.3672 907.20117 C 1022.5164 909.67623 1024.4443 914.17431 1025.6504 917.19922 C 1028.009 923.11486 1030.1499 928.01936 1032.3457 932.53125 C 1033.1034 934.08834 1033.7227 935.91616 1033.7227 936.59375 C 1033.7227 937.27131 1035.0328 939.08046 1036.6328 940.61328 C 1040.4943 944.3128 1045.9328 944.44431 1049.4531 940.92383 C 1051.7047 938.6724 1052.0058 937.32693 1052.7676 926.07422 C 1054.9098 894.4344 1055.8159 877.6738 1056.7617 852.19922 C 1057.3232 837.07412 1057.9771 824.14496 1058.2148 823.4668 C 1058.4528 822.78867 1059.1395 808.72108 1059.7402 792.20508 C 1060.3408 775.6893 1061.1446 760.3684 1061.5273 758.1582 L 1062.2227 754.13867 L 1071.0781 761.76953 C 1080.1738 769.60748 1083.5377 771.34128 1088 770.48828 C 1091.3213 769.85321 1094.6795 766.24214 1094.8359 763.14062 C 1094.9878 760.11592 1093.1265 744.53791 1091.2578 733.19922 C 1090.4873 728.52425 1089.1186 719.29907 1088.2148 712.69922 C 1087.3109 706.09918 1085.9524 696.64919 1085.1973 691.69922 C 1083.8855 683.10106 1081.293 665.26683 1078.2188 643.69922 C 1077.4347 638.19929 1076.2805 630.32412 1075.6543 626.19922 C 1075.0281 622.07405 1073.9394 614.42426 1073.2344 609.19922 C 1071.5282 596.5505 1069.024 579.36086 1065.2207 554.19922 C 1064.3478 548.42421 1063.2412 540.54935 1062.7617 536.69922 C 1062.282 532.8493 1061.3743 526.32438 1060.7441 522.19922 C 1057.2793 499.51174 1055.229 485.30675 1053.1953 469.89062 C 1050.5674 449.97014 1048.7326 446.80203 1036.2227 440.56445 C 1032.3727 438.64472 1022.2476 433.4395 1013.7227 428.99609 C 1002.8597 423.33403 997.00479 420.8126 993.05078 420.74219 z "
       transform="matrix(0.26458333,0,0,0.26458333,-120.78654,-41.065763)"
       id="path4522"
       inkscape:export-xdpi="200"
       inkscape:export-ydpi="200" />
  </g>
</svg>
