<?xml version="1.0" encoding="UTF-8" standalone="no"?>
<!-- Created with Inkscape (http://www.inkscape.org/) -->

<svg
   xmlns:dc="http://purl.org/dc/elements/1.1/"
   xmlns:cc="http://creativecommons.org/ns#"
   xmlns:rdf="http://www.w3.org/1999/02/22-rdf-syntax-ns#"
   xmlns:svg="http://www.w3.org/2000/svg"
   xmlns="http://www.w3.org/2000/svg"
   xmlns:sodipodi="http://sodipodi.sourceforge.net/DTD/sodipodi-0.dtd"
   xmlns:inkscape="http://www.inkscape.org/namespaces/inkscape"
   width="105.83333mm"
   height="105.83333mm"
   viewBox="0 0 105.83333 105.83333"
   version="1.1"
   id="svg8"
   inkscape:version="0.92.4 (5da689c313, 2019-01-14)"
   sodipodi:docname="hack-club-logo.svg">
  <defs
     id="defs2" />
  <sodipodi:namedview
     id="base"
     pagecolor="#ffffff"
     bordercolor="#666666"
     borderopacity="1.0"
     inkscape:pageopacity="0.0"
     inkscape:pageshadow="2"
     inkscape:zoom="0.49497475"
     inkscape:cx="943.29107"
     inkscape:cy="5.8387173"
     inkscape:document-units="mm"
     inkscape:current-layer="layer1"
     showgrid="false"
     fit-margin-top="0"
     fit-margin-left="0"
     fit-margin-right="0"
     fit-margin-bottom="0"
     inkscape:window-width="1920"
     inkscape:window-height="1016"
     inkscape:window-x="1680"
     inkscape:window-y="27"
     inkscape:window-maximized="1" />
  <metadata
     id="metadata5">
    <rdf:RDF>
      <cc:Work
         rdf:about="">
        <dc:format>image/svg+xml</dc:format>
        <dc:type
           rdf:resource="http://purl.org/dc/dcmitype/StillImage" />
        <dc:title></dc:title>
      </cc:Work>
    </rdf:RDF>
  </metadata>
  <g
     inkscape:label="Layer 1"
     inkscape:groupmode="layer"
     id="layer1"
     transform="translate(215.06852,-125.77682)">
    <path
       style="opacity:1;fill:#e42d40;fill-opacity:1;stroke:none;stroke-width:10.65370369;stroke-linecap:round;stroke-miterlimit:4;stroke-dasharray:none;stroke-dashoffset:0;stroke-opacity:1"
       d="m -767.40039,475.37695 c -25.1831,0 -45.45703,20.27393 -45.45703,45.45703 v 309.08594 c 0,25.18311 20.27393,45.45703 45.45703,45.45703 h 309.08594 c 25.1831,0 45.45703,-20.27392 45.45703,-45.45703 V 520.83398 c 0,-25.1831 -20.27393,-45.45703 -45.45703,-45.45703 z m 132.54297,68.875 v 47.125 c 0,25.91876 0.25676,47.125 0.57031,47.125 0.31332,0 2.45091,-1.28921 4.75,-2.86523 19.9691,-13.68866 49.3536,-16.8898 68.60156,-7.47266 9.63462,4.71379 17.7217,14.39624 21.58203,25.83789 4.12933,12.23898 4.48822,19.20634 4.49219,87.25 l 0.004,65.25 h -28.47852 -28.47851 l -0.27149,-64.25 -0.27148,-64.25 -2.5,-5 c -4.5473,-9.09456 -12.82394,-10.70057 -22.41211,-4.34961 -4.91048,3.25255 -11.85893,12.76197 -13.64453,18.67383 -3.71913,12.31329 -3.87256,14.95177 -3.90821,67.42578 l -0.0332,51.75 h -28 -28 l -0.002,-126.03125 c 0,-99.90969 0.25927,-126.12833 1.25,-126.49804 0.68749,-0.25663 11.825,-2.25089 24.75,-4.43164 12.925,-2.18075 24.96251,-4.26272 26.75,-4.62696 z"
       transform="scale(0.26458333)"
       id="rect830"
       inkscape:connector-curvature="0" />
  </g>
</svg>
