<?xml version="1.0" encoding="UTF-8" standalone="no"?>
<!-- Created with Inkscape (http://www.inkscape.org/) -->

<svg
   xmlns:dc="http://purl.org/dc/elements/1.1/"
   xmlns:cc="http://creativecommons.org/ns#"
   xmlns:rdf="http://www.w3.org/1999/02/22-rdf-syntax-ns#"
   xmlns:svg="http://www.w3.org/2000/svg"
   xmlns="http://www.w3.org/2000/svg"
   xmlns:sodipodi="http://sodipodi.sourceforge.net/DTD/sodipodi-0.dtd"
   xmlns:inkscape="http://www.inkscape.org/namespaces/inkscape"
   width="172.70555mm"
   height="24.022081mm"
   viewBox="0 0 172.70555 24.022081"
   version="1.1"
   id="svg1921"
   inkscape:version="0.92.4 (5da689c313, 2019-01-14)"
   sodipodi:docname="hackprep-white.svg">
  <defs
     id="defs1915" />
  <sodipodi:namedview
     id="base"
     pagecolor="#ffffff"
     bordercolor="#666666"
     borderopacity="1.0"
     inkscape:pageopacity="0.0"
     inkscape:pageshadow="2"
     inkscape:zoom="0.35"
     inkscape:cx="-722.19872"
     inkscape:cy="-186.03252"
     inkscape:document-units="mm"
     inkscape:current-layer="layer1"
     showgrid="false"
     fit-margin-top="0"
     fit-margin-left="0"
     fit-margin-right="0"
     fit-margin-bottom="0"
     inkscape:window-width="1920"
     inkscape:window-height="1016"
     inkscape:window-x="1680"
     inkscape:window-y="27"
     inkscape:window-maximized="1" />
  <metadata
     id="metadata1918">
    <rdf:RDF>
      <cc:Work
         rdf:about="">
        <dc:format>image/svg+xml</dc:format>
        <dc:type
           rdf:resource="http://purl.org/dc/dcmitype/StillImage" />
        <dc:title />
      </cc:Work>
    </rdf:RDF>
  </metadata>
  <g
     inkscape:label="Layer 1"
     inkscape:groupmode="layer"
     id="layer1"
     transform="translate(-19.480555,-75.590148)">
    <g
       transform="matrix(0.33040786,0,0,0.33040786,418.23183,-960.59109)"
       id="g16536"
       inkscape:export-filename="/home/frank/WebstormProjects/VikingsDev.github.io/images/hackpreplogo-white.png"
       inkscape:export-xdpi="73.535515"
       inkscape:export-ydpi="73.535515">
      <g
         aria-label="&gt;HACK"
         style="font-style:normal;font-variant:normal;font-weight:normal;font-stretch:normal;font-size:100.94811249px;line-height:125%;font-family:Tailwind;-inkscape-font-specification:Tailwind;text-align:end;letter-spacing:0px;word-spacing:0px;text-anchor:end;fill:#c69249;fill-opacity:1;stroke:none;stroke-width:2.52370262"
         id="text16530">
        <path
           d="m -1198.7619,3147.4041 22.1317,22.0824 q 1.2816,1.2816 1.2816,3.3518 0,2.0209 -1.2816,3.3025 l -21.5402,21.4416 q -1.3801,1.3802 -3.2039,1.3802 -1.9224,0 -3.4011,-1.4295 -1.4787,-1.4294 -1.4787,-3.3025 0,-1.6759 1.528,-3.2039 l 18.1884,-18.1884 -18.8785,-18.8785 q -1.4294,-1.4294 -1.4294,-3.2532 0,-1.8731 1.4787,-3.3025 1.4788,-1.4294 3.4011,-1.4294 1.7745,0 3.2039,1.4294 z"
           style="font-style:normal;font-variant:normal;font-weight:normal;font-stretch:normal;font-family:Tailwind;-inkscape-font-specification:Tailwind;fill:#c69249;fill-opacity:1;stroke-width:2.52370262"
           id="path3081" />
        <path
           d="m -1122.9029,3136.0672 q 1.873,0 3.2532,1.4294 1.3801,1.3801 1.3801,3.2532 v 63.3883 q 0,1.8731 -1.3801,3.2532 -1.3802,1.3802 -3.2532,1.3802 -1.9224,0 -3.3025,-1.3309 -1.3309,-1.3801 -1.3309,-3.3025 v -28.6874 h -31.3984 v 28.6874 q 0,1.8731 -1.4294,3.2532 -1.3802,1.3802 -3.3518,1.3802 -1.8731,0 -3.2532,-1.3802 -1.3802,-1.3801 -1.3802,-3.2532 v -63.3883 q 0,-1.8731 1.3802,-3.2532 1.3801,-1.4294 3.2532,-1.4294 1.9716,0 3.3518,1.4294 1.4294,1.3801 1.4294,3.2532 v 25.3356 h 31.3984 v -25.3356 q 0,-1.9223 1.3309,-3.3025 1.3801,-1.3801 3.3025,-1.3801 z"
           style="font-style:normal;font-variant:normal;font-weight:normal;font-stretch:normal;font-family:Tailwind;-inkscape-font-specification:Tailwind;fill:#c69249;fill-opacity:1;stroke-width:2.52370262"
           id="path3083" />
        <path
           d="m -1092.3917,3138.3345 q 5.2248,-2.2673 10.9426,-2.2673 5.7177,0 10.9426,2.2673 5.2248,2.2181 9.0203,6.0628 3.8447,3.7955 6.0628,9.0203 2.2674,5.2249 2.2674,10.9426 v 39.7779 q 0,1.8731 -1.3802,3.2532 -1.3801,1.3802 -3.3518,1.3802 -1.8731,0 -3.3025,-1.3802 -1.3801,-1.3801 -1.3801,-3.2532 v -16.5618 h -37.757 v 16.5618 q 0,1.8731 -1.3802,3.2532 -1.3801,1.3802 -3.3517,1.3802 -1.8731,0 -3.2533,-1.3802 -1.3801,-1.3801 -1.3801,-3.2532 v -39.7779 q 0,-5.7177 2.2181,-10.9426 2.2674,-5.2248 6.0628,-9.0203 3.7954,-3.8447 9.0203,-6.0628 z m 24.2512,12.7171 q -5.5206,-5.5699 -13.3086,-5.5699 -7.788,0 -13.3579,5.5699 -5.5206,5.5206 -5.5206,13.3086 v 13.8015 h 37.757 v -13.8015 q 0,-7.788 -5.5699,-13.3086 z"
           style="font-style:normal;font-variant:normal;font-weight:normal;font-stretch:normal;font-family:Tailwind;-inkscape-font-specification:Tailwind;fill:#c69249;fill-opacity:1;stroke-width:2.52370262"
           id="path3085" />
        <path
           d="m -1010.2235,3136.0672 q 8.5766,0 16.31531,3.9432 7.78799,3.894 12.96355,10.7948 0.93653,1.2323 0.93653,2.8589 0,1.873 -1.38015,3.2532 -1.38015,1.3801 -3.35179,1.3801 -2.46456,0 -3.74612,-1.9223 -3.84471,-5.2249 -9.56247,-8.0345 -5.66846,-2.8589 -12.17486,-2.8589 -5.4713,0 -10.4497,2.1196 -4.9784,2.1195 -8.5767,5.767 -3.5982,3.5983 -5.767,8.5767 -2.1196,4.9784 -2.1196,10.499 0,7.295 3.5983,13.5057 3.5982,6.2107 9.8089,9.8582 6.2107,3.5983 13.5058,3.5983 6.5064,0 12.17486,-2.8589 5.71776,-2.8589 9.56247,-8.0837 1.28156,-1.9224 3.74612,-1.9224 1.87306,0 3.3025,1.3802 1.42944,1.3308 1.42944,3.3025 0,1.5773 -0.93653,2.8096 -5.17556,6.9007 -12.96355,10.844 -7.73871,3.894 -16.31531,3.894 -9.8582,0 -18.2377,-4.8305 -8.3302,-4.8799 -13.21,-13.21 -4.8799,-8.3795 -4.8799,-18.287 0,-7.3937 2.8589,-14.1466 2.9082,-6.7528 7.788,-11.5834 4.8798,-4.8798 11.5834,-7.7387 6.7036,-2.9081 14.0973,-2.9081 z"
           style="font-style:normal;font-variant:normal;font-weight:normal;font-stretch:normal;font-family:Tailwind;-inkscape-font-specification:Tailwind;fill:#c69249;fill-opacity:1;stroke-width:2.52370262"
           id="path3087" />
        <path
           d="m -928.20319,3136.0672 q 1.87306,0 3.25321,1.4294 1.38015,1.3801 1.38015,3.2532 0,9.1681 -4.4362,16.9561 -4.4362,7.788 -11.92844,12.52 9.4146,4.7812 15.08307,13.9 5.71776,9.0696 5.71776,20.0122 0,1.8731 -1.38015,3.2532 -1.38015,1.3802 -3.25321,1.3802 -1.92235,0 -3.3025,-1.3309 -1.33086,-1.3801 -1.33086,-3.3025 0,-5.8163 -2.31668,-11.1398 -2.26739,-5.3234 -6.11209,-9.1681 -3.84471,-3.8447 -9.16814,-6.1121 -5.27415,-2.2674 -11.09049,-2.2674 h -7.04862 v 28.6874 q 0,1.8731 -1.42945,3.2532 -1.38015,1.3802 -3.35179,1.3802 -1.87306,0 -3.25321,-1.3802 -1.38015,-1.3801 -1.38015,-3.2532 v -63.3883 q 0,-1.8731 1.38015,-3.2532 1.38015,-1.4294 3.25321,-1.4294 1.97164,0 3.35179,1.4294 1.42945,1.3801 1.42945,3.2532 v 25.3356 h 5.81634 q 6.90075,0 12.76639,-3.3518 5.86564,-3.4011 9.26672,-9.2174 3.45037,-5.8656 3.45037,-12.7664 0,-1.9223 1.33086,-3.3025 1.38015,-1.3801 3.30251,-1.3801 z"
           style="font-style:normal;font-variant:normal;font-weight:normal;font-stretch:normal;font-family:Tailwind;-inkscape-font-specification:Tailwind;fill:#c69249;fill-opacity:1;stroke-width:2.52370262"
           id="path3089" />
      </g>
      <g
         aria-label="PREP"
         style="font-style:normal;font-variant:normal;font-weight:normal;font-stretch:normal;font-size:100.94811249px;line-height:125%;font-family:Tailwind;-inkscape-font-specification:Tailwind;text-align:end;letter-spacing:0px;word-spacing:0px;text-anchor:end;fill:#ffffff;fill-opacity:1;stroke:none;stroke-width:2.52370262"
         id="text16534">
        <path
           d="m -904.42327,3136.0672 h 24.05404 q 6.45713,0 11.92844,3.2039 5.5206,3.2039 8.72452,8.7245 3.25321,5.5206 3.25321,12.027 0,6.5064 -3.25321,12.027 -3.20392,5.4713 -8.72452,8.6753 -5.47131,3.2039 -11.92844,3.2039 h -19.27281 v 20.2093 q 0,1.8731 -1.42944,3.2532 -1.38015,1.3802 -3.35179,1.3802 -1.87306,0 -3.25321,-1.3802 -1.38015,-1.3801 -1.38015,-3.2532 v -63.3883 q 0,-1.8731 1.38015,-3.2532 1.38015,-1.4294 3.25321,-1.4294 z m 24.05404,9.4145 h -19.27281 v 29.1804 h 19.27281 q 6.01351,0 10.25254,-4.2884 4.28832,-4.2883 4.28832,-10.3511 0,-6.0628 -4.28832,-10.3018 -4.23903,-4.2391 -10.25254,-4.2391 z"
           style="font-style:normal;font-variant:normal;font-weight:normal;font-stretch:normal;font-family:Tailwind;-inkscape-font-specification:Tailwind;fill:#ffffff;fill-opacity:1;stroke-width:2.52370262"
           id="path3092" />
        <path
           d="m -844.6825,3136.0672 h 26.56789 q 8.87239,0 15.13236,6.2599 6.25996,6.26 6.25996,15.0831 0,7.4922 -4.68265,13.3086 -4.68265,5.767 -11.78056,7.4429 l 15.57597,23.364 q 0.78866,1.2816 0.78866,2.5138 0,1.8238 -1.42944,3.3025 -1.38015,1.4295 -3.3025,1.4295 -2.51385,0 -3.8447,-2.1195 l -18.58274,-27.8495 h -15.92101 v 25.3356 q 0,1.8731 -1.42944,3.2532 -1.38015,1.3802 -3.3518,1.3802 -1.87306,0 -3.25321,-1.3802 -1.38015,-1.3801 -1.38015,-3.2532 v -63.3883 q 0,-1.8731 1.38015,-3.2532 1.38015,-1.4294 3.25321,-1.4294 z m 26.56789,9.4145 h -21.78665 v 23.9062 h 21.78665 q 4.9784,0 8.47806,-3.4996 3.54896,-3.4997 3.54896,-8.4781 0,-4.9291 -3.54896,-8.4288 -3.49966,-3.4997 -8.47806,-3.4997 z"
           style="font-style:normal;font-variant:normal;font-weight:normal;font-stretch:normal;font-family:Tailwind;-inkscape-font-specification:Tailwind;fill:#ffffff;fill-opacity:1;stroke-width:2.52370262"
           id="path3094" />
        <path
           d="m -784.94172,3136.0672 h 36.57397 q 1.87306,0 3.25321,1.4294 1.38015,1.3801 1.38015,3.2532 0,1.9716 -1.38015,3.3518 -1.38015,1.3801 -3.25321,1.3801 h -31.79274 v 20.6037 h 24.10334 q 1.97164,0 3.3025,1.3802 1.33086,1.3801 1.33086,3.3518 0,1.9223 -1.38015,3.3025 -1.33086,1.3308 -3.25321,1.3308 h -24.10334 v 23.9555 h 31.79274 q 1.87306,0 3.25321,1.3801 1.38015,1.3802 1.38015,3.3518 0,1.8731 -1.38015,3.2532 -1.38015,1.3802 -3.25321,1.3802 h -36.57397 q -1.87306,0 -3.25321,-1.3802 -1.38015,-1.3801 -1.38015,-3.2532 v -63.3883 q 0,-1.8731 1.38015,-3.2532 1.38015,-1.4294 3.25321,-1.4294 z"
           style="font-style:normal;font-variant:normal;font-weight:normal;font-stretch:normal;font-family:Tailwind;-inkscape-font-specification:Tailwind;fill:#ffffff;fill-opacity:1;stroke-width:2.52370262"
           id="path3096" />
        <path
           d="m -732.10169,3136.0672 h 24.05404 q 6.45713,0 11.92844,3.2039 5.5206,3.2039 8.72452,8.7245 3.25321,5.5206 3.25321,12.027 0,6.5064 -3.25321,12.027 -3.20392,5.4713 -8.72452,8.6753 -5.47131,3.2039 -11.92844,3.2039 h -19.27281 v 20.2093 q 0,1.8731 -1.42944,3.2532 -1.38015,1.3802 -3.35179,1.3802 -1.87307,0 -3.25322,-1.3802 -1.38015,-1.3801 -1.38015,-3.2532 v -63.3883 q 0,-1.8731 1.38015,-3.2532 1.38015,-1.4294 3.25322,-1.4294 z m 24.05404,9.4145 h -19.27281 v 29.1804 h 19.27281 q 6.01351,0 10.25254,-4.2884 4.28832,-4.2883 4.28832,-10.3511 0,-6.0628 -4.28832,-10.3018 -4.23903,-4.2391 -10.25254,-4.2391 z"
           style="font-style:normal;font-variant:normal;font-weight:normal;font-stretch:normal;font-family:Tailwind;-inkscape-font-specification:Tailwind;fill:#ffffff;fill-opacity:1;stroke-width:2.52370262"
           id="path3098" />
      </g>
    </g>
  </g>
</svg>
