<?xml version="1.0" encoding="UTF-8" standalone="no"?>
<svg
   xmlns:dc="http://purl.org/dc/elements/1.1/"
   xmlns:cc="http://creativecommons.org/ns#"
   xmlns:rdf="http://www.w3.org/1999/02/22-rdf-syntax-ns#"
   xmlns:svg="http://www.w3.org/2000/svg"
   xmlns="http://www.w3.org/2000/svg"
   xmlns:sodipodi="http://sodipodi.sourceforge.net/DTD/sodipodi-0.dtd"
   xmlns:inkscape="http://www.inkscape.org/namespaces/inkscape"
   width="5in"
   height="1.25in"
   viewBox="0 0 480 120"
   version="1.1"
   id="svg959"
   sodipodi:docname="nwhacks.svg"
   style="fill:none"
   inkscape:version="0.92.4 (5da689c313, 2019-01-14)">
  <metadata
     id="metadata963">
    <rdf:RDF>
      <cc:Work
         rdf:about="">
        <dc:format>image/svg+xml</dc:format>
        <dc:type
           rdf:resource="http://purl.org/dc/dcmitype/StillImage" />
        <dc:title></dc:title>
      </cc:Work>
    </rdf:RDF>
  </metadata>
  <sodipodi:namedview
     pagecolor="#ffffff"
     bordercolor="#666666"
     borderopacity="1"
     objecttolerance="10"
     gridtolerance="10"
     guidetolerance="10"
     inkscape:pageopacity="0"
     inkscape:pageshadow="2"
     inkscape:window-width="1920"
     inkscape:window-height="1016"
     id="namedview961"
     showgrid="false"
     units="in"
     width="5in"
     inkscape:zoom="1.7554337"
     inkscape:cx="287.67011"
     inkscape:cy="2.5578172"
     inkscape:window-x="1680"
     inkscape:window-y="27"
     inkscape:window-maximized="1"
     inkscape:current-layer="svg959" />
  <g
     id="g979"
     transform="translate(210.00025,-17.00005)">
    <rect
       style="fill:#000000;fill-opacity:0;stroke-width:2"
       y="34"
       x="0"
       id="rect909"
       height="86"
       width="59.999401" />
    <rect
       style="fill:#000000;fill-opacity:0;stroke-width:2"
       y="34"
       x="0"
       id="rect911"
       height="86"
       width="59.999401" />
    <rect
       style="fill:#000000;fill-opacity:0;stroke-width:2"
       y="34"
       x="0"
       id="rect913"
       height="73.407402"
       width="59.658199" />
    <path
       style="clip-rule:evenodd;fill:url(#paint0_linear);fill-rule:evenodd"
       inkscape:connector-curvature="0"
       id="path915"
       d="m 49.4844,44.048602 10.1727,-10.0486 6e-4,72.351198 -9.9152,-9.8748 z" />
    <path
       style="clip-rule:evenodd;fill:url(#paint1_linear);fill-rule:evenodd"
       inkscape:connector-curvature="0"
       id="path917"
       d="m 0.655273,48.068002 v -14.068 L 59.6572,92.2819 v 14.068 z" />
    <path
       style="clip-rule:evenodd;fill:url(#paint2_linear);fill-rule:evenodd"
       inkscape:connector-curvature="0"
       id="path919"
       d="M 0.655273,34.502199 10.828,44.048402 V 96.3011 L 0.655273,106.3497 Z" />
    <path
       style="clip-rule:evenodd;fill:url(#paint3_linear);fill-rule:evenodd"
       inkscape:connector-curvature="0"
       id="path921"
       d="M 0.655536,106.35 25.5788,82.2334 18.4579,75.1994 0.655971,91.7796 Z" />
    <path
       style="fill:#06c1c0"
       inkscape:connector-curvature="0"
       id="path923"
       d="m 4.82206,112.53 v 5.3177 L 1.7565,112.53 H 0.496094 v 7.3857 H 1.67105 v -5.2966 l 3.06556,5.2966 h 1.2604 V 112.53 Z" />
    <path
       style="fill:#06c1c0"
       inkscape:connector-curvature="0"
       id="path925"
       d="m 17.0393,112.53 -1.3672,5.7397 -1.4847,-4.959 h -1.0681 l -1.4847,4.959 -1.3673,-5.7397 h -1.239 l 1.9761,7.3857 h 1.1963 l 1.4526,-4.6847 1.4527,4.6847 h 1.1963 l 1.9761,-7.3857 z" />
    <path
       style="fill:#06c1c0"
       inkscape:connector-curvature="0"
       id="path927"
       d="m 21.1009,119.9157 h 1.1749 v -3.3974 h 3.0336 v 3.3974 h 1.1749 V 112.53 h -1.1749 v 2.8909 H 22.2758 V 112.53 h -1.1749 z" />
    <path
       style="fill:#06c1c0"
       inkscape:connector-curvature="0"
       id="path929"
       d="m 31.8288,112.53 -2.5956,7.3857 h 1.1963 l 0.6195,-1.8359 h 2.6704 l 0.6195,1.8359 h 1.1963 L 32.9397,112.53 Z m 0.5554,1.4666 0.9827,2.9859 h -1.9654 z" />
    <path
       style="fill:#06c1c0"
       inkscape:connector-curvature="0"
       id="path931"
       d="m 44.319,114.6824 c -0.3845,-1.3928 -1.4313,-2.2368 -3.0228,-2.2368 -1.8051,0 -3.4608,1.2766 -3.4608,3.7772 0,2.5006 1.6557,3.7773 3.4608,3.7773 1.5915,0 2.6383,-0.8441 3.0228,-2.2368 l -1.1108,-0.2744 c -0.3739,0.9391 -0.8973,1.4139 -1.912,1.4139 -1.2604,0 -2.2645,-0.8757 -2.2645,-2.68 0,-1.8042 1.0041,-2.6799 2.2645,-2.6799 1.0147,0 1.5381,0.4748 1.912,1.4138 z" />
    <path
       style="fill:#06c1c0"
       inkscape:connector-curvature="0"
       id="path933"
       d="m 47.3767,112.53 v 7.3857 h 1.175 v -3.619 l 2.8412,3.619 h 1.5061 l -3.2578,-4.0833 3.0121,-3.3024 H 51.222 l -2.6703,2.8382 V 112.53 Z" />
    <path
       style="fill:#06c1c0"
       inkscape:connector-curvature="0"
       id="path935"
       d="m 59.6364,113.6906 c -0.3952,-0.6964 -1.0361,-1.245 -2.0615,-1.245 -1.0895,0 -1.9547,0.8229 -1.9547,1.9413 0,2.2791 3.183,1.9625 3.183,3.408 0,0.6542 -0.47,1.1079 -1.1429,1.1079 -0.8545,0 -1.2924,-0.7386 -1.5061,-1.5616 l -0.9613,0.6014 c 0.2671,1.1818 1.1536,2.0575 2.4674,2.0575 1.3459,0 2.3392,-0.8968 2.3392,-2.2474 0,-2.279 -3.2044,-1.9941 -3.2044,-3.4502 0,-0.4326 0.2991,-0.8018 0.7798,-0.8018 0.4379,0 0.8118,0.2532 1.1108,0.8124 z" />
  </g>
  <defs
     id="defs957">
    <linearGradient
       id="paint0_linear"
       x1="50.836601"
       y1="3.66906"
       x2="50.836601"
       y2="72.6297"
       gradientUnits="userSpaceOnUse"
       gradientTransform="translate(0,34.000002)">
      <stop
         stop-color="#91E9EE"
         id="stop937" />
      <stop
         offset="1"
         stop-color="#06C1C0"
         id="stop939" />
    </linearGradient>
    <linearGradient
       id="paint1_linear"
       x1="8.4976101"
       y1="3.6689899"
       x2="8.4976101"
       y2="72.628502"
       gradientUnits="userSpaceOnUse"
       gradientTransform="translate(0,34.000002)">
      <stop
         stop-color="#91E9EE"
         id="stop942" />
      <stop
         offset="1"
         stop-color="#06C1C0"
         id="stop944" />
    </linearGradient>
    <linearGradient
       id="paint2_linear"
       x1="2.0074"
       y1="4.14571"
       x2="2.0074"
       y2="72.626297"
       gradientUnits="userSpaceOnUse"
       gradientTransform="translate(0,34.000002)">
      <stop
         stop-color="#91E9EE"
         id="stop947" />
      <stop
         offset="1"
         stop-color="#06C1C0"
         id="stop949" />
    </linearGradient>
    <linearGradient
       id="paint3_linear"
       x1="4.6135702"
       y1="42.203899"
       x2="3.26301"
       y2="72.588898"
       gradientUnits="userSpaceOnUse"
       gradientTransform="translate(0,34.000002)">
      <stop
         stop-color="#91E9EE"
         id="stop952" />
      <stop
         offset="1"
         stop-color="#06C1C0"
         id="stop954" />
    </linearGradient>
  </defs>
</svg>
