<?xml version="1.0" encoding="UTF-8" standalone="no"?>
<!-- Created with Inkscape (http://www.inkscape.org/) -->

<svg
   xmlns:dc="http://purl.org/dc/elements/1.1/"
   xmlns:cc="http://creativecommons.org/ns#"
   xmlns:rdf="http://www.w3.org/1999/02/22-rdf-syntax-ns#"
   xmlns:svg="http://www.w3.org/2000/svg"
   xmlns="http://www.w3.org/2000/svg"
   xmlns:sodipodi="http://sodipodi.sourceforge.net/DTD/sodipodi-0.dtd"
   xmlns:inkscape="http://www.inkscape.org/namespaces/inkscape"
   width="67.15847mm"
   height="46.976601mm"
   viewBox="0 0 67.15847 46.976601"
   version="1.1"
   id="svg8"
   inkscape:version="0.92.4 (5da689c313, 2019-01-14)"
   sodipodi:docname="youtube-logo.svg">
  <defs
     id="defs2" />
  <sodipodi:namedview
     id="base"
     pagecolor="#ffffff"
     bordercolor="#666666"
     borderopacity="1.0"
     inkscape:pageopacity="0.0"
     inkscape:pageshadow="2"
     inkscape:zoom="0.98994949"
     inkscape:cx="184.87881"
     inkscape:cy="61.570648"
     inkscape:document-units="mm"
     inkscape:current-layer="layer1"
     showgrid="false"
     fit-margin-top="0"
     fit-margin-left="0"
     fit-margin-right="0"
     fit-margin-bottom="0"
     inkscape:window-width="1920"
     inkscape:window-height="1016"
     inkscape:window-x="1680"
     inkscape:window-y="27"
     inkscape:window-maximized="1" />
  <metadata
     id="metadata5">
    <rdf:RDF>
      <cc:Work
         rdf:about="">
        <dc:format>image/svg+xml</dc:format>
        <dc:type
           rdf:resource="http://purl.org/dc/dcmitype/StillImage" />
        <dc:title></dc:title>
      </cc:Work>
    </rdf:RDF>
  </metadata>
  <g
     inkscape:label="Layer 1"
     inkscape:groupmode="layer"
     id="layer1"
     transform="translate(257.49745,-169.96523)">
    <path
       style="fill:#c69249;stroke-width:0.26458332;fill-opacity:1"
       d="m -239.28654,216.84488 c -3.71172,-0.16027 -8.68241,-0.65728 -10.31875,-1.03176 -3.20924,-0.73443 -5.59376,-2.96773 -6.50108,-6.0888 -2.03858,-7.01246 -1.7792,-28.67638 0.40238,-33.60821 0.70103,-1.5848 2.48407,-3.41678 4.07688,-4.18879 2.58656,-1.25367 7.97126,-1.70312 22.9239,-1.91339 17.36898,-0.24426 29.29341,0.43892 32.3878,1.85558 2.22747,1.01977 3.94883,3.06948 4.69752,5.59358 1.05916,3.57083 1.64154,17.58444 1.03076,24.80292 -0.59662,7.05101 -1.39686,9.60087 -3.63004,11.56659 -2.11011,1.85739 -4.59332,2.43951 -12.39333,2.90524 -3.37167,0.20132 -28.58015,0.2839 -32.67604,0.10704 z m 17.41679,-18.46577 c 6.26438,-3.61502 8.16309,-4.82685 7.91402,-5.05103 -0.18023,-0.16222 -3.72097,-2.23974 -7.86831,-4.61672 -4.14734,-2.37697 -7.80852,-4.49325 -8.13594,-4.70283 l -0.59531,-0.38106 v 9.84206 c 0,5.41314 0.0999,9.80238 0.22192,9.75387 0.12205,-0.0485 3.93068,-2.22844 8.46362,-4.84429 z"
       id="path1491"
       inkscape:connector-curvature="0"
       sodipodi:nodetypes="scsccssccssssssccscs" />
  </g>
</svg>
