<?xml version="1.0" encoding="UTF-8" standalone="no"?>
<svg
   xmlns:dc="http://purl.org/dc/elements/1.1/"
   xmlns:cc="http://creativecommons.org/ns#"
   xmlns:rdf="http://www.w3.org/1999/02/22-rdf-syntax-ns#"
   xmlns:svg="http://www.w3.org/2000/svg"
   xmlns="http://www.w3.org/2000/svg"
   xmlns:sodipodi="http://sodipodi.sourceforge.net/DTD/sodipodi-0.dtd"
   xmlns:inkscape="http://www.inkscape.org/namespaces/inkscape"
   height="682.66669pt"
   viewBox="-21 -21 682.66669 682.66669"
   width="682.66669pt"
   version="1.1"
   id="svg215"
   sodipodi:docname="004-treasure.svg"
   inkscape:version="0.92.4 (5da689c313, 2019-01-14)">
  <metadata
     id="metadata221">
    <rdf:RDF>
      <cc:Work
         rdf:about="">
        <dc:format>image/svg+xml</dc:format>
        <dc:type
           rdf:resource="http://purl.org/dc/dcmitype/StillImage" />
      </cc:Work>
    </rdf:RDF>
  </metadata>
  <defs
     id="defs219" />
  <sodipodi:namedview
     pagecolor="#ffffff"
     bordercolor="#666666"
     borderopacity="1"
     objecttolerance="10"
     gridtolerance="10"
     guidetolerance="10"
     inkscape:pageopacity="0"
     inkscape:pageshadow="2"
     inkscape:window-width="1680"
     inkscape:window-height="1013"
     id="namedview217"
     showgrid="false"
     inkscape:snap-page="false"
     inkscape:zoom="0.25927734"
     inkscape:cx="728.94917"
     inkscape:cy="455.11112"
     inkscape:window-x="0"
     inkscape:window-y="0"
     inkscape:window-maximized="1"
     inkscape:current-layer="svg215" />
  <path
     d="m588.042969 640h-536.085938c-16.832031-.035156-30.769531-13.078125-31.921875-29.867188l-18.488281-277.335937c-.589844-8.832031 2.507813-17.519531 8.554687-23.988281 6.054688-6.46875 14.511719-10.140625 23.371094-10.140625h573.054688c8.859375 0 17.316406 3.671875 23.371094 10.140625 6.046874 6.46875 9.144531 15.15625 8.554687 23.988281l-18.488281 277.335937c-1.152344 16.789063-15.089844 29.832032-31.921875 29.867188zm-554.570313-320c-2.957031-.003906-5.78125 1.214844-7.804687 3.367188-2.019531 2.15625-3.054688 5.054687-2.859375 8.003906l18.480468 277.335937c.371094 5.609375 5.042969 9.96875 10.667969 9.960938h536.085938c5.625.011719 10.292969-4.339844 10.667969-9.953125l18.480468-277.332032c.195313-2.949218-.839844-5.84375-2.859375-8.003906-2.023437-2.152344-4.847656-3.375-7.804687-3.371094zm0 0"
     id="path161"
     style="fill:#c69249;fill-opacity:1" />
  <path
     d="m538.171875 576h-436.34375c-11.242187-.007812-20.558594-8.703125-21.339844-19.914062l-11.378906-170.664063c-.394531-5.898437 1.679687-11.703125 5.726563-16.011719 4.039062-4.316406 9.695312-6.757812 15.609374-6.746094h165.554688c5.890625 0 10.664062 4.777344 10.664062 10.671876 0 5.886718-4.773437 10.664062-10.664062 10.664062h-165.554688l11.382813 170.667969h436.34375l11.382813-170.667969h-165.554688c-5.890625 0-10.664062-4.777344-10.664062-10.664062 0-5.894532 4.773437-10.671876 10.664062-10.671876h165.554688c5.917968-.011718 11.574218 2.433594 15.617187 6.75 4.042969 4.3125 6.117187 10.113282 5.71875 16.015626l-11.378906 170.664062c-.785157 11.207031-10.101563 19.902344-21.339844 19.90625zm0 0"
     id="path163"
     style="fill:#c69249;fill-opacity:1" />
  <path
     d="m629.332031 149.332031h-618.664062c-5.894531 0-10.667969-4.777343-10.667969-10.664062v-10.667969c.078125-70.660156 57.339844-127.921875 128-128h384c70.660156.078125 127.921875 57.339844 128 128v10.667969c0 5.886719-4.773438 10.664062-10.667969 10.664062zm-608-21.332031h597.335938c-.066407-58.882812-47.785157-106.601562-106.667969-106.667969h-384c-58.882812.066407-106.601562 47.785157-106.667969 106.667969zm0 0"
     id="path165"
     style="fill:#c69249;fill-opacity:1" />
  <path
     d="m576 149.332031h-512c-5.890625 0-10.664062-4.777343-10.664062-10.664062v-21.332031c0-71.277344 54.398437-117.335938 138.664062-117.335938h256c84.265625 0 138.664062 46.058594 138.664062 117.335938v21.332031c0 5.886719-4.773437 10.664062-10.664062 10.664062zm-501.332031-21.332031h490.664062v-10.664062c0-70.789063-60.613281-96.003907-117.332031-96.003907h-256c-56.71875 0-117.332031 25.214844-117.332031 96.003907zm0 0"
     id="path167"
     style="fill:#c69249;fill-opacity:1" />
  <path
     d="m320 469.332031c-41.214844-.042969-74.617188-33.449219-74.667969-74.664062v-85.335938c0-5.890625 4.777344-10.664062 10.667969-10.664062h128c5.890625 0 10.667969 4.773437 10.667969 10.664062v85.335938c-.050781 41.214843-33.453125 74.621093-74.667969 74.664062zm-53.335938-149.332031v74.667969c0 29.453125 23.882813 53.332031 53.335938 53.332031s53.335938-23.878906 53.335938-53.332031v-74.667969zm0 0"
     id="path169"
     style="fill:#c69249;fill-opacity:1" />
  <path
     d="m320 405.332031c-17.671875 0-32-14.324219-32-31.996093 0-17.675782 14.328125-32.003907 32-32.003907s32 14.328125 32 32.003907c0 17.671874-14.328125 31.996093-32 31.996093zm0-42.667969c-5.890625 0-10.667969 4.777344-10.667969 10.671876 0 5.886718 4.777344 10.664062 10.667969 10.664062s10.667969-4.777344 10.667969-10.664062c0-5.894532-4.777344-10.671876-10.667969-10.671876zm0 0"
     id="path171"
     style="fill:#c69249;fill-opacity:1" />
  <path
     d="m568.636719 106.664062h-497.273438c-5.894531 0-10.667969-4.773437-10.667969-10.664062s4.773438-10.667969 10.667969-10.667969h497.273438c5.894531 0 10.667969 4.777344 10.667969 10.667969s-4.773438 10.664062-10.667969 10.664062zm0 0"
     id="path173"
     style="fill:#c69249;fill-opacity:1" />
  <path
     d="m543.46875 64h-446.9375c-5.886719 0-10.667969-4.777344-10.667969-10.664062 0-5.894532 4.78125-10.671876 10.667969-10.671876h446.9375c5.886719 0 10.667969 4.777344 10.667969 10.671876 0 5.886718-4.78125 10.664062-10.667969 10.664062zm0 0"
     id="path175"
     style="fill:#c69249;fill-opacity:1" />
  <path
     d="m320 426.664062c-5.890625 0-10.667969-4.773437-10.667969-10.664062v-21.332031c0-5.894531 4.777344-10.667969 10.667969-10.667969s10.667969 4.773438 10.667969 10.667969v21.332031c0 5.890625-4.777344 10.664062-10.667969 10.664062zm0 0"
     id="path177"
     style="fill:#c69249;fill-opacity:1" />
  <path
     d="m556.695312 448h-189.121093c-5.890625 0-10.667969-4.777344-10.667969-10.664062 0-5.894532 4.777344-10.671876 10.667969-10.671876h189.121093c5.886719 0 10.664063 4.777344 10.664063 10.671876 0 5.886718-4.777344 10.664062-10.664063 10.664062zm0 0"
     id="path179"
     style="fill:#c69249;fill-opacity:1" />
  <path
     d="m272.425781 448h-189.121093c-5.886719 0-10.664063-4.777344-10.664063-10.664062 0-5.894532 4.777344-10.671876 10.664063-10.671876h189.121093c5.890625 0 10.667969 4.777344 10.667969 10.671876 0 5.886718-4.777344 10.664062-10.667969 10.664062zm0 0"
     id="path181"
     style="fill:#c69249;fill-opacity:1" />
  <path
     d="m552.425781 512h-464.851562c-5.890625 0-10.667969-4.773438-10.667969-10.667969 0-5.886719 4.777344-10.664062 10.667969-10.664062h464.851562c5.890625 0 10.667969 4.777343 10.667969 10.664062 0 5.894531-4.777344 10.667969-10.667969 10.667969zm0 0"
     id="path183"
     style="fill:#c69249;fill-opacity:1" />
  <path
     d="m398.75 235.734375c-1.210938 0-2.414062-.210937-3.550781-.621094l-.394531-.09375c-3.703126-.902343-6.644532-3.714843-7.714844-7.371093-1.070313-3.664063-.105469-7.613282 2.527344-10.375 2.632812-2.75 6.539062-3.894532 10.246093-2.992188l.703125.179688c1.035156.257812 2.042969.613281 3.007813 1.070312 5.238281 2.742188 7.289062 9.191406 4.59375 14.453125-1.824219 3.515625-5.453125 5.734375-9.417969 5.75zm0 0"
     id="path185"
     style="fill:#c69249;fill-opacity:1" />
  <path
     d="m554.667969 320c-1.46875.003906-2.925781-.304688-4.269531-.898438-2.589844-1.128906-4.625-3.246093-5.664063-5.878906-1.027344-2.636718-.96875-5.574218.164063-8.167968l74.664062-170.664063c2.46875-5.210937 8.625-7.515625 13.910156-5.210937 5.28125 2.308593 7.773438 8.394531 5.628906 13.746093l-74.664062 170.664063c-1.695312 3.890625-5.53125 6.40625-9.769531 6.410156zm0 0"
     id="path187"
     style="fill:#c69249;fill-opacity:1" />
  <path
     d="m238.9375 231.570312c-5.457031.007813-10.03125-4.101562-10.617188-9.515624-.585937-5.417969 3.007813-10.410157 8.328126-11.570313 38.054687-8.21875 77.21875-9.96875 115.851562-5.171875 5.804688.78125 9.898438 6.101562 9.15625 11.914062-.738281 5.8125-6.027344 9.941407-11.84375 9.25-36.203125-4.476562-72.902344-2.835937-108.5625 4.851563-.761719.164063-1.539062.25-2.3125.242187zm0 0"
     id="path189"
     style="fill:#c69249;fill-opacity:1" />
  <path
     d="m85.332031 320c-4.242187 0-8.082031-2.507812-9.78125-6.402344l-74.667969-170.664062c-2.140624-5.351563.351563-11.433594 5.636719-13.746094 5.28125-2.304688 11.441407 0 13.90625 5.210938l74.667969 170.671874c2.351562 5.390626-.101562 11.671876-5.492188 14.03125-1.34375.59375-2.800781.902344-4.269531.898438zm0 0"
     id="path191"
     style="fill:#c69249;fill-opacity:1" />
  <path
     d="m528.085938 312.066406c-1.910157-.003906-3.78125-.511718-5.421876-1.484375l-179.699218-106.152343c-3.714844-2.199219-5.746094-6.417969-5.136719-10.6875.605469-4.28125 3.730469-7.765626 7.910156-8.835938l51.964844-13.363281c2.742187-.71875 5.65625-.308594 8.085937 1.136719l40.695313 24.042968.152344.097656 73.515625 43.421876c2.433594 1.441406 4.199218 3.789062 4.902344 6.53125l13.367187 51.96875c.820313 3.191406.117187 6.589843-1.902344 9.191406-2.023437 2.609375-5.136719 4.132812-8.433593 4.132812zm-152.09375-112.910156 135.34375 80-5.84375-22.75-36.8125-21.738281-.234376-.140625-69.703124-41.183594zm0 0"
     id="path193"
     style="fill:#c69249;fill-opacity:1" />
  <path
     d="m434.679688 320c-4.5.007812-8.515626-2.804688-10.050782-7.03125s-.25-8.964844 3.214844-11.835938l39.1875-32.585937-10.5625-41.15625-11.734375-6.976563c-.296875-.136718-.59375-.296874-.898437-.46875l-48.933594-28.894531c-5.078125-2.996093-6.761719-9.53125-3.769532-14.609375 2.988282-5.074218 9.53125-6.761718 14.605469-3.769531l48.171875 28.4375c.316406.148437.628906.320313.929688.492187l16.316406 9.71875c2.421875 1.433594 4.179688 3.773438 4.890625 6.5l13.328125 51.960938c1.023438 3.988281-.34375 8.210938-3.511719 10.847656l-44.371093 36.90625c-1.914063 1.589844-4.324219 2.464844-6.8125 2.464844zm0 0"
     id="path195"
     style="fill:#c69249;fill-opacity:1" />
  <path
     d="m381.023438 320c-.679688 0-1.367188-.0625-2.039063-.191406-5.777344-1.117188-9.5625-6.707032-8.445313-12.488282l16.429688-85.125c.773438-4.039062 3.808594-7.273437 7.792969-8.308593l51.839843-13.4375c2.792969-.703125 5.746094-.292969 8.238282 1.152343l65.257812 38.601563c5.066406 3 6.753906 9.542969 3.753906 14.609375-2.996093 5.074219-9.539062 6.753906-14.613281 3.757812l-61.503906-36.375-41.097656 10.671876-15.171875 78.480468c-.960938 5.011719-5.335938 8.636719-10.441406 8.652344zm0 0"
     id="path197"
     style="fill:#c69249;fill-opacity:1" />
  <path
     d="m363.511719 320c-5.347657-.007812-9.863281-3.96875-10.5625-9.265625l-15.144531-114.136719c-.617188-5.753906 3.464843-10.953125 9.203124-11.710937 5.734376-.761719 11.03125 3.191406 11.9375 8.90625l15.148438 114.132812c.402344 3.050781-.53125 6.121094-2.554688 8.4375-2.027343 2.3125-4.953124 3.636719-8.027343 3.636719zm0 0"
     id="path199"
     style="fill:#c69249;fill-opacity:1" />
  <path
     d="m507.84375 320c-5.140625.003906-9.542969-3.652344-10.496094-8.695312-.945312-5.046876 1.835938-10.050782 6.621094-11.914063l20.265625-7.890625c5.460937-2.050781 11.5625.671875 13.679687 6.109375 2.125 5.4375-.515624 11.570313-5.925781 13.761719l-20.265625 7.902344c-1.238281.476562-2.550781.726562-3.878906.726562zm0 0"
     id="path201"
     style="fill:#c69249;fill-opacity:1" />
  <path
     d="m273.714844 320c-.648438.003906-1.296875-.058594-1.9375-.179688-5.785156-1.078124-9.605469-6.640624-8.535156-12.429687l8.265624-44.714844-56.136718-47.902343-69.554688 24.53125-13.273437 71.90625c-.6875 3.75-3.324219 6.839843-6.917969 8.121093-3.589844 1.273438-7.585938.542969-10.488281-1.933593-2.902344-2.472657-4.261719-6.300782-3.574219-10.050782l14.398438-77.980468c.695312-3.75 3.339843-6.847657 6.933593-8.117188l81.171875-28.695312c3.59375-1.269532 7.59375-.523438 10.488282 1.953124l65.46875 55.882813c2.90625 2.46875 4.269531 6.308594 3.574218 10.058594l-9.375 50.769531c-.910156 5.085938-5.339844 8.785156-10.507812 8.78125zm0 0"
     id="path203"
     style="fill:#c69249;fill-opacity:1" />
  <path
     d="m230.195312 320c-.65625 0-1.3125-.058594-1.960937-.179688-5.789063-1.078124-9.609375-6.648437-8.53125-12.4375l5.257813-28.238281-18.59375-16-23.132813 8.175781-4.492187 24.148438 6.730468 5.710938c4.488282 3.835937 5.027344 10.578124 1.191406 15.066406-3.828124 4.488281-10.570312 5.023437-15.058593 1.195312l-11.425781-9.707031c-2.382813-2.027344-3.753907-5-3.753907-8.128906.003907-.691407.0625-1.378907.179688-2.058594l6.710937-36.160156c.703125-3.75 3.347656-6.839844 6.949219-8.105469l34.769531-12.265625c3.597656-1.273437 7.601563-.523437 10.496094 1.957031l27.285156 23.46875c.695313.507813 1.324219 1.097656 1.867188 1.761719 2.042968 2.425781 2.898437 5.644531 2.332031 8.769531l-6.394531 34.347656c-.953125 5.011719-5.316406 8.648438-10.425782 8.679688zm0 0"
     id="path205"
     style="fill:#c69249;fill-opacity:1" />
  <path
     d="m171.597656 274.667969c-2.691406 0-5.285156-1.011719-7.257812-2.835938l-35.199219-32.609375c-4.320313-4.007812-4.574219-10.753906-.570313-15.078125 4.007813-4.320312 10.757813-4.578125 15.078126-.570312l35.199218 32.605469c3.21875 2.984374 4.277344 7.632812 2.675782 11.714843-1.601563 4.082031-5.542969 6.773438-9.925782 6.773438zm0 0"
     id="path207"
     style="fill:#c69249;fill-opacity:1" />
  <path
     d="m139.414062 320c-5.199218.003906-9.644531-3.734375-10.527343-8.859375-.878907-5.125 2.058593-10.132813 6.964843-11.867187l27.734376-9.8125c5.507812-1.800782 11.445312 1.128906 13.371093 6.597656 1.925781 5.464844-.867187 11.472656-6.289062 13.519531l-27.734375 9.8125c-1.132813.398437-2.324219.605469-3.519532.609375zm0 0"
     id="path209"
     style="fill:#c69249;fill-opacity:1" />
  <path
     d="m236.46875 285.664062c-5.203125.007813-9.65625-3.742187-10.535156-8.871093-.875-5.132813 2.078125-10.148438 6.996094-11.867188l46.59375-16.390625c5.507812-1.800781 11.445312 1.128906 13.367187 6.597656 1.921875 5.460938-.867187 11.46875-6.289063 13.519532l-46.601562 16.402344c-1.132812.398437-2.328125.605468-3.53125.609374zm0 0"
     id="path211"
     style="fill:#c69249;fill-opacity:1" />
  <path
     d="m211.851562 260.476562c-.441406 0-.875 0-1.324218-.070312-2.808594-.347656-5.363282-1.796875-7.097656-4.035156-1.742188-2.230469-2.523438-5.0625-2.171876-7.871094l5.75-47.113281c.707032-5.855469 6.023438-10.023438 11.878907-9.316407 5.847656.707032 10.023437 6.023438 9.316406 11.875l-5.773437 47.167969c-.652344 5.347657-5.195313 9.363281-10.578126 9.363281zm0 0"
     id="path213"
     style="fill:#c69249;fill-opacity:1" />
</svg>
