<?xml version="1.0" encoding="UTF-8" standalone="no"?>
<!-- Created with Inkscape (http://www.inkscape.org/) -->

<svg
   xmlns:dc="http://purl.org/dc/elements/1.1/"
   xmlns:cc="http://creativecommons.org/ns#"
   xmlns:rdf="http://www.w3.org/1999/02/22-rdf-syntax-ns#"
   xmlns:svg="http://www.w3.org/2000/svg"
   xmlns="http://www.w3.org/2000/svg"
   xmlns:xlink="http://www.w3.org/1999/xlink"
   xmlns:sodipodi="http://sodipodi.sourceforge.net/DTD/sodipodi-0.dtd"
   xmlns:inkscape="http://www.inkscape.org/namespaces/inkscape"
   width="188.89053mm"
   height="24.375046mm"
   viewBox="0 0 188.89053 24.375046"
   version="1.1"
   id="svg1945"
   inkscape:version="0.92.4 (5da689c313, 2019-01-14)"
   sodipodi:docname="hackathons.svg">
  <defs
     id="defs1939">
    <linearGradient
       inkscape:collect="always"
       xlink:href="#linearGradient13109"
       id="linearGradient13111"
       x1="-1189.8013"
       y1="3265.9617"
       x2="-1124.5649"
       y2="3201.833"
       gradientUnits="userSpaceOnUse"
       gradientTransform="matrix(0.38000645,0,0,0.38000645,-993.11779,1836.0764)" />
    <linearGradient
       inkscape:collect="always"
       id="linearGradient13109">
      <stop
         style="stop-color:#328ff5;stop-opacity:1"
         offset="0"
         id="stop13105" />
      <stop
         style="stop-color:#5ddcfb;stop-opacity:1"
         offset="1"
         id="stop13107" />
    </linearGradient>
    <linearGradient
       inkscape:collect="always"
       xlink:href="#linearGradient13145"
       id="linearGradient13147"
       x1="-1143.673"
       y1="3166.6594"
       x2="-1108.2554"
       y2="3165.998"
       gradientUnits="userSpaceOnUse"
       gradientTransform="matrix(0.77432437,0,0,0.77432437,-448.57424,613.46748)" />
    <linearGradient
       inkscape:collect="always"
       id="linearGradient13145">
      <stop
         style="stop-color:#cc67fc;stop-opacity:1"
         offset="0"
         id="stop13141" />
      <stop
         style="stop-color:#8090fc;stop-opacity:1"
         offset="1"
         id="stop13143" />
    </linearGradient>
  </defs>
  <sodipodi:namedview
     id="base"
     pagecolor="#ffffff"
     bordercolor="#666666"
     borderopacity="1.0"
     inkscape:pageopacity="0.0"
     inkscape:pageshadow="2"
     inkscape:zoom="0.98994949"
     inkscape:cx="246.58652"
     inkscape:cy="150.31687"
     inkscape:document-units="mm"
     inkscape:current-layer="layer1"
     showgrid="false"
     fit-margin-top="0"
     fit-margin-left="0"
     fit-margin-right="0"
     fit-margin-bottom="0"
     inkscape:window-width="1680"
     inkscape:window-height="1013"
     inkscape:window-x="0"
     inkscape:window-y="0"
     inkscape:window-maximized="1" />
  <metadata
     id="metadata1942">
    <rdf:RDF>
      <cc:Work
         rdf:about="">
        <dc:format>image/svg+xml</dc:format>
        <dc:type
           rdf:resource="http://purl.org/dc/dcmitype/StillImage" />
        <dc:title></dc:title>
      </cc:Work>
    </rdf:RDF>
  </metadata>
  <g
     inkscape:label="Layer 1"
     inkscape:groupmode="layer"
     id="layer1"
     transform="translate(99.736979,-111.6994)">
    <g
       id="g15177"
       transform="translate(1345.5134,-2941.0871)"
       inkscape:export-filename="/home/frank/WebstormProjects/vd-emails/hackprep-intro/hackathons.png"
       inkscape:export-xdpi="134.46951"
       inkscape:export-ydpi="134.46951">
      <g
         transform="matrix(0.59933975,0,0,0.59933975,-1385.5385,3052.6559)"
         id="g1690"
         style="fill:#09e3c5;fill-opacity:1">
        <path
           style="fill:#09e3c5;fill-opacity:1"
           inkscape:connector-curvature="0"
           d="m 2.16939,37.3556 v 2.5141 L 0.789852,37.3556 H 0.222656 v 3.4919 h 0.528742 v -2.5042 l 1.379532,2.5042 h 0.5672 v -3.4919 z"
           id="path1617" />
        <path
           style="fill:#09e3c5;fill-opacity:1"
           inkscape:connector-curvature="0"
           d="M 7.66731,37.3556 7.05204,40.0693 6.3839,37.7247 H 5.90323 L 5.23509,40.0693 4.61983,37.3556 H 4.06225 l 0.88924,3.4919 h 0.53836 l 0.65372,-2.2149 0.65371,2.2149 h 0.53836 l 0.88925,-3.4919 z"
           id="path1619" />
        <path
           style="fill:#09e3c5;fill-opacity:1"
           inkscape:connector-curvature="0"
           d="m 9.49505,40.8475 h 0.52875 v -1.6063 h 1.3651 v 1.6063 h 0.5287 v -3.4919 h -0.5287 v 1.3668 H 10.0238 V 37.3556 H 9.49505 Z"
           id="path1621" />
        <path
           style="fill:#09e3c5;fill-opacity:1"
           inkscape:connector-curvature="0"
           d="m 14.3227,37.3556 -1.168,3.4919 h 0.5383 l 0.2788,-0.868 h 1.2017 l 0.2788,0.868 h 0.5384 l -1.1681,-3.4919 z m 0.25,0.6934 0.4422,1.4117 h -0.8844 z"
           id="path1623" />
        <path
           style="fill:#09e3c5;fill-opacity:1"
           inkscape:connector-curvature="0"
           d="m 19.9435,38.3732 c -0.1731,-0.6585 -0.6441,-1.0575 -1.3603,-1.0575 -0.8124,0 -1.5574,0.6036 -1.5574,1.7858 0,1.1823 0.745,1.7859 1.5574,1.7859 0.7162,0 1.1872,-0.3991 1.3603,-1.0576 l -0.4999,-0.1297 c -0.1683,0.444 -0.4038,0.6685 -0.8604,0.6685 -0.5672,0 -1.0191,-0.4141 -1.0191,-1.2671 0,-0.853 0.4519,-1.267 1.0191,-1.267 0.4566,0 0.6921,0.2244 0.8604,0.6684 z"
           id="path1625" />
        <path
           style="fill:#09e3c5;fill-opacity:1"
           inkscape:connector-curvature="0"
           d="m 21.3195,37.3556 v 3.4919 h 0.5287 v -1.7111 l 1.2786,1.7111 h 0.6777 l -1.466,-1.9305 1.3555,-1.5614 h -0.6441 l -1.2017,1.3419 v -1.3419 z"
           id="path1627" />
        <path
           style="fill:#09e3c5;fill-opacity:1"
           inkscape:connector-curvature="0"
           d="m 26.8364,37.9043 c -0.1778,-0.3292 -0.4662,-0.5886 -0.9277,-0.5886 -0.4902,0 -0.8796,0.3891 -0.8796,0.9178 0,1.0775 1.4324,0.9279 1.4324,1.6113 0,0.3093 -0.2115,0.5238 -0.5143,0.5238 -0.3845,0 -0.5816,-0.3492 -0.6778,-0.7383 l -0.4326,0.2843 c 0.1202,0.5587 0.5192,0.9728 1.1104,0.9728 0.6057,0 1.0527,-0.424 1.0527,-1.0626 0,-1.0775 -1.442,-0.9428 -1.442,-1.6312 0,-0.2045 0.1345,-0.3791 0.3508,-0.3791 0.1971,0 0.3654,0.1197 0.4999,0.3841 z"
           id="path1629" />
        <path
           style="clip-rule:evenodd;fill:#09e3c5;fill-opacity:1;fill-rule:evenodd"
           inkscape:connector-curvature="0"
           d="M 22.2686,4.97817 26.8463,0.227295 V 34.4336 l -4.5777,-4.7509 z"
           id="path1631" />
        <path
           style="clip-rule:evenodd;fill:#09e3c5;fill-opacity:1;fill-rule:evenodd"
           inkscape:connector-curvature="0"
           d="M 0.294922,0.4646 4.8728,4.97793 V 29.6825 l -4.577878,4.7509 z"
           id="path1633" />
        <path
           style="clip-rule:evenodd;fill:#09e3c5;fill-opacity:1;fill-rule:evenodd"
           inkscape:connector-curvature="0"
           d="M 0.294593,34.4335 11.5103,23.0314 8.3058,19.7058 0.294789,27.5448 Z"
           id="path1635" />
        <path
           style="clip-rule:evenodd;fill:#09e3c5;fill-opacity:1;fill-rule:evenodd"
           inkscape:connector-curvature="0"
           d="M 0.294922,6.87852 V 0.227295 L 26.8466,27.7824 v 6.6512 z"
           id="path1637" />
      </g>
      <g
         transform="matrix(0.40724408,0,0,0.40724408,-754.55554,1793.7621)"
         id="g13260">
        <g
           id="g1855"
           transform="matrix(0.19953279,0,0,0.19953279,-1059.2943,2542.8492)">
          <path
             id="path1847"
             transform="matrix(0.26458333,0,0,0.26458333,0,-312.6)"
             d="m -3987.1035,12603.594 v 44.531 c 0,37.813 0.2328,45.087 1.539,48.213 2.072,4.959 4.2049,7.19 8.9629,9.375 v -0.02 c 2.6907,1.236 6.371,1.858 11.2481,1.858 l 7.25,0.04 v -8.5 -8.5 h -3.4414 c -6.6248,0 -6.5586,0.478 -6.5586,-45.723 v -41.277 h -9.4981 z m 292.3144,26.605 c -2.3129,0 -4.6621,0.151 -7.0312,0.487 -13.6835,1.937 -25.4642,10.389 -30.9082,22.175 -2.5881,5.603 -2.8731,7.267 -2.8731,16.721 0,9.455 0.2851,11.12 2.8731,16.723 5.3018,11.478 17.3249,20.289 30.2637,22.177 19.4603,2.841 37.8198,-5.976 45.1914,-21.703 2.4086,-5.138 2.6718,-6.824 2.6718,-17.197 0,-10.682 -0.2082,-11.922 -2.9199,-17.445 -6.6859,-13.617 -21.077,-21.882 -37.2676,-21.938 z m -122.8789,0.405 c -8.6026,0.01 -15.3136,2.879 -20.6836,8.835 l -3.7519,4.161 v -5.504 -5.502 h -8.9981 -9.0019 v 37 36.998 h 9.5019 9.5 v -19.319 c 0,-14.473 0.3848,-20.617 1.5371,-24.498 2.9972,-10.092 13.2599,-17.167 20.5333,-14.154 5.4485,2.257 5.9277,4.923 5.9277,32.938 v 25.033 h 9.3769 9.375 l 0.4219,-20.822 c 0.4101,-20.307 0.4885,-20.964 3.1856,-26.477 3.1124,-6.362 6.1534,-9.175 11.7246,-10.844 2.9773,-0.891 4.5091,-0.853 6.9883,0.174 5.4487,2.257 5.9296,4.923 5.9296,32.938 v 25.033 h 9.5 9.5 v -28.059 c 0,-16.909 -0.4339,-29.774 -1.0898,-32.379 -0.5986,-2.377 -2.4777,-6.01 -4.1777,-8.072 -4.4137,-5.354 -9.6633,-7.459 -18.7325,-7.459 -9.2423,-0.01 -15.7321,2.693 -21.3281,8.9 -2.1052,2.336 -3.9258,4.092 -4.043,3.907 -6.6954,-10.611 -10.3839,-12.828 -21.1953,-12.828 z m -128.5449,1.99 0.3067,30.248 c 0.2925,29.118 0.3879,30.408 2.5449,34.443 2.451,4.585 7.5375,8.969 11.9433,10.291 1.5481,0.465 6.4147,0.88 10.8145,0.922 9.7391,0.09 16.0765,-2.459 21.75,-8.752 l 3.75,-4.158 v 5.502 5.504 h 9 9 v -37 -37 h -9.4277 -9.4297 l -0.3203,21.248 -0.3223,21.252 -2.9492,5.322 c -3.402,6.141 -6.4687,8.629 -12.6993,10.295 -5.4795,1.466 -9.4178,0.343 -12.291,-3.502 -1.937,-2.592 -2.0777,-4.314 -2.3574,-28.688 l -0.2988,-25.927 h -9.5059 z m 250.7695,14.281 c 0.3971,-0.01 0.7961,-0.01 1.1954,0 4.2586,0.127 8.6192,1.649 12.5683,4.904 5.4642,4.504 7.9375,10.052 7.9375,17.803 0,10.533 -5.9675,19.069 -15.2832,21.859 v 0 c -4.8431,1.453 -7.6433,1.389 -12.3184,-0.279 -8.1973,-2.926 -13.0645,-8.54 -14.6191,-16.861 -2.8286,-15.142 8.2114,-27.042 20.5195,-27.424 z"
             style="fill:#00e1c6;fill-opacity:1;stroke-width:0.99999994"
             inkscape:connector-curvature="0" />
          <path
             id="path1843"
             transform="matrix(0.26458333,0,0,0.26458333,0,-312.6)"
             d="m -3640.1016,12603.594 v 51.5 51.5 h 9.5 9.5 v -19.823 c 0,-23.382 0.7953,-26.891 7.4844,-33.056 7.2017,-6.639 16.7307,-7.713 21.6816,-2.447 2.3074,2.454 2.3376,2.79 2.6309,28.904 l 0.2968,26.422 h 9.5078 9.5079 l -0.3047,-30.25 c -0.2913,-28.974 -0.3967,-30.425 -2.5098,-34.375 -4.4647,-8.347 -10.5256,-11.369 -22.8652,-11.369 -9.2387,0 -15.6197,2.253 -21.0528,7.459 l -4.375,4.191 v -19.328 -19.328 h -9.5 z m 237,0 v 51.5 51.488 h 9.5 9.5 v -16 -16 h 4.2676 4.2695 l 9.4805,15.973 9.4824,15.974 11.25,0.04 c 6.1875,0.01 11.25,-0.172 11.25,-0.414 0,-0.242 -5.8033,-9.42 -12.8964,-20.398 l -12.8985,-19.961 11.3985,-16.131 c 6.2681,-8.872 11.3964,-16.342 11.3964,-16.6 0,-0.257 -4.8375,-0.469 -10.75,-0.468 h -10.75 l -8.8496,13 c -8.803,12.931 -8.8684,13 -12.75,13 h -3.9004 v -27.5 -27.5 h -9.5 z m -41.2109,26.584 c -15.9214,-0.02 -29.4003,7.78 -36.0391,21.26 -3.0976,6.289 -3.25,7.139 -3.25,18.138 0,10.997 0.1529,11.851 3.25,18.147 5.5815,11.346 16.0793,18.89 28.8868,20.759 10.9545,1.6 22.187,-0.596 31.2773,-6.113 2.9786,-1.807 5.814,-3.96 6.3008,-4.785 0.6115,-1.037 -0.2289,-3.579 -2.7207,-8.229 l -3.6055,-6.728 -5.0683,3.486 c -16.5274,11.369 -34.6218,5.975 -38.8321,-11.576 -3.6265,-15.117 9.3182,-29.92 24.0977,-27.557 4.2912,0.686 11.2259,3.793 14.0996,6.317 2.2329,1.961 3.0342,1.332 7.3613,-5.791 3.5422,-5.831 3.6043,-6.098 1.8809,-8.002 -3.0266,-3.345 -13.5717,-7.85 -20.6778,-8.834 -2.3613,-0.327 -4.6864,-0.49 -6.9609,-0.492 z m 140.3867,0.123 c -3.1176,0.07 -6.0962,0.444 -8.6914,1.15 -6.7461,1.837 -12.9649,6.434 -15.3418,11.344 -2.4842,5.132 -2.8398,13.2 -0.7969,18.08 1.9066,4.554 8.3965,10.059 15.7715,13.377 17.9615,8.082 20.3717,10.176 16.8555,14.646 -1.1634,1.479 -3.5279,2.893 -5.4316,3.252 -4.2256,0.793 -12.9309,-1.653 -17.9141,-5.035 -2.0441,-1.387 -4.0344,-2.521 -4.4238,-2.521 -0.3894,0 -2.6304,3.027 -4.9786,6.728 l -4.2695,6.729 2.2735,1.842 c 4.2366,3.433 14.406,7.725 20.3515,8.589 5.8711,0.854 8.2474,0.791 15.8731,-0.425 7.7797,-1.241 14.3849,-6.135 18.039,-13.369 2.6944,-5.335 1.7361,-14.87 -2.0429,-20.325 -2.5195,-3.636 -5.0369,-5.308 -16.9551,-11.269 -13.401,-6.703 -14.009,-7.141 -14.3106,-10.276 -0.2839,-2.95 0.057,-3.427 3.4278,-4.836 4.8193,-2.013 10.6956,-1.173 17.7558,2.541 l 5.3262,2.801 3.6211,-7.318 3.6211,-7.318 -2.5508,-2.006 c -5.2526,-4.131 -15.8561,-6.598 -25.209,-6.381 z m -221.5351,0.08 c -8.5174,0.07 -18.516,2.046 -24.6407,5.285 -6.605,3.493 -6.4916,3.005 -2.5371,10.857 1.9963,3.964 3.9472,7.043 4.334,6.842 10.724,-5.576 12.9271,-6.269 19.9297,-6.269 6.4164,0 7.5141,0.285 9.7812,2.552 1.4046,1.405 2.811,4.146 3.127,6.092 l 0.5742,3.539 -9.3535,0.647 c -10.3823,0.718 -17.3419,2.332 -23.3555,5.414 -8.9725,4.598 -12.5,10.314 -12.5,20.256 0,10.356 3.7103,16.476 12.5,20.621 3.8441,1.813 6.718,2.369 12.4336,2.369 8.7339,0.01 14.2933,-2.208 19.0215,-7.594 l 3.0449,-3.467 v 4.536 4.535 h 8.5 8.5 v -27.375 c 0,-29.228 -0.3953,-32.167 -5.1933,-38.686 -2.5399,-3.451 -8.797,-7.489 -13.9727,-9.015 -2.7558,-0.813 -6.3218,-1.172 -10.1933,-1.139 z m 10.3593,42.404 v 2.938 c 0,6.147 -4.5827,13.543 -10.2011,16.467 -1.4852,0.771 -4.3316,1.406 -6.3262,1.406 -4.667,0 -9.4727,-4.459 -9.4727,-8.789 0,-6.508 6.8706,-10.519 19.75,-11.532 z"
             style="fill:#ffffff;fill-opacity:1;stroke-width:0.99999994"
             inkscape:connector-curvature="0" />
        </g>
        <g
           id="g13210"
           transform="matrix(4.2574843,0,0,4.2574843,4293.2234,-10337.295)">
          <path
             sodipodi:nodetypes="ccccc"
             inkscape:connector-curvature="0"
             id="path1813"
             d="m -1300.9653,3156.8264 v 1.7568 l -2.6741,1.5747 v -1.972 z"
             style="fill:#00a58f;fill-opacity:1;stroke:none;stroke-width:0.08451007px;stroke-linecap:butt;stroke-linejoin:miter;stroke-opacity:1" />
          <path
             sodipodi:nodetypes="cccccccccc"
             inkscape:connector-curvature="0"
             id="path1815"
             d="m -1300.9503,3154.1821 -5.692,2.9879 0.015,8.2465 2.973,-1.4939 0.075,-2.0467 -3.0177,0.075 2.958,-1.7927 0.045,-1.972 2.6442,-1.3595 z"
             style="fill:#a5fc6f;fill-opacity:1;stroke:none;stroke-width:0.08451007px;stroke-linecap:butt;stroke-linejoin:miter;stroke-opacity:1" />
          <path
             sodipodi:nodetypes="cccc"
             inkscape:connector-curvature="0"
             id="path1817"
             d="m -1306.5974,3161.9506 3.0177,-0.075 -0.06,-1.718 z"
             style="fill:#2fbebd;fill-opacity:1;stroke:none;stroke-width:0.08451007px;stroke-linecap:butt;stroke-linejoin:miter;stroke-opacity:1" />
          <path
             sodipodi:nodetypes="ccccc"
             inkscape:connector-curvature="0"
             id="path1819"
             d="m -1303.6394,3161.8759 v -1.718 l 2.6741,-1.5747 v 1.7838 z"
             style="fill:#007666;fill-opacity:1;stroke:none;stroke-width:0.08451007px;stroke-linecap:butt;stroke-linejoin:miter;stroke-opacity:1" />
          <path
             sodipodi:nodetypes="ccccc"
             inkscape:connector-curvature="0"
             id="path1821"
             d="m -1303.6394,3161.8759 v 2.0467 l 2.6741,-1.4791 v -2.0765 z"
             style="fill:#00a58f;fill-opacity:1;stroke:none;stroke-width:0.08451007px;stroke-linecap:butt;stroke-linejoin:miter;stroke-opacity:1" />
          <path
             sodipodi:nodetypes="ccsccccccc"
             inkscape:connector-curvature="0"
             id="path1823"
             d="m -1303.6394,3163.9077 v 2.5247 c 0,0 5.8263,-2.9431 5.8263,-3.0028 0,-0.06 -0.075,-8.2914 -0.075,-8.2914 l -3.0775,1.6882 v 1.7629 l 3.0775,-0.03 -3.0775,1.8077 v 2.0765 z"
             style="fill:#00e1c6;fill-opacity:1;stroke:none;stroke-width:0.08451007px;stroke-linecap:butt;stroke-linejoin:miter;stroke-opacity:1" />
          <path
             sodipodi:nodetypes="cccc"
             inkscape:connector-curvature="0"
             id="path1825"
             d="m -1300.9653,3158.5832 v 1.7837 l 3.1172,-1.826 z"
             style="fill:#2fbebd;fill-opacity:1;stroke:none;stroke-width:0.08451007px;stroke-linecap:butt;stroke-linejoin:miter;stroke-opacity:1" />
        </g>
      </g>
      <path
         inkscape:connector-curvature="0"
         id="path13103"
         d="m -1433.2381,3077.1374 c -0.5184,-0.1089 -0.9385,-0.4991 -1.1163,-1.037 -0.058,-0.1772 -0.08,-0.3241 -0.08,-0.5435 0,-0.2194 0.022,-0.3663 0.08,-0.5434 0.1379,-0.4171 0.4116,-0.7377 0.7873,-0.9223 0.204,-0.1002 0.3338,-0.1302 0.5942,-0.1373 0.1681,-0.01 0.2377,0 0.3323,0.015 0.2451,0.044 0.4245,0.1275 0.5759,0.2684 l 0.085,0.079 0.039,-0.1371 0.039,-0.137 0.3772,-0.01 0.3771,-0.01 -0.01,1.5294 -0.01,1.5295 -0.3709,0.01 -0.3709,0.01 -0.026,-0.095 c -0.014,-0.053 -0.032,-0.1246 -0.041,-0.1603 l -0.015,-0.065 -0.087,0.087 c -0.048,0.048 -0.1196,0.1083 -0.1589,0.1342 -0.085,0.055 -0.2538,0.1141 -0.408,0.141 -0.1598,0.028 -0.4587,0.024 -0.6064,-0.01 z m 0.6544,-0.774 c 0.2072,-0.053 0.3919,-0.194 0.4724,-0.3609 0.071,-0.1464 0.083,-0.2118 0.083,-0.4517 0,-0.2049 0,-0.2208 -0.036,-0.3253 -0.1084,-0.3308 -0.3572,-0.4997 -0.7356,-0.4992 -0.1465,1e-4 -0.2268,0.018 -0.3484,0.079 -0.283,0.1415 -0.4492,0.4215 -0.4492,0.757 0,0.1512 0.019,0.2379 0.081,0.369 0.097,0.206 0.3004,0.378 0.5167,0.4373 0.095,0.025 0.3042,0.023 0.4165,-0.01 z m 3.1779,0.78 c -0.6374,-0.1152 -1.1676,-0.6543 -1.2805,-1.302 -0.024,-0.1426 -0.024,-0.4263 0,-0.5689 0.084,-0.4834 0.4031,-0.9184 0.8406,-1.1473 0.2377,-0.1244 0.4487,-0.1745 0.7341,-0.1745 0.3515,0 0.6111,0.08 0.8981,0.2755 0.1127,0.077 0.3389,0.2901 0.3389,0.3196 0,0.01 -0.1308,0.1175 -0.2907,0.2412 -0.3304,0.2557 -0.2892,0.243 -0.4233,0.13 -0.092,-0.078 -0.2472,-0.1582 -0.3421,-0.1775 -0.1065,-0.021 -0.2723,-0.017 -0.3612,0.01 -0.2595,0.081 -0.4714,0.3299 -0.5345,0.6271 -0.025,0.1213 -0.023,0.3343 0.01,0.4486 0.071,0.2782 0.2961,0.5058 0.5551,0.5619 0.1097,0.023 0.3075,0.01 0.4153,-0.028 0.1273,-0.046 0.2463,-0.1198 0.3418,-0.2139 l 0.082,-0.081 0.2659,0.2665 0.2662,0.2667 -0.1235,0.1193 c -0.2381,0.2301 -0.5144,0.3748 -0.8166,0.4275 -0.1308,0.023 -0.4419,0.021 -0.5727,0 z m 6.0235,-0.01 c -0.1577,-0.034 -0.3582,-0.1168 -0.4842,-0.2006 -0.1314,-0.087 -0.2735,-0.2371 -0.3257,-0.3432 -0.021,-0.044 -0.039,-0.083 -0.039,-0.087 0,-0.01 0.6021,-0.3041 0.6201,-0.3041 0.01,0 0.024,0.017 0.039,0.037 0.033,0.05 0.1339,0.1272 0.2099,0.1612 0.083,0.037 0.3138,0.048 0.4139,0.018 0.1174,-0.034 0.2317,-0.1624 0.2317,-0.26 0,-0.083 -0.2006,-0.204 -0.3816,-0.2307 -0.3441,-0.05 -0.597,-0.1457 -0.7794,-0.2924 -0.1519,-0.1222 -0.2582,-0.2794 -0.2898,-0.4285 -0.024,-0.1125 -0.018,-0.389 0.01,-0.4929 0.1001,-0.3614 0.4266,-0.6467 0.8405,-0.7348 0.113,-0.023 0.3655,-0.023 0.4858,0 0.3355,0.069 0.6312,0.2919 0.7671,0.5774 0.082,0.1726 0.1106,0.1436 -0.2625,0.2676 -0.1782,0.059 -0.3302,0.1078 -0.3376,0.1078 -0.01,0 -0.02,-0.016 -0.029,-0.035 -0.021,-0.05 -0.095,-0.1181 -0.1731,-0.1569 -0.078,-0.039 -0.2261,-0.054 -0.2985,-0.031 -0.085,0.028 -0.1814,0.1529 -0.1814,0.2347 0,0.086 0.062,0.1644 0.1689,0.2118 0.028,0.013 0.1287,0.037 0.2224,0.053 0.6454,0.1132 0.9971,0.3648 1.0788,0.7718 0.1037,0.5162 -0.2394,0.9809 -0.8434,1.1423 -0.1531,0.042 -0.4976,0.047 -0.6636,0.011 z m 2.2932,-0.017 c -0.1097,-0.036 -0.2188,-0.1347 -0.2763,-0.2504 -0.026,-0.052 -0.029,-0.076 -0.029,-0.2065 0,-0.1312 0.01,-0.1543 0.029,-0.2072 0.044,-0.088 0.1395,-0.1864 0.2204,-0.2262 0.064,-0.031 0.082,-0.035 0.2115,-0.035 0.12,0 0.1506,0.01 0.2005,0.028 0.088,0.041 0.1962,0.1505 0.2379,0.2411 0.031,0.068 0.035,0.09 0.035,0.1995 0,0.1093 -0.01,0.1316 -0.035,0.1995 -0.042,0.091 -0.1507,0.201 -0.2379,0.2404 -0.074,0.034 -0.2766,0.042 -0.3565,0.017 z m -20.2626,-2.2723 v -2.2523 h 0.4307 0.4309 v 0.8246 c 0,0.4535 0.01,0.8247 0.01,0.8247 0.01,0 0.04,-0.029 0.082,-0.061 0.099,-0.079 0.236,-0.1504 0.3738,-0.193 0.1055,-0.032 0.1212,-0.034 0.3626,-0.034 0.2392,2e-4 0.2581,0.01 0.3631,0.034 0.5204,0.158 0.899,0.5868 1.0285,1.165 0.039,0.173 0.05,0.4657 0.046,1.2245 l -0.01,0.7139 -0.4216,0.01 -0.4214,0.01 -2e-4,-0.8093 c 0,-0.766 0,-0.8148 -0.024,-0.9118 -0.058,-0.2415 -0.1949,-0.4475 -0.3744,-0.5622 -0.105,-0.067 -0.1899,-0.092 -0.3117,-0.092 -0.2946,0 -0.5204,0.1546 -0.6402,0.4384 -0.06,0.1416 -0.064,0.218 -0.064,1.1078 v 0.8291 h -0.4307 -0.4308 z m 3.5077,0 v -2.2523 h 0.4308 0.4308 v 0.8246 c 0,0.4535 0.01,0.8247 0.01,0.8247 0.01,0 0.041,-0.029 0.082,-0.061 0.099,-0.079 0.236,-0.1504 0.374,-0.193 0.1053,-0.032 0.1211,-0.034 0.3624,-0.034 0.2392,2e-4 0.2581,0.01 0.3631,0.034 0.5204,0.158 0.8989,0.5868 1.0284,1.165 0.039,0.173 0.05,0.4657 0.046,1.2245 l -0.01,0.7139 -0.4215,0.01 -0.4216,0.01 -10e-5,-0.8093 c 0,-0.766 0,-0.8148 -0.024,-0.9118 -0.058,-0.2415 -0.1952,-0.4475 -0.3745,-0.5622 -0.105,-0.067 -0.1898,-0.092 -0.3118,-0.092 -0.2945,0 -0.5203,0.1546 -0.6402,0.4384 -0.06,0.1416 -0.064,0.218 -0.064,1.1078 v 0.8291 h -0.4309 -0.4307 z m 10.4124,1e-4 v -2.2524 h 0.4308 0.4306 l 0.01,1.2313 0.01,1.2314 0.48,-0.5112 0.48,-0.5111 0.528,-2e-4 0.5279,-2e-4 -0.061,0.064 c -0.033,0.035 -0.2985,0.3186 -0.5895,0.6291 -0.2909,0.3103 -0.5302,0.5679 -0.5318,0.5723 0,0.01 0.285,0.4067 0.6368,0.8941 0.3517,0.4874 0.6395,0.8902 0.6396,0.8954 2e-4,0.01 -0.2298,0.01 -0.5109,0.01 h -0.5113 l -0.4034,-0.6099 -0.4036,-0.6099 -0.1407,0.154 -0.1406,0.1539 -0.01,0.4528 -0.01,0.4529 -0.4277,0.01 -0.4276,0.01 v -2.2524 z m -16.6087,2.2001 c -0.01,-0.023 -0.2835,-0.702 -0.6098,-1.511 -0.3263,-0.8089 -0.5961,-1.4777 -0.5996,-1.4863 -0.01,-0.012 0.088,-0.015 0.4586,-0.012 l 0.465,0.01 0.4256,1.1106 c 0.2341,0.6107 0.4284,1.1105 0.4318,1.1105 0.01,0 0.1968,-0.5012 0.43,-1.1137 l 0.4237,-1.1135 h 0.4654 c 0.2561,0 0.4655,0 0.4654,0.01 0,0 -0.276,0.6871 -0.6133,1.5231 l -0.6131,1.5201 -0.5565,0.01 -0.5565,0.01 z m 5.904,-15.1097 c -2.8989,-5.0215 -5.2709,-9.1336 -5.2709,-9.1381 0,-0.01 4.0155,-0.01 8.9232,-0.01 4.9078,0 8.9232,0.01 8.9232,0.01 0,0.01 -0.2839,0.4996 -0.6308,1.1012 l -0.6308,1.0939 -6.2984,3e-4 c -3.4643,2e-4 -6.2986,0.01 -6.2986,0.01 0,0.01 5.809,10.0726 7.2499,12.5627 l 0.675,1.1665 -0.6731,1.1683 c -0.3704,0.6425 -0.6788,1.1683 -0.6856,1.1683 -0.01,0 -2.3842,-4.1085 -5.2831,-9.1299 z m 6.8491,6.1994 c -0.2516,-0.4291 -1.2692,-2.1981 -1.273,-2.2131 -0.01,-0.01 1.4,-2.4526 3.1171,-5.4277 1.7171,-2.9751 3.1366,-5.4374 3.1545,-5.4718 0.017,-0.034 0.3145,-0.5506 0.6594,-1.1476 l 0.627,-1.0853 h 1.3528 c 1.1269,0 1.3517,0.01 1.3465,0.017 -0.01,0.015 -8.9055,15.4311 -8.9135,15.4398 -0.01,0.01 -0.034,-0.048 -0.071,-0.1108 z"
         style="fill:url(#linearGradient13111);fill-opacity:1;stroke-width:0.01230781" />
      <path
         inkscape:connector-curvature="0"
         id="path13139"
         d="m -1332.5396,3076.8644 c -0.3379,-0.1836 -0.5849,-0.5343 -0.6676,-0.9478 -0.072,-0.3611 -0.3697,-0.969 -0.661,-1.351 -0.3757,-0.4926 -0.4936,-0.8388 -0.4053,-1.1906 0.1585,-0.6315 2.3569,-2.9909 3.7392,-4.0131 0.5827,-0.4308 1.4913,-1.1913 2.019,-1.6899 l 0.9598,-0.9065 -0.8269,-1.4038 c -1.0312,-1.7504 -2.1223,-4.3886 -2.8175,-6.8121 -0.8254,-2.8776 -0.4827,-2.628 0.5057,0.368 0.4871,1.4764 0.9522,2.6844 1.0336,2.6844 0.082,0 0.3668,0.4669 0.6342,1.0378 0.2673,0.5706 0.566,1.087 0.6636,1.1474 0.098,0.06 -0.046,-0.3376 -0.3188,-0.8841 -0.8323,-1.6668 -1.1522,-2.745 -1.4754,-4.9738 -0.1704,-1.1749 -0.307,-2.235 -0.3037,-2.3561 0.015,-0.4817 0.3609,0.4502 0.4907,1.3166 0.075,0.5071 0.2781,1.1524 0.4493,1.434 0.217,0.3569 0.2719,0.388 0.1809,0.1025 -0.6354,-1.9973 -0.9841,-5.634 -0.5401,-5.634 0.098,0 0.3809,1.0512 0.6297,2.3358 0.5022,2.5925 1.1938,5.0006 1.2231,4.2579 0.01,-0.2609 -0.081,-0.6607 -0.2027,-0.8883 -0.2862,-0.5347 -0.095,-0.7242 0.3163,-0.3131 0.1757,0.1756 0.3769,0.7399 0.4474,1.2536 0.071,0.514 0.2371,0.9344 0.3705,0.9344 0.1334,0 0.3744,0.2747 0.5357,0.6104 0.1611,0.3359 0.6909,1.2611 1.1771,2.0561 l 0.8843,1.4456 0.4695,-0.3659 c 1.6596,-1.2926 7.7787,-5.8539 8.6613,-6.4563 2.8784,-1.9642 6.4447,-1.1683 7.944,1.7727 0.5908,1.1589 0.6217,1.3486 0.6877,4.1999 0.082,3.5269 -0.2194,5.2932 -1.2849,7.5367 -1.7421,3.6685 -5.2166,5.3998 -9.183,4.5764 -1.5643,-0.3248 -4.1282,-1.6021 -5.5657,-2.7728 -0.6577,-0.5358 -1.132,-0.8709 -1.0541,-0.7447 0.3018,0.4881 -0.2641,0.2002 -0.5931,-0.302 -0.344,-0.5248 -0.3423,-0.5297 0.13,-0.383 0.263,0.082 0.7549,0.3323 1.093,0.5569 0.338,0.2244 0.1581,0.01 -0.3998,-0.4878 -0.919,-0.8118 -1.3404,-0.9948 -1.1796,-0.5125 0.033,0.098 -0.079,0.1257 -0.2482,0.06 -0.2064,-0.08 -0.8332,0.4634 -1.9035,1.6479 -4.1283,4.5692 -4.3591,4.7358 -5.6147,4.0534 z m 18.9059,-5.7533 c 1.8078,-0.9347 2.9345,-4.6514 2.5366,-8.3667 -0.1203,-1.1247 -0.2315,-1.4165 -0.6418,-1.6853 -0.4828,-0.3164 -0.5475,-0.2866 -2.4037,1.1086 -1.8731,1.408 -6.501,5.1369 -7.105,5.7248 -0.2717,0.2647 -0.191,0.4025 0.6994,1.1935 2.4543,2.1805 5.1099,2.9584 6.9145,2.0251 z m -10.6869,-1.0101 c 0,-0.059 -0.5532,-0.7796 -1.2292,-1.6034 -0.6762,-0.8238 -1.2292,-1.5666 -1.2292,-1.6506 0,-0.1635 0.9117,0.5002 1.0044,0.7313 0.1857,0.4622 1.8691,2.046 2.0947,1.9708 0.18,-0.059 0.083,-0.2157 -0.2864,-0.4574 -0.3075,-0.2015 -0.5592,-0.5113 -0.5592,-0.6885 0,-0.2354 0.1616,-0.1672 0.6,0.2528 l 0.6,0.5748 0.6293,-0.448 c 0.346,-0.2465 0.6291,-0.5173 0.6291,-0.602 0,-0.085 -0.3017,-0.5164 -0.6705,-0.9593 -0.3689,-0.4427 -0.9303,-1.1553 -1.2474,-1.5835 -0.4599,-0.6205 -0.6343,-0.7304 -0.8612,-0.5422 -0.2371,0.1968 -0.1797,0.3884 0.3452,1.1513 0.3463,0.5033 0.5805,0.9642 0.5204,1.0242 -0.059,0.06 -0.3684,-0.2672 -0.6855,-0.7272 -0.6348,-0.921 -1.236,-1.0471 -1.1199,-0.2347 0.063,0.4418 0.034,0.4661 -0.2673,0.2167 -0.2911,-0.2416 -0.3937,-0.2255 -0.7335,0.1143 -0.3902,0.3902 -0.3799,0.4146 0.8411,1.9806 1.0666,1.3679 1.6251,1.8765 1.6251,1.48 z m -0.9105,-2.6717 c -0.1934,-0.295 -0.3055,-0.5823 -0.2491,-0.6387 0.056,-0.056 0.2605,0.139 0.4539,0.4339 0.1933,0.295 0.3054,0.5825 0.249,0.6388 -0.056,0.056 -0.2606,-0.139 -0.4538,-0.434 z m -3.3946,-1.3268 c -0.3637,-0.8779 -0.1408,-0.9548 0.27,-0.093 0.1874,0.393 0.2612,0.7145 0.164,0.7145 -0.097,0 -0.2925,-0.2795 -0.434,-0.6212 z m 0.3504,-8.6785 c -0.084,-0.2135 -0.1042,-0.4363 -0.044,-0.4952 0.1868,-0.1869 0.3513,0.1192 0.2729,0.5084 -0.072,0.3564 -0.083,0.3558 -0.2278,-0.013 z"
         style="fill:url(#linearGradient13147);fill-opacity:1;stroke-width:0.20487329" />
    </g>
  </g>
</svg>
